jomhuria-latin.sfdir
StartChar: exclam
Encoding: 33 33 1
Width: 482
Flags: W
LayerCount: 2
Back
SplineSet
130 90 m 128,-1,1
 130 135 130 135 163.5 166.5 c 128,-1,2
 197 198 197 198 242 198 c 128,-1,3
 287 198 287 198 318.5 166.5 c 128,-1,4
 350 135 350 135 350 90 c 128,-1,5
 350 45 350 45 318.5 11.5 c 128,-1,6
 287 -22 287 -22 242 -22 c 128,-1,7
 197 -22 197 -22 163.5 11.5 c 128,-1,0
 130 45 130 45 130 90 c 128,-1,1
250 1284 m 0,8,9
 293 1284 293 1284 315.5 1248.5 c 128,-1,10
 338 1213 338 1213 338 1168 c 0,11,12
 338 1143 338 1143 330.5 1054.5 c 128,-1,13
 323 966 323 966 304 753.5 c 128,-1,14
 285 541 285 541 268 344 c 1,15,16
 256 320 256 320 236 318 c 1,17,18
 217 326 217 326 210 340 c 1,19,20
 150 1030 150 1030 150 1168 c 0,21,22
 150 1213 150 1213 177.5 1248.5 c 128,-1,23
 205 1284 205 1284 250 1284 c 0,8,9
EndSplineSet
Fore
SplineSet
255.852392657 1295.3551354 m 0
 212.625920437 1297.68721902 180.274168216 1277.84338536 167.497957171 1253.01566479 c 0
 147.519896445 1237.86963112 141.332036823 1204.3916967 141.351700099 1174.01365821 c 0
 129.074667479 1072.38977342 148.991304155 792.757535672 189.216426884 340.826826269 c 0
 198.29360133 318.878421347 214.237540714 312.632892626 227.785800769 308.143850988 c 0
 260.900956011 298.537957586 274.646381906 325.10854464 280.054157266 345.01428446 c 0
 290.982691589 473.162477054 311.03316411 604.029182365 314.18366974 756.711432949 c 0
 336.484318917 888.797846501 336.459044272 994.485640581 342.428066027 1059.83481049 c 0
 348.916328976 1113.48452252 346.593878032 1156.75583466 347.253692056 1172.02158836 c 0
 346.92820613 1206.01531114 340.953510121 1225.50150748 333.532124938 1259.59441818 c 0
 308.820298469 1279.88960208 277.912503288 1296.39058802 255.852392657 1295.3551354 c 0
108.727860468 85.8827080132 m 0
 122.097792326 63.1252619213 133.341491646 25.9986324328 157.282848558 1.23287632007 c 0
 183.644089439 -20.5801258836 211.006486667 -36.6672958128 240.145033589 -32.7406528789 c 0
 276.936474674 -38.0278072092 302.687807136 -24.4168206773 330.904936906 5.42216089467 c 0
 358.245708711 28.7536932592 360.33112285 56.8671595102 362.751109516 85.5925828866 c 0
 358.24700381 121.679069422 358.453329905 148.542364214 323.114024388 181.115820632 c 0
 306.91729097 194.552487862 278.047843345 213.973392933 240.499663869 212.200050385 c 0
 215.405096784 208.306364952 181.181945425 193.640577003 155.316581613 183.830817986 c 0
 132.654450817 155.079699373 108.803388086 126.4290051 108.727860468 85.8827080132 c 0
255.205067543 1275.29523016 m 0
 269.958513686 1263.79739867 288.746609324 1257.71083476 300.332584339 1240.1719599 c 0
 312.53109812 1224.25100017 326.771098333 1197.55647152 318.702534467 1161.25395325 c 0
 325.884817282 1149.53510112 320.039660307 1119.83174617 316.326651864 1053.19695096 c 0
 316.738851526 995.844773806 306.075749171 901.317228347 295.362381545 755.338369534 c 0
 271.428359154 607.657539714 261.216863041 478.503599644 246.714131549 341.634763162 c 0
 244.87838303 341.493482829 241.080400176 338.270067477 239.302987715 330.086754041 c 0
 229.9876873 337.948266853 229.476118087 336.192319969 218.5477137 348.441698616 c 0
 180.51026074 801.356525222 158.510980685 1069.64585006 162.293989748 1163.39350253 c 0
 159.051669099 1195.0818802 169.815933072 1213.07208896 191.801837467 1236.69509378 c 0
 206.489069198 1254.87996179 225.285724888 1265.74355591 255.205067543 1275.29523016 c 0
147.540718605 86.9488289033 m 0
 150.684539718 120.62428675 158.45177384 135.402013957 180.289099646 150.576742169 c 0
 198.129441836 168.019334589 208.357906444 184.574770279 244.139493257 188.689845709 c 0
 262.757016615 182.99392021 282.806417387 178.692471685 309.150316311 154.142165345 c 0
 333.36623908 134.751628405 329.229843551 121.018160244 335.958334942 87.764467024 c 0
 330.765433022 69.4983287365 329.884677912 37.8549850634 307.172525838 17.4858156399 c 0
 289.152677819 0.0198827358633 275.386755652 -12.2459181072 243.420558362 -7.58801714526 c 0
 214.655626062 -11.457931095 189.199478789 -1.78131559602 175.164663495 26.1502485751 c 0
 148.152285906 45.0395374872 143.428274651 59.1984419443 147.540718605 86.9488289033 c 0
EndSplineSet
Colour: ff0000
EndChar
StartChar: quotedbl
Encoding: 34 34 2
Width: 743
Flags: HW
LayerCount: 2
Back
SplineSet
531.286132812 1398 m 0,0,1
 562.286132812 1398 562.286132812 1398 583.286132812 1372 c 1,2,3
 583.286132812 1328 583.286132812 1328 573.786132812 1194.5 c 128,-1,4
 564.286132812 1061 564.286132812 1061 555.286132812 984 c 1,5,6
 543.286132812 960 543.286132812 960 515.286132812 946 c 1,7,8
 503.286132812 946 503.286132812 946 497.286132812 958 c 1,9,10
 427.286132812 1198 427.286132812 1198 427.286132812 1258 c 0,11,12
 427.286132812 1305 427.286132812 1305 457.286132812 1351.5 c 128,-1,13
 487.286132812 1398 487.286132812 1398 531.286132812 1398 c 0,0,1
291.286132812 1398 m 0,14,15
 322.286132812 1398 322.286132812 1398 343.286132812 1372 c 1,16,17
 343.286132812 1328 343.286132812 1328 333.786132812 1194.5 c 128,-1,18
 324.286132812 1061 324.286132812 1061 315.286132812 984 c 1,19,20
 303.286132812 960 303.286132812 960 275.286132812 946 c 1,21,22
 263.286132812 946 263.286132812 946 257.286132812 958 c 1,23,24
 187.286132812 1198 187.286132812 1198 187.286132812 1258 c 0,25,26
 187.286132812 1305 187.286132812 1305 217.286132812 1351.5 c 128,-1,27
 247.286132812 1398 247.286132812 1398 291.286132812 1398 c 0,14,15
EndSplineSet
Fore
SplineSet
219.888671875 1768.81347656 m 0
 273.91796875 1768.81347656 302.732421875 1744.984375 317.41796875 1725.3125 c 0
 353.991210938 1675.44042969 335.427734375 1606.44824219 331.271484375 1593.14941406 c 0
 290.819335938 1463.47949219 284.723632812 1359.578125 284.169921875 1320.78710938 c 2
 283.614257812 1289.47851562 l 1
 156.162109375 1289.47851562 l 1
 155.607421875 1320.78710938 l 2
 155.053710938 1359.578125 148.958007812 1463.47949219 108.505859375 1592.87304688 c 0
 104.348632812 1606.171875 85.5087890625 1674.88476562 122.359375 1725.03515625 c 0
 137.043945312 1744.984375 166.13671875 1768.81347656 219.888671875 1768.81347656 c 0
621.088867188 1725.03515625 m 4
 657.939453125 1675.16308594 639.099609375 1606.171875 634.942382812 1593.14941406 c 4
 594.490234375 1463.47949219 588.39453125 1359.578125 587.83984375 1320.78710938 c 6
 587.286132812 1289.47851562 l 5
 459.833007812 1289.47851562 l 5
 459.278320312 1320.78710938 l 6
 458.724609375 1359.578125 452.62890625 1463.47949219 412.176757812 1592.87304688 c 4
 408.020507812 1606.171875 389.1796875 1674.88476562 426.030273438 1725.03515625 c 4
 440.715820312 1744.984375 469.807617188 1768.81347656 523.559570312 1768.81347656 c 4
 577.311523438 1768.81347656 606.404296875 1744.984375 621.088867188 1725.03515625 c 4
EndSplineSet
Colour: ff0000
EndChar
StartChar: numbersign
Encoding: 35 35 3
Width: 1435
UnlinkRmOvrlpSave: 1
Flags: HW
LayerCount: 2
Back
SplineSet
807 738 m 1,0,-1
 149 738 l 2,1,2
 138 738 138 738 137.5 761 c 128,-1,3
 137 784 137 784 146 808 c 128,-1,4
 155 832 155 832 167 836 c 1,5,-1
 819 836 l 2,6,7
 832 836 832 836 834 814 c 128,-1,8
 836 792 836 792 827.5 768 c 128,-1,9
 819 744 819 744 807 738 c 1,0,-1
751 356 m 1,10,-1
 93 356 l 1,11,12
 82 359 82 359 81.5 379.5 c 128,-1,13
 81 400 81 400 91 425 c 128,-1,14
 101 450 101 450 113 454 c 1,15,-1
 765 454 l 2,16,17
 778 454 778 454 779.5 432 c 128,-1,18
 781 410 781 410 772 386 c 128,-1,19
 763 362 763 362 751 356 c 1,10,-1
727 1056 m 1,20,-1
 583 154 l 2,21,22
 581 146 581 146 568 137 c 128,-1,23
 555 128 555 128 535 128 c 0,24,25
 526 128 526 128 520.5 130 c 128,-1,26
 515 132 515 132 514 134 c 2,27,-1
 513 136 l 1,28,-1
 657 1036 l 1,29,30
 660 1046 660 1046 661 1048 c 128,-1,31
 662 1050 662 1050 666.5 1055 c 128,-1,32
 671 1060 671 1060 679 1061 c 128,-1,33
 687 1062 687 1062 701 1062 c 0,34,35
 718 1062 718 1062 727 1056 c 1,20,-1
405 1056 m 1,36,-1
 259 154 l 2,37,38
 257 146 257 146 245 137 c 128,-1,39
 233 128 233 128 213 128 c 0,40,41
 204 128 204 128 198.5 130 c 128,-1,42
 193 132 193 132 192 134 c 2,43,-1
 191 136 l 1,44,-1
 335 1036 l 1,45,46
 338 1046 338 1046 339 1048 c 128,-1,47
 340 1050 340 1050 344.5 1055 c 128,-1,48
 349 1060 349 1060 357 1061 c 128,-1,49
 365 1062 365 1062 379 1062 c 0,50,51
 396 1062 396 1062 405 1056 c 1,36,-1
EndSplineSet
Fore
SplineSet
1264.94335938 740.455078125 m 1
 1047.73046875 740.455078125 l 1
 998.333007812 545.528320312 l 1
 1215.46386719 545.528320312 l 1
 1164.48632812 344.448242188 l 1
 947.356445312 344.448242188 l 1
 860.0390625 0 l 1
 659.540039062 0 l 1
 746.857421875 344.448242188 l 1
 526.401367188 344.448242188 l 1
 439.083007812 0 l 1
 238.501953125 0 l 1
 325.819335938 344.448242188 l 1
 120 344.448242188 l 1
 170.9765625 545.528320312 l 1
 376.795898438 545.528320312 l 1
 426.193359375 740.455078125 l 1
 220.373046875 740.455078125 l 1
 271.350585938 941.53515625 l 1
 477.170898438 941.53515625 l 1
 564.48828125 1289.47851562 l 1
 765.0703125 1289.47851562 l 1
 677.752929688 941.53515625 l 1
 898.208007812 941.53515625 l 1
 985.52734375 1289.47851562 l 1
 1186.02441406 1289.47851562 l 1
 1098.70703125 941.53515625 l 1
 1315.91992188 941.53515625 l 1
 1264.94335938 740.455078125 l 1
797.751953125 545.528320312 m 1
 847.1484375 740.455078125 l 1
 626.69140625 740.455078125 l 1
 577.294921875 545.528320312 l 1
 797.751953125 545.528320312 l 1
EndSplineSet
Colour: ffff00
EndChar
StartChar: dollar
Encoding: 36 36 4
Width: 1145
Flags: HW
LayerCount: 2
Back
SplineSet
564 1366 m 1,0,1
 634 1366 634 1366 634 1352 c 1,2,-1
 620 1265 l 1,3,4
 643 1260 643 1260 695 1246 c 128,-1,5
 747 1232 747 1232 784 1224 c 1,6,7
 792 1189 792 1189 797.5 1143.5 c 128,-1,8
 803 1098 803 1098 804.5 1071.5 c 128,-1,9
 806 1045 806 1045 807 1000 c 128,-1,10
 808 955 808 955 808 952 c 1,11,12
 795 944 795 944 772 944 c 0,13,14
 754 944 754 944 744 954 c 1,15,16
 737 1009 737 1009 699.5 1072.5 c 128,-1,17
 662 1136 662 1136 605 1174 c 1,18,-1
 528 711 l 1,19,20
 530 710 530 710 535 707 c 128,-1,21
 540 704 540 704 542 702 c 0,22,23
 557 692 557 692 592 671 c 128,-1,24
 627 650 627 650 648 637 c 128,-1,25
 669 624 669 624 702.5 600.5 c 128,-1,26
 736 577 736 577 757 558 c 128,-1,27
 778 539 778 539 803 511.5 c 128,-1,28
 828 484 828 484 842 458 c 128,-1,29
 856 432 856 432 866 399.5 c 128,-1,30
 876 367 876 367 876 332 c 0,31,32
 876 230 876 230 818 148 c 128,-1,33
 760 66 760 66 669 23 c 128,-1,34
 578 -20 578 -20 474 -20 c 0,35,36
 441 -20 441 -20 408 -17 c 1,37,-1
 394 -104 l 1,38,39
 373 -104 373 -104 348.5 -99.5 c 128,-1,40
 324 -95 324 -95 324 -86 c 1,41,-1
 337 -8 l 1,42,43
 317 -5 317 -5 128 36 c 1,44,45
 112 114 112 114 97 212.5 c 128,-1,46
 82 311 82 311 82 330 c 1,47,48
 88 336 88 336 104.5 341 c 128,-1,49
 121 346 121 346 132 346 c 0,50,51
 149 346 149 346 154 336 c 1,52,53
 160 309 160 309 169.5 281.5 c 128,-1,54
 179 254 179 254 200 210.5 c 128,-1,55
 221 167 221 167 260 130 c 128,-1,56
 299 93 299 93 350 72 c 1,57,-1
 432 568 l 1,58,59
 386 595 386 595 358 612.5 c 128,-1,60
 330 630 330 630 288 660 c 128,-1,61
 246 690 246 690 220 717 c 128,-1,62
 194 744 194 744 168 779 c 128,-1,63
 142 814 142 814 130 854.5 c 128,-1,64
 118 895 118 895 118 940 c 0,65,66
 118 1038 118 1038 172 1117 c 128,-1,67
 226 1196 226 1196 311.5 1237 c 128,-1,68
 397 1278 397 1278 494 1278 c 0,69,70
 515 1278 515 1278 549 1276 c 1,71,-1
 564 1366 l 1,0,1
499 530 m 1,1,-1
 420 52 l 1,73,74
 444 48 444 48 478 48 c 0,75,76
 573 48 573 48 640.5 110 c 128,-1,77
 708 172 708 172 708 280 c 0,78,79
 708 303 708 303 704 324 c 128,-1,80
 700 345 700 345 695.5 361 c 128,-1,81
 691 377 691 377 678 394.5 c 128,-1,82
 665 412 665 412 658.5 422 c 128,-1,83
 652 432 652 432 632 447.5 c 128,-1,84
 612 463 612 463 604 469 c 128,-1,85
 596 475 596 475 570 490.5 c 128,-1,86
 544 506 544 506 536.5 510 c 128,-1,87
 529 514 529 514 499 530 c 1,1,-1
462 751 m 1,88,-1
 537 1205 l 1,89,90
 512 1212 512 1212 482 1212 c 0,91,92
 422 1212 422 1212 379 1192.5 c 128,-1,93
 336 1173 336 1173 313.5 1140 c 128,-1,94
 291 1107 291 1107 281.5 1072.5 c 128,-1,95
 272 1038 272 1038 272 1000 c 0,96,97
 272 956 272 956 286.5 919.5 c 128,-1,98
 301 883 301 883 331 852 c 128,-1,99
 361 821 361 821 389 800 c 128,-1,100
 417 779 417 779 462 751 c 1,88,-1
EndSplineSet
Fore
SplineSet
1025.4453125 445.23828125 m 0
 1025.4453125 260.955078125 860.954101562 113.34765625 640.33203125 87.568359375 c 1
 640.33203125 0 l 1
 495.6328125 0 l 1
 495.6328125 87.9833984375 l 1
 369.231445312 103.451171875 273.34765625 151.267578125 273.34765625 151.267578125 c 1
 273.34765625 83.0771484375 l 1
 146.694335938 83.0771484375 l 1
 146.694335938 426.194335938 l 1
 274.095703125 426.194335938 l 1
 274.095703125 426.194335938 262.786132812 264.19921875 495.6328125 253.5546875 c 1
 495.6328125 504.697265625 l 1
 419.29296875 527.981445312 334.552734375 553.927734375 267.276367188 599.831054688 c 0
 165.489257812 669.270507812 120 749.104492188 120 858.875 c 0
 120 1033.67675781 279.584960938 1181.53515625 495.6328125 1198.5 c 1
 495.6328125 1289.47851562 l 1
 640.33203125 1289.47851562 l 1
 640.33203125 1190.765625 l 1
 743.94921875 1172.22167969 810.809570312 1132.55371094 810.809570312 1132.55371094 c 1
 810.809570312 1200.24511719 l 1
 937.461914062 1200.24511719 l 1
 937.461914062 857.959960938 l 1
 810.060546875 857.959960938 l 1
 810.060546875 857.959960938 833.760742188 997.501953125 640.33203125 1025.44433594 c 1
 640.33203125 798.416992188 l 1
 709.104492188 779.790039062 782.784179688 761.079101562 842.077148438 732.388671875 c 0
 963.075195312 674.010742188 1025.4453125 570.310546875 1025.4453125 445.23828125 c 0
415.301757812 926.983398438 m 0
 418.377929688 888.23046875 447.235351562 860.953125 490.560546875 839.166015625 c 1
 490.560546875 1025.77636719 l 1
 445.571289062 1011.72167969 410.89453125 982.284179688 415.301757812 926.983398438 c 0
646.485351562 273.762695312 m 1
 692.223632812 297.794921875 715.008789062 337.213867188 705.612304688 390.436523438 c 0
 700.373046875 420.290039062 678.584960938 442.411132812 646.485351562 460.7890625 c 1
 646.485351562 273.762695312 l 1
58.9833984375 735.543945312 m 1024
EndSplineSet
Colour: ffff00
EndChar
StartChar: percent
Encoding: 37 37 5
Width: 1255
Flags: HW
LayerCount: 2
Back
SplineSet
352 1242 m 0,0,1
 296 1242 296 1242 257.5 1203 c 128,-1,2
 219 1164 219 1164 203.5 1109.5 c 128,-1,3
 188 1055 188 1055 188 992 c 0,4,5
 188 885 188 885 243.5 792.5 c 128,-1,6
 299 700 299 700 372 700 c 0,7,8
 413 700 413 700 444 722.5 c 128,-1,9
 475 745 475 745 491 783 c 128,-1,10
 507 821 507 821 514.5 863 c 128,-1,11
 522 905 522 905 522 952 c 0,12,13
 522 1021 522 1021 502 1086.5 c 128,-1,14
 482 1152 482 1152 442 1197 c 128,-1,15
 402 1242 402 1242 352 1242 c 0,0,1
360 1290 m 0,16,17
 488 1290 488 1290 571 1195.5 c 128,-1,18
 654 1101 654 1101 654 968 c 0,19,20
 654 887 654 887 619.5 815 c 128,-1,21
 585 743 585 743 516 696.5 c 128,-1,22
 447 650 447 650 360 650 c 0,23,24
 235 650 235 650 147.5 743 c 128,-1,25
 60 836 60 836 60 968 c 0,26,27
 60 1104 60 1104 144.5 1197 c 128,-1,28
 229 1290 229 1290 360 1290 c 0,16,17
930 578 m 0,29,30
 874 578 874 578 835 539 c 128,-1,31
 796 500 796 500 780 445.5 c 128,-1,32
 764 391 764 391 764 328 c 0,33,34
 764 221 764 221 820.5 128.5 c 128,-1,35
 877 36 877 36 950 36 c 0,36,37
 991 36 991 36 1021.5 58.5 c 128,-1,38
 1052 81 1052 81 1068 119 c 128,-1,39
 1084 157 1084 157 1091 199 c 128,-1,40
 1098 241 1098 241 1098 288 c 0,41,42
 1098 357 1098 357 1078.5 422.5 c 128,-1,43
 1059 488 1059 488 1019.5 533 c 128,-1,44
 980 578 980 578 930 578 c 0,29,30
938 626 m 0,45,46
 1066 626 1066 626 1148 532 c 128,-1,47
 1230 438 1230 438 1230 304 c 0,48,49
 1230 177 1230 177 1149 81.5 c 128,-1,50
 1068 -14 1068 -14 936 -14 c 0,51,52
 811 -14 811 -14 723.5 79 c 128,-1,53
 636 172 636 172 636 304 c 0,54,55
 636 440 636 440 721 533 c 128,-1,56
 806 626 806 626 938 626 c 0,45,46
1176 1248 m 1,46,-1
 210 0 l 2,58,59
 204 -8 204 -8 182.5 -16 c 128,-1,60
 161 -24 161 -24 144 -24 c 0,61,62
 119 -24 119 -24 108 -2 c 1,63,-1
 1072 1248 l 1,64,65
 1092 1272 1092 1272 1112 1272 c 0,66,67
 1133 1272 1133 1272 1144 1270.5 c 128,-1,68
 1155 1269 1155 1269 1158.5 1267.5 c 128,-1,69
 1162 1266 1162 1266 1167 1259 c 128,-1,70
 1172 1252 1172 1252 1176 1248 c 1,46,-1
EndSplineSet
Fore
SplineSet
328.232421875 696.881835938 m 4
 266.611328125 696.881835938 212.889648438 735.966796875 174.885742188 792.099609375 c 4
 140.873046875 842.329101562 120 908.357421875 120 980.872070312 c 4
 120 1059.625 141.040039062 1131.30859375 175.467773438 1185.86132812 c 4
 213.970703125 1246.98339844 264.116210938 1289.47851562 331.142578125 1289.47851562 c 4
 396.83984375 1289.47851562 446.485351562 1250.14453125 484.489257812 1194.09375 c 4
 518.501953125 1143.86621094 539.375 1077.83691406 539.375 1005.32128906 c 4
 539.375 926.569335938 518.251953125 854.884765625 483.907226562 800.333007812 c 4
 445.404296875 739.2109375 389.936523438 696.881835938 328.232421875 696.881835938 c 4
292.473632812 1162.57617188 m 6
 292.473632812 823.6171875 l 6
 292.473632812 802.91015625 309.189453125 786.196289062 329.729492188 786.196289062 c 4
 350.270507812 786.196289062 366.984375 802.993164062 366.984375 823.6171875 c 6
 366.984375 1162.57617188 l 6
 366.984375 1183.28320312 350.270507812 1199.99804688 329.729492188 1199.99804688 c 4
 309.189453125 1199.99804688 292.473632812 1183.20019531 292.473632812 1162.57617188 c 6
1080.08007812 497.294921875 m 4
 1114.09277344 447.067382812 1134.96582031 381.0390625 1134.96582031 308.440429688 c 4
 1134.96582031 229.6875 1113.92578125 158.002929688 1079.49804688 103.451171875 c 4
 1040.99511719 42.3291015625 985.610351562 0 923.823242188 0 c 4
 862.202148438 0 808.48046875 39.16796875 770.4765625 95.2177734375 c 4
 736.463867188 145.447265625 715.590820312 211.475585938 715.590820312 283.990234375 c 4
 715.590820312 362.743164062 736.630859375 434.426757812 771.05859375 488.979492188 c 4
 809.561523438 550.1015625 859.70703125 592.596679688 926.733398438 592.596679688 c 4
 992.430664062 592.596679688 1042.07617188 553.345703125 1080.08007812 497.294921875 c 4
962.4921875 126.901367188 m 6
 962.4921875 465.861328125 l 6
 962.4921875 486.567382812 945.776367188 503.283203125 925.236328125 503.283203125 c 4
 904.6953125 503.283203125 887.981445312 486.484375 887.981445312 465.861328125 c 6
 887.981445312 126.901367188 l 6
 887.981445312 106.194335938 904.6953125 89.48046875 925.236328125 89.48046875 c 4
 945.859375 89.48046875 962.4921875 106.278320312 962.4921875 126.901367188 c 6
906.181640625 1289.47851562 m 5
 1135.18164062 1289.47851562 l 5
 352.181640625 0 l 5
 122.994140625 0 l 5
 906.181640625 1289.47851562 l 5
EndSplineSet
Colour: ffff00
EndChar
StartChar: ampersand
Encoding: 38 38 6
Width: 1502
Flags: HW
LayerCount: 2
Back
SplineSet
792 190 m 1,0,1
 734 249 734 249 652 358.5 c 128,-1,2
 570 468 570 468 517 548 c 2,3,-1
 464 628 l 1,4,5
 420 598 420 598 399.5 583 c 128,-1,6
 379 568 379 568 346 538.5 c 128,-1,7
 313 509 313 509 298 484 c 128,-1,8
 283 459 283 459 270.5 422.5 c 128,-1,9
 258 386 258 386 258 344 c 0,10,11
 258 212 258 212 340 146 c 128,-1,12
 422 80 422 80 542 80 c 0,13,14
 604 80 604 80 674.5 110 c 128,-1,15
 745 140 745 140 792 190 c 1,0,1
606 1240 m 0,16,17
 540 1240 540 1240 494 1197 c 128,-1,18
 448 1154 448 1154 448 1086 c 0,19,20
 448 958 448 958 552 770 c 1,21,22
 621 810 621 810 660 843.5 c 128,-1,23
 699 877 699 877 724.5 931.5 c 128,-1,24
 750 986 750 986 750 1060 c 0,25,26
 750 1132 750 1132 710 1186 c 128,-1,27
 670 1240 670 1240 606 1240 c 0,16,17
596 1312 m 0,28,29
 730 1312 730 1312 808 1253.5 c 128,-1,30
 886 1195 886 1195 886 1088 c 0,31,32
 886 1023 886 1023 862.5 967 c 128,-1,33
 839 911 839 911 792.5 863.5 c 128,-1,34
 746 816 746 816 700.5 781.5 c 128,-1,35
 655 747 655 747 588 706 c 1,36,37
 705 509 705 509 884 308 c 1,38,39
 934 384 934 384 966 453.5 c 128,-1,40
 998 523 998 523 998 542 c 0,41,42
 998 560 998 560 980 567.5 c 128,-1,43
 962 575 962 575 935.5 576.5 c 128,-1,44
 909 578 909 578 908 578 c 0,45,46
 903 587 903 587 903.5 602.5 c 128,-1,47
 904 618 904 618 910 624 c 1,48,-1
 1068 624 l 2,49,50
 1099 624 1099 624 1132 625.5 c 128,-1,51
 1165 627 1165 627 1209.5 630 c 128,-1,52
 1254 633 1254 633 1288 634 c 1,53,54
 1292 631 1292 631 1291.5 604.5 c 128,-1,55
 1291 578 1291 578 1286 578 c 0,56,57
 1260 578 1260 578 1212 566 c 128,-1,58
 1164 554 1164 554 1148 544 c 0,59,60
 1145 542 1145 542 1119 498.5 c 128,-1,61
 1093 455 1093 455 1043 381.5 c 128,-1,62
 993 308 993 308 940 246 c 1,63,64
 986 198 986 198 1004 179.5 c 128,-1,65
 1022 161 1022 161 1051.5 134.5 c 128,-1,66
 1081 108 1081 108 1100 99 c 128,-1,67
 1119 90 1119 90 1136 90 c 0,68,69
 1164 90 1164 90 1197 123.5 c 128,-1,70
 1230 157 1230 157 1240 182 c 1,71,72
 1256 182 1256 182 1271 169.5 c 128,-1,73
 1286 157 1286 157 1286 146 c 1,74,75
 1281 134 1281 134 1275 123 c 128,-1,76
 1269 112 1269 112 1250 87.5 c 128,-1,77
 1231 63 1231 63 1209 45.5 c 128,-1,78
 1187 28 1187 28 1149 14 c 128,-1,79
 1111 0 1111 0 1068 0 c 0,80,81
 1035 0 1035 0 999 15 c 128,-1,82
 963 30 963 30 935.5 51 c 128,-1,83
 908 72 908 72 885 93 c 128,-1,84
 862 114 862 114 850 129 c 2,85,-1
 838 144 l 1,86,87
 762 77 762 77 665.5 35.5 c 128,-1,88
 569 -6 569 -6 474 -6 c 0,89,90
 297 -6 297 -6 191.5 80 c 128,-1,91
 86 166 86 166 86 316 c 0,92,93
 86 385 86 385 112.5 443.5 c 128,-1,94
 139 502 139 502 190.5 549 c 128,-1,95
 242 596 242 596 293.5 629.5 c 128,-1,96
 345 663 345 663 418 700 c 1,97,98
 381 764 381 764 361 802.5 c 128,-1,99
 341 841 341 841 321.5 907.5 c 128,-1,100
 302 974 302 974 302 1038 c 0,101,102
 302 1153 302 1153 386.5 1232.5 c 128,-1,103
 471 1312 471 1312 596 1312 c 0,28,29
EndSplineSet
Fore
SplineSet
1382.65234375 626.05078125 m 1
 1382.65234375 372.330078125 l 1
 1214.41992188 263.557617188 l 1
 1272.63183594 159.108398438 l 1
 1346.97558594 159.108398438 l 1
 1346.97558594 0 l 1
 885.33203125 0 l 1
 841.61328125 80.60546875 l 1
 841.61328125 80.60546875 762.197265625 -35.984375 577.33203125 -35.984375 c 0
 352.301757812 -35.984375 159.953125 86.42578125 124.610351562 323.265625 c 0
 91.6787109375 544.3046875 238.705078125 744.38671875 453.091796875 780.39453125 c 1
 316.54296875 1053.4921875 478.538085938 1324.72070312 775.91796875 1324.72070312 c 4
 1078.95214844 1324.72070312 1216.16601562 911.787109375 925.35546875 777.900390625 c 1
 1109.8046875 449.668945312 l 1
 1382.65234375 626.05078125 l 1
431.220703125 331.498046875 m 0
 533.090820312 86.259765625 774.170898438 195.1171875 774.170898438 195.034179688 c 2
 521.865234375 645.34375 l 1
 461.490234375 624.719726562 369.931640625 479.0234375 431.220703125 331.498046875 c 0
875.459960938 866.71484375 m 1
 909.056640625 891.74609375 946.811523438 943.970703125 948.141601562 993.534179688 c 0
 949.805664062 1056.65136719 910.553710938 1117.27539062 847.3515625 1118.93847656 c 0
 807.685546875 1119.93652344 759.369140625 1085.42578125 793.879882812 1011.91210938 c 1
 875.459960938 866.71484375 l 1
EndSplineSet
Colour: ffff00
EndChar
StartChar: quotesingle
Encoding: 39 39 7
Width: 439
Flags: HW
LayerCount: 2
Back
SplineSet
-121.670898438 1398 m 0,0,1
 -90.6708984375 1398 -90.6708984375 1398 -69.6708984375 1372 c 1,2,3
 -69.6708984375 1328 -69.6708984375 1328 -79.1708984375 1194.5 c 128,-1,4
 -88.6708984375 1061 -88.6708984375 1061 -97.6708984375 984 c 1,5,6
 -109.670898438 960 -109.670898438 960 -137.670898438 946 c 1,7,8
 -149.670898438 946 -149.670898438 946 -155.670898438 958 c 1,9,10
 -225.670898438 1198 -225.670898438 1198 -225.670898438 1258 c 0,11,12
 -225.670898438 1305 -225.670898438 1305 -195.670898438 1351.5 c 128,-1,13
 -165.670898438 1398 -165.670898438 1398 -121.670898438 1398 c 0,0,1
EndSplineSet
Fore
SplineSet
317.41796875 1725.03515625 m 4
 354.268554688 1675.16308594 335.428710938 1606.171875 331.271484375 1593.14941406 c 4
 290.819335938 1463.47949219 284.723632812 1359.578125 284.168945312 1320.78710938 c 6
 283.615234375 1289.47851562 l 5
 156.162109375 1289.47851562 l 5
 155.607421875 1320.78710938 l 6
 155.053710938 1359.578125 148.958007812 1463.47949219 108.505859375 1592.87304688 c 4
 104.349609375 1606.171875 85.5087890625 1674.88476562 122.359375 1725.03515625 c 4
 137.044921875 1744.984375 166.13671875 1768.81347656 219.888671875 1768.81347656 c 4
 273.640625 1768.81347656 302.733398438 1744.984375 317.41796875 1725.03515625 c 4
EndSplineSet
Colour: ff0000
EndChar
StartChar: parenleft
Encoding: 40 40 8
Width: 776
Flags: HW
LayerCount: 2
Back
SplineSet
486.671875 570 m 128,-1,1
 486.671875 324 486.671875 324 564.671875 92 c 128,-1,2
 642.671875 -140 642.671875 -140 778.671875 -260 c 0,3,4
 779.671875 -260 779.671875 -260 773.171875 -268 c 128,-1,5
 766.671875 -276 766.671875 -276 756.671875 -286 c 128,-1,6
 746.671875 -296 746.671875 -296 740.671875 -300 c 1,7,8
 556.671875 -155 556.671875 -155 448.671875 67.5 c 128,-1,9
 340.671875 290 340.671875 290 340.671875 570 c 0,10,11
 340.671875 851 340.671875 851 448.171875 1072 c 128,-1,12
 555.671875 1293 555.671875 1293 740.671875 1438 c 1,13,14
 746.671875 1434 746.671875 1434 756.671875 1424 c 128,-1,15
 766.671875 1414 766.671875 1414 773.171875 1406 c 128,-1,16
 779.671875 1398 779.671875 1398 778.671875 1398 c 0,17,18
 642.671875 1277 642.671875 1277 564.671875 1046.5 c 128,-1,0
 486.671875 816 486.671875 816 486.671875 570 c 128,-1,1
EndSplineSet
Fore
SplineSet
140 0 m 1
 140 -327.483398438 375.903320312 -589.104492188 726.671875 -589.104492188 c 1
 726.671875 -445.569335938 l 1
 612.826171875 -445.569335938 524.094726562 -361.578125 524.094726562 -256.463867188 c 2
 524.094726562 1302.359375 l 2
 524.094726562 1407.47363281 612.909179688 1491.46484375 726.671875 1491.46484375 c 1
 726.671875 1635 l 1
 375.903320312 1635 140 1373.37890625 140 1045.89550781 c 1
 140 0 l 1
EndSplineSet
Colour: ff0000
EndChar
StartChar: parenright
Encoding: 41 41 9
Width: 594
Flags: HW
LayerCount: 2
Back
SplineSet
994 570 m 0,0,1
 994 290 994 290 886 67.5 c 128,-1,2
 778 -155 778 -155 594 -300 c 1,3,4
 588 -296 588 -296 578 -286 c 128,-1,5
 568 -276 568 -276 561.5 -268 c 128,-1,6
 555 -260 555 -260 556 -260 c 0,7,8
 692 -140 692 -140 770 92 c 128,-1,9
 848 324 848 324 848 570 c 128,-1,10
 848 816 848 816 770 1046.5 c 128,-1,11
 692 1277 692 1277 556 1398 c 0,12,13
 555 1398 555 1398 561.5 1406 c 128,-1,14
 568 1414 568 1414 578 1424 c 128,-1,15
 588 1434 588 1434 594 1438 c 1,16,17
 779 1293 779 1293 886.5 1072 c 128,-1,18
 994 851 994 851 994 570 c 0,0,1
EndSplineSet
Fore
SplineSet
454 -100 m 5
 454 -427.483398438 400.768554688 -589.104492188 50 -589.104492188 c 5
 50 -445.569335938 l 5
 163.845703125 -445.569335938 252.577148438 -361.578125 252.577148438 -256.463867188 c 6
 252.577148438 1302.359375 l 6
 252.577148438 1407.47363281 163.762695312 1491.46484375 50 1491.46484375 c 5
 50 1635 l 5
 400.768554688 1635 454 1473.37890625 454 1145.89550781 c 5
 454 -100 l 5
EndSplineSet
Colour: ff0000
EndChar
StartChar: asterisk
Encoding: 42 42 10
Width: 989
Flags: HW
LayerCount: 2
Back
SplineSet
503 1226 m 0,0,1
 530 1256 530 1256 560.5 1263.5 c 128,-1,2
 591 1271 591 1271 615 1250 c 1,3,4
 639 1226 639 1226 635.5 1195 c 128,-1,5
 632 1164 632 1164 603 1138 c 0,6,7
 567 1105 567 1105 501.5 1070.5 c 128,-1,8
 436 1036 436 1036 409 1010 c 0,9,10
 408 1008 408 1008 406 1004.5 c 128,-1,11
 404 1001 404 1001 401 993.5 c 128,-1,12
 398 986 398 986 399 982 c 0,13,14
 402 969 402 969 419 962 c 0,15,16
 452 947 452 947 519.5 935 c 128,-1,17
 587 923 587 923 633 902 c 0,18,19
 669 886 669 886 686.5 858.5 c 128,-1,20
 704 831 704 831 691 804 c 0,21,22
 676 774 676 774 645 768 c 128,-1,23
 614 762 614 762 581 780 c 0,24,25
 537 804 537 804 484 855.5 c 128,-1,26
 431 907 431 907 399 924 c 0,27,28
 397 925 397 925 394 926.5 c 128,-1,29
 391 928 391 928 382.5 930.5 c 128,-1,30
 374 933 374 933 371 930 c 1,31,32
 367 928 367 928 364.5 924.5 c 128,-1,33
 362 921 362 921 361.5 918.5 c 128,-1,34
 361 916 361 916 360 911 c 128,-1,35
 359 906 359 906 359 904 c 0,36,37
 355 868 355 868 363.5 800 c 128,-1,38
 372 732 372 732 367 682 c 1,39,40
 362 643 362 643 341.5 618.5 c 128,-1,41
 321 594 321 594 291 598 c 0,42,43
 258 602 258 602 242.5 629 c 128,-1,44
 227 656 227 656 235 694 c 1,45,46
 244 743 244 743 277 810.5 c 128,-1,47
 310 878 310 878 317 914 c 1,48,49
 319 932 319 932 311 940 c 1,50,51
 304 950 304 950 285 946 c 0,52,53
 251 939 251 939 188.5 909 c 128,-1,54
 126 879 126 879 75 868 c 0,55,56
 37 860 37 860 6 872 c 128,-1,57
 -25 884 -25 884 -29 914 c 1,58,59
 -35 946 -35 946 -13 969.5 c 128,-1,60
 9 993 9 993 47 998 c 0,61,62
 97 1004 97 1004 169.5 993.5 c 128,-1,63
 242 983 242 983 279 988 c 1,64,65
 297 994 297 994 301 1004 c 0,66,67
 306 1017 306 1017 297 1032 c 0,68,69
 279 1063 279 1063 231.5 1113.5 c 128,-1,70
 184 1164 184 1164 159 1208 c 0,71,72
 140 1240 140 1240 142.5 1273 c 128,-1,73
 145 1306 145 1306 171 1320 c 0,74,75
 201 1335 201 1335 228.5 1322 c 128,-1,76
 256 1309 256 1309 273 1274 c 0,77,78
 294 1229 294 1229 306.5 1156.5 c 128,-1,79
 319 1084 319 1084 335 1050 c 0,80,81
 345 1030 345 1030 355 1028 c 0,82,83
 367 1026 367 1026 381 1040 c 0,84,85
 406 1067 406 1067 438 1128 c 128,-1,86
 470 1189 470 1189 503 1226 c 0,0,1
EndSplineSet
Fore
SplineSet
769.228515625 837.736328125 m 4
 724.987304688 845.96875 667.190429688 856.780273438 592.264648438 851.208007812 c 5
 645.736328125 803.475585938 695.215820312 778.360351562 736.629882812 757.3203125 c 4
 794.508789062 727.965820312 844.404296875 702.6015625 844.404296875 632.165039062 c 4
 844.404296875 567.716796875 779.790039062 504.432617188 714.009765625 504.432617188 c 4
 634.592773438 504.432617188 610.891601562 569.212890625 585.77734375 637.8203125 c 4
 569.89453125 681.229492188 550.934570312 732.955078125 515.341796875 785.1796875 c 5
 505.11328125 736.946289062 504.032226562 699.109375 504.032226562 666.510742188 c 4
 504.032226562 645.138671875 506.692382812 581.10546875 506.692382812 568.881835938 c 4
 506.692382812 496.78125 458.459960938 446.38671875 389.4375 446.38671875 c 4
 327.983398438 446.38671875 261.704101562 490.211914062 261.704101562 560.98046875 c 4
 261.704101562 609.379882812 289.645507812 641.396484375 322.078125 678.403320312 c 4
 351.100585938 711.666015625 385.861328125 751.416992188 418.043945312 817.4453125 c 5
 348.2734375 794.576171875 301.62109375 764.389648438 262.702148438 739.192382812 c 4
 224.032226562 714.245117188 193.512695312 694.452148438 157.254882812 694.452148438 c 4
 84.8232421875 694.452148438 40 763.474609375 40 827.5078125 c 4
 40 883.806640625 82.9111328125 942.102539062 154.594726562 942.102539062 c 4
 173.970703125 942.102539062 195.259765625 938.02734375 219.874023438 933.37109375 c 4
 263.450195312 925.053710938 321.662109375 914.576171875 397.087890625 919.815429688 c 5
 344.28125 966.384765625 295.217773438 991.831054688 254.219726562 1013.203125 c 4
 195.924804688 1043.55761719 145.612304688 1069.75195312 145.612304688 1138.94140625 c 4
 145.612304688 1203.390625 210.14453125 1266.67480469 276.006835938 1266.67480469 c 4
 352.764648438 1266.67480469 376.048828125 1205.55175781 402.9921875 1134.78320312 c 4
 419.375 1091.70605469 438.916992188 1040.48046875 474.176757812 986.508789062 c 5
 484.489257812 1037.90234375 486.069335938 1075.82324219 486.069335938 1104.59667969 c 4
 486.069335938 1125.96875 483.408203125 1190.00097656 483.408203125 1202.22558594 c 4
 483.408203125 1274.32519531 531.556640625 1324.72070312 600.580078125 1324.72070312 c 4
 673.427734375 1324.72070312 728.314453125 1275.40625 728.314453125 1210.12695312 c 4
 728.314453125 1161.89355469 701.120117188 1131.04199219 669.51953125 1095.20019531 c 4
 640.4140625 1062.18457031 605.486328125 1022.6015625 572.306640625 954.327148438 c 5
 643.407226562 978.193359375 691.05859375 1008.87890625 727.731445312 1032.49707031 c 4
 766.150390625 1057.11230469 796.421875 1076.65429688 832.762695312 1076.65429688 c 4
 905.111328125 1076.65429688 949.934570312 1007.54882812 949.934570312 943.599609375 c 4
 949.934570312 887.215820312 907.0234375 829.004882812 835.33984375 829.004882812 c 4
 816.047851562 829.004882812 794.342773438 832.997070312 769.228515625 837.736328125 c 4
EndSplineSet
Colour: ffff00
EndChar
StartChar: plus
Encoding: 43 43 11
Width: 1228
Flags: HW
LayerCount: 2
Back
SplineSet
464 948 m 1,0,1
 523 970 523 970 550 970 c 0,2,3
 559 970 559 970 565.5 967 c 128,-1,4
 572 964 572 964 574 961 c 2,5,-1
 576 958 l 1,6,-1
 576 548 l 1,7,-1
 984 548 l 2,8,9
 991 548 991 548 996.5 541.5 c 128,-1,10
 1002 535 1002 535 1002 524 c 0,11,12
 1002 500 1002 500 992.5 474.5 c 128,-1,13
 983 449 983 449 970 436 c 1,14,-1
 576 436 l 1,15,-1
 576 32 l 1,16,17
 547 10 547 10 490 10 c 0,18,19
 480 10 480 10 472 16 c 128,-1,20
 464 22 464 22 464 28 c 2,21,-1
 464 436 l 1,22,-1
 54 436 l 2,23,24
 42 436 42 436 42 456 c 0,25,26
 42 469 42 469 50.5 503.5 c 128,-1,27
 59 538 59 538 72 548 c 1,28,-1
 464 548 l 1,29,-1
 464 948 l 1,0,1
EndSplineSet
Fore
SplineSet
1108.04101562 594.596679688 m 5
 1108.04101562 393.720703125 l 5
 714.598632812 393.720703125 l 5
 714.598632812 0 l 5
 513.443359375 0 l 5
 513.443359375 393.720703125 l 5
 120 393.720703125 l 5
 120 594.596679688 l 5
 513.443359375 594.596679688 l 5
 513.443359375 986.5 l 5
 714.598632812 986.5 l 5
 714.598632812 594.596679688 l 5
 1108.04101562 594.596679688 l 5
EndSplineSet
Colour: ffff00
EndChar
StartChar: comma
Encoding: 44 44 14
Width: 402
Flags: HW
LayerCount: 2
Back
SplineSet
212 246 m 0,0,1
 240 246 240 246 264 232 c 1,2,3
 300 170 300 170 300 92 c 0,4,5
 300 8 300 8 221 -113.5 c 128,-1,6
 142 -235 142 -235 64 -278 c 1,7,8
 54 -278 54 -278 44 -262 c 128,-1,9
 34 -246 34 -246 34 -236 c 1,10,11
 57 -219 57 -219 72 -205.5 c 128,-1,12
 87 -192 87 -192 111 -163.5 c 128,-1,13
 135 -135 135 -135 147.5 -97 c 128,-1,14
 160 -59 160 -59 160 -14 c 0,15,16
 160 18 160 18 127 63 c 128,-1,17
 94 108 94 108 94 148 c 0,18,19
 94 183 94 183 127.5 214.5 c 128,-1,20
 161 246 161 246 212 246 c 0,0,1
EndSplineSet
Fore
SplineSet
212.662983996 263.378025409 m 0
 181.371616568 266.314323596 142.984550081 243.560248077 117.926221909 219.933075858 c 0
 95.8698101433 208.397354364 77.4404089515 168.706633747 73.2177791651 153.282326492 c 0
 84.3419052173 118.580187803 94.4628757629 87.0689629311 116.506427831 52.7157918005 c 0
 131.025156404 30.1472447506 149.096383601 10.8713634966 140.803654938 -8.66729958091 c 0
 150.47775454 -38.1817888557 137.247937196 -69.6272552605 137.233210823 -94.7872907975 c 0
 122.695754341 -115.663306172 115.255244948 -134.351567239 101.911013838 -147.118866131 c 0
 89.7533364905 -171.360901192 71.3373779597 -191.740897329 58.0919307599 -198.852707672 c 0
 51.7538883947 -207.452424198 36.2478751717 -208.85815766 19.3515465529 -234.169266357 c 0
 12.9783204683 -243.647069688 27.9155027425 -257.255100933 31.0035478823 -264.768986529 c 0
 39.5497459982 -284.699063306 52.957128009 -286.539707527 63.9136155574 -285.753705405 c 0
 127.136363426 -255.387890964 176.24155124 -200.294591874 231.559109528 -127.18029565 c 0
 281.106427838 -46.2884949669 321.601326599 32.8999243685 310.908827032 92.4421090023 c 0
 320.478829119 145.162269843 304.316350867 194.494553373 268.581395936 236.987016669 c 0
 247.196217817 260.644634681 233.407137254 256.187973915 212.662983996 263.378025409 c 0
210.427768 233.561728731 m 0
 226.282955307 230.547419979 243.210806115 233.671525949 250.778597614 226.268132085 c 0
 272.595309189 184.489253184 291.169405676 136.278213896 291.558625573 86.7796567727 c 0
 286.308351765 32.7246618988 262.398342001 -22.6810078577 203.306168681 -103.092107496 c 0
 152.38004087 -187.666225774 104.852932847 -239.768615204 53.5187455898 -264.788162379 c 0
 58.9806056196 -268.034967855 63.8342677 -259.632747168 61.0635297348 -259.147479586 c 0
 55.8366891684 -247.57777502 51.6636175091 -246.217218355 50.756141013 -237.795877201 c 0
 57.1528830313 -239.217658462 75.0741110971 -223.918126778 82.3425159073 -210.200750851 c 0
 85.8971542242 -209.187158968 104.927297258 -189.702644851 128.53154246 -177.324606885 c 0
 144.722336679 -157.267999863 148.925006363 -126.406243439 168.088745175 -99.5043278096 c 0
 172.875341527 -78.5081323914 172.172126861 -42.5519878079 177.771179008 -19.0316149068 c 0
 178.813553464 16.5469116992 165.500551592 46.8996138832 135.662568602 69.9444657001 c 0
 117.630304925 106.632731597 112.094093599 123.019869226 110.380909711 148.509888832 c 0
 112.764750915 167.537574652 118.998726785 184.449389158 138.586524944 209.78765392 c 0
 158.639017332 222.687159737 184.972688622 233.42114769 210.427768 233.561728731 c 0
EndSplineSet
Colour: ff0000
EndChar
StartChar: hyphen
Encoding: 45 45 13
Width: 1228
Flags: HW
LayerCount: 2
Back
SplineSet
122 522 m 1,0,1
 538 544 538 544 604 546 c 0,2,3
 618 546 618 546 618 528 c 0,4,5
 618 475 618 475 592 420 c 1,6,7
 551 417 551 417 110 398 c 0,8,9
 96 398 96 398 96 420 c 0,10,11
 96 466 96 466 122 522 c 1,0,1
EndSplineSet
Fore
SplineSet
1108.04101562 594.596679688 m 5
 1108.04101562 393.720703125 l 5
 120 393.720703125 l 5
 120 594.596679688 l 5
 1108.04101562 594.596679688 l 5
EndSplineSet
Colour: ffff00
EndChar
StartChar: period
Encoding: 46 46 448
Width: 529
Flags: HW
LayerCount: 2
Back
SplineSet
156.581054688 90 m 128,-1,1
 156.581054688 135 156.581054688 135 190.081054688 166.5 c 128,-1,2
 223.581054688 198 223.581054688 198 268.581054688 198 c 128,-1,3
 313.581054688 198 313.581054688 198 345.081054688 166.5 c 128,-1,4
 376.581054688 135 376.581054688 135 376.581054688 90 c 128,-1,5
 376.581054688 45 376.581054688 45 345.081054688 11.5 c 128,-1,6
 313.581054688 -22 313.581054688 -22 268.581054688 -22 c 128,-1,7
 223.581054688 -22 223.581054688 -22 190.081054688 11.5 c 128,-1,0
 156.581054688 45 156.581054688 45 156.581054688 90 c 128,-1,1
EndSplineSet
Fore
SplineSet
264.581054688 329.162109375 m 4
 355.4609375 329.162109375 429.162109375 255.4609375 429.162109375 164.581054688 c 4
 429.162109375 73.701171875 355.4609375 0 264.581054688 0 c 4
 173.701171875 0 100 73.701171875 100 164.581054688 c 4
 100 255.4609375 173.701171875 329.162109375 264.581054688 329.162109375 c 4
EndSplineSet
Colour: ff0000
EndChar
StartChar: slash
Encoding: 47 47 14
Width: 1292
Flags: HW
LayerCount: 2
Back
SplineSet
735.005859375 1522 m 0,0,1
 755.005859375 1522 755.005859375 1522 761.005859375 1504 c 1,2,-1
 171.005859375 -24 l 2,3,4
 165.005859375 -39 165.005859375 -39 144.005859375 -54.5 c 128,-1,5
 123.005859375 -70 123.005859375 -70 93.005859375 -70 c 0,6,7
 80.005859375 -70 80.005859375 -70 71.005859375 -66.5 c 1,8,9
 61.005859375 -64 61.005859375 -64 59.005859375 -60 c 2,10,-1
 57.005859375 -56 l 1,11,-1
 655.005859375 1492 l 2,12,13
 656.005859375 1496 656.005859375 1496 665.505859375 1502.5 c 128,-1,14
 675.005859375 1509 675.005859375 1509 694.005859375 1515.5 c 128,-1,15
 713.005859375 1522 713.005859375 1522 735.005859375 1522 c 0,0,1
EndSplineSet
Fore
SplineSet
923.1875 1289.47851562 m 5
 1152.1875 1289.47851562 l 5
 369.1875 0 l 5
 140 0 l 5
 923.1875 1289.47851562 l 5
EndSplineSet
Colour: ff0000
EndChar
StartChar: zero
Encoding: 48 48 15
Width: 1180
VWidth: -37
Flags: HW
LayerCount: 2
Back
SplineSet
536 1208 m 0,0,1
 454 1208 454 1208 391.5 1131 c 128,-1,2
 329 1054 329 1054 296.5 926 c 128,-1,3
 264 798 264 798 264 640 c 0,4,5
 264 484 264 484 295.5 353.5 c 128,-1,6
 327 223 327 223 385.5 145.5 c 128,-1,7
 444 68 444 68 516 68 c 0,8,9
 602 68 602 68 664 149 c 128,-1,10
 726 230 726 230 755 359.5 c 128,-1,11
 784 489 784 489 784 650 c 0,12,13
 784 806 784 806 753 933 c 128,-1,14
 722 1060 722 1060 665 1134 c 128,-1,15
 608 1208 608 1208 536 1208 c 0,0,1
524 1282 m 0,16,17
 659 1282 659 1282 760 1193 c 128,-1,18
 861 1104 861 1104 910.5 959.5 c 128,-1,19
 960 815 960 815 960 638 c 0,20,21
 960 462 960 462 909.5 317 c 128,-1,22
 859 172 859 172 758.5 83 c 128,-1,23
 658 -6 658 -6 524 -6 c 0,24,25
 392 -6 392 -6 291.5 83 c 128,-1,26
 191 172 191 172 139.5 317 c 128,-1,27
 88 462 88 462 88 638 c 128,-1,28
 88 814 88 814 138.5 959 c 128,-1,29
 189 1104 189 1104 289.5 1193 c 128,-1,30
 390 1282 390 1282 524 1282 c 0,16,17
EndSplineSet
Fore
SplineSet
937.251953125 1094.99121094 m 4
 1013.49511719 982.294921875 1060.52148438 834.260742188 1060.52148438 671.755859375 c 4
 1060.52148438 495.060546875 1013.21679688 334.50390625 936.138671875 212.069335938 c 4
 849.877929688 74.88671875 725.495117188 -20 587.200195312 -20 c 4
 448.904296875 -20 328.416992188 67.6513671875 243.26953125 193.42578125 c 4
 166.748046875 306.12109375 120 454.15625 120 616.66015625 c 4
 120 793.356445312 167.3046875 953.913085938 244.3828125 1076.34765625 c 4
 330.643554688 1213.53027344 443.060546875 1308.6953125 593.321289062 1308.6953125 c 4
 740.799804688 1308.6953125 852.104492188 1220.76464844 937.251953125 1094.99121094 c 4
673.739257812 264.66015625 m 6
 673.739257812 1024.3125 l 6
 673.739257812 1070.50390625 636.452148438 1108.06933594 590.260742188 1108.06933594 c 4
 544.069335938 1108.06933594 506.782226562 1070.50390625 506.782226562 1024.3125 c 6
 506.782226562 264.66015625 l 6
 506.782226562 218.46875 544.069335938 180.904296875 590.260742188 180.904296875 c 4
 636.452148438 180.904296875 673.739257812 218.46875 673.739257812 264.66015625 c 6
126.798828125 312.194335938 m 1028
EndSplineSet
Colour: ffff00
EndChar
StartChar: one
Encoding: 49 49 18
Width: 845
Flags: HW
LayerCount: 2
Back
SplineSet
494 232 m 2,0,-1
 494 1040 l 2,1,2
 494 1082 494 1082 484 1099 c 128,-1,3
 474 1116 474 1116 452 1116 c 0,4,5
 419 1116 419 1116 312 1076 c 1,6,7
 292 1092 292 1092 292 1110 c 0,8,9
 292 1121 292 1121 296 1122 c 0,10,11
 365 1153 365 1153 453.5 1195 c 128,-1,12
 542 1237 542 1237 592 1260.5 c 128,-1,13
 642 1284 642 1284 644 1284 c 2,14,-1
 648 1284 l 2,15,16
 662 1284 662 1284 668 1252 c 1,17,18
 652 1180 652 1180 652 1058 c 2,19,-1
 652 232 l 2,20,21
 652 116 652 116 662 84 c 0,22,23
 666 70 666 70 713.5 61 c 128,-1,24
 761 52 761 52 790 52 c 1,25,26
 796 44 796 44 796.5 23 c 128,-1,27
 797 2 797 2 790 -6 c 1,28,29
 585 4 585 4 568 4 c 0,30,31
 559 4 559 4 354 -6 c 1,32,33
 347 2 347 2 347.5 23 c 128,-1,34
 348 44 348 44 354 52 c 1,35,36
 383 52 383 52 430.5 61 c 128,-1,37
 478 70 478 70 482 84 c 0,38,39
 494 122 494 122 494 232 c 2,0,-1
EndSplineSet
Fore
SplineSet
510.086914062 1289.49121094 m 5
 705.704101562 1289.49121094 l 5
 705.704101562 0 l 5
 320.591796875 0 l 5
 320.591796875 897.947265625 l 5
 140 897.947265625 l 5
 140 1092.45214844 l 5
 140 1092.45214844 436.069335938 1107.78710938 510.086914062 1289.49121094 c 5
EndSplineSet
Colour: ffff00
EndChar
StartChar: two
Encoding: 50 50 19
Width: 1090
Flags: HW
LayerCount: 2
Back
SplineSet
956 300 m 1,0,1
 912 193 912 193 848 0 c 1
 156 0 l 1,3,4
 150 3 150 3 143 12.5 c 128,-1,5
 136 22 136 22 136 28 c 1,6,7
 453 379 453 379 612 612 c 0,8,9
 669 696 669 696 688.5 763 c 128,-1,10
 708 830 708 830 708 912 c 0,11,12
 708 1016 708 1016 646 1085 c 128,-1,13
 584 1154 584 1154 488 1154 c 0,14,15
 432 1154 432 1154 380.5 1133.5 c 128,-1,16
 329 1113 329 1113 293 1082 c 128,-1,17
 257 1051 257 1051 235.5 1026.5 c 128,-1,18
 214 1002 214 1002 202 982 c 1,19,20
 191 982 191 982 177.5 994.5 c 128,-1,21
 164 1007 164 1007 164 1014 c 1,22,23
 170 1037 170 1037 199 1078 c 128,-1,24
 228 1119 228 1119 273.5 1167 c 128,-1,25
 319 1215 319 1215 389 1249.5 c 128,-1,26
 459 1284 459 1284 532 1284 c 0,27,28
 673 1284 673 1284 775.5 1182 c 128,-1,29
 878 1080 878 1080 878 950 c 0,30,31
 878 788 878 788 764 648 c 0,32,33
 610 460 610 460 328 146 c 1
 724 146 l 2,35,36
 782 146 782 146 820.5 183 c 128,-1,37
 859 220 859 220 892 300 c 0,38,39
 897 312 897 312 916 312 c 0,40,41
 940 312 940 312 956 300 c 1,0,1
EndSplineSet
Fore
SplineSet
973.471060384 300.347713797 m 0
 952.824491265 317.443142987 937.487407495 326.704058272 909.661698539 333.163050429 c 0
 904.09223234 321.179424814 887.745001346 312.14222982 874.153154309 308.16224903 c 0
 861.393095221 254.043218742 839.080349692 218.963575416 815.529817417 190.73214506 c 0
 793.026402501 177.176677423 761.988761136 164.930801742 720.193244657 158.4021128 c 0
 341.157231148 158.103911306 l 0
 530.703694598 341.817524054 677.513954583 509.843224474 782.468719314 633.122910687 c 0
 852.707587322 731.47483898 891.370404334 833.13836966 892.532949091 950.994532168 c 0
 887.987309664 1036.84505932 853.249213454 1125.06218064 787.358986201 1185.9832077 c 0
 717.829208704 1265.97232653 623.233378355 1304.87044919 535.755045477 1295.13261978 c 0
 481.136275317 1299.76496761 425.698898406 1290.13654628 388.224581753 1259.856985 c 0
 341.574996596 1239.00905447 295.839917122 1205.4513343 267.535498422 1173.06761907 c 0
 229.105690178 1142.61405604 202.704695481 1115.25845602 183.253239705 1083.90205167 c 0
 164.115732829 1055.92700568 149.690007219 1041.53350645 153.555869085 1021.35802215 c 0
 150.812653934 1007.74084649 152.294295529 991.249249472 163.554975996 978.541388865 c 0
 175.221285616 975.053145721 187.370385596 966.139464533 209.358217477 966.428782242 c 0
 221.17249282 992.175821541 234.871197915 996.240682405 250.349196152 1021.52602955 c 0
 267.62307194 1036.95317652 272.963510389 1051.39406287 305.928831463 1068.48583196 c 0
 328.974011893 1092.81123522 351.163502087 1109.93192843 382.007837308 1114.40800139 c 0
 423.161165729 1132.04913149 451.314728919 1136.79832017 482.247537295 1138.46560768 c 0
 543.11950294 1140.0891913 599.505097445 1112.89917689 629.679849727 1077.44796407 c 0
 676.300997334 1038.22494034 686.337558509 974.342208579 691.483992909 911.826975712 c 0
 698.909577899 860.510741654 687.736097375 804.15218634 667.479902012 773.321123859 c 0
 663.267235408 716.845449972 637.434903326 671.627175444 597.818582236 616.089281712 c 0
 497.475490684 471.219138589 340.694255498 271.952265306 116.286305983 27.5181968788 c 0
 125.386462443 17.0456603216 132.287380613 11.7006772582 132.859649672 -0.107362435615 c 0
 134.468977594 -0.930114051411 141.624109119 -6.84727615853 153.97397583 -20.3309044446 c 0
 854.975668084 -18.8358329633 l 0
 909.69277965 122.656760775 942.732826634 219.348599121 973.471060384 300.347713797 c 0
946.776518591 299.018336636 m 0
 910.40632269 228.232487808 873.580786616 130.640603483 841.047447766 11.4451887536 c 0
 159.05169867 11.3507441084 l 0
 153.69874514 10.1137333074 164.704006018 11.0834083469 151.397967201 24.5764963153 c 0
 153.418524728 22.8867589586 155.515778908 22.6805262607 152.216120701 18.9957256068 c 0
 358.512459444 259.202040114 524.286085017 440.813105502 630.356990075 604.310675676 c 0
 667.604114399 666.865937149 684.442575954 718.532334571 705.432525328 754.137944947 c 0
 709.182338685 798.826309695 720.099578253 850.102561077 719.216256968 917.283370151 c 0
 723.178140235 986.28760702 697.299945087 1042.62953959 660.966997622 1092.89635928 c 0
 619.020824598 1147.45083972 553.353820903 1170.73471544 482.889426142 1171.44624471 c 0
 449.66862857 1165.93621432 410.075495137 1160.88938517 380.204153393 1142.67595617 c 0
 335.778812616 1138.196995 301.74901719 1117.666773 289.828454158 1100.17232073 c 0
 260.390397295 1073.79713149 240.756278396 1057.70588727 229.858288938 1043.20864106 c 0
 214.3878109 1014.35822111 190.687275019 999.649260932 198.198575268 992.619201533 c 0
 191.967403901 994.303252063 193.678855463 1002.40937641 182.609555989 1002.75395146 c 0
 177.920687202 1008.03652795 176.889911333 1015.30313387 184.786262314 1011.9097703 c 0
 177.679360293 1022.72572381 191.482897346 1049.39529379 208.739050409 1071.79516168 c 0
 225.348052979 1101.53773287 255.725214783 1120.10202856 285.520402188 1163.38368061 c 0
 311.808536228 1193.25095424 356.705661441 1214.46601117 401.972839243 1239.05594729 c 0
 433.950357711 1261.75712299 480.072043759 1264.76366561 525.693788407 1264.5742626 c 0
 621.491038154 1272.23425623 696.962233744 1233.44793913 770.170958386 1164.68488512 c 0
 833.964651459 1105.17848737 864.666543568 1029.27657613 862.757743523 950.091104628 c 0
 868.569653296 844.2969093 823.981908178 745.678487942 758.835577571 664.168637143 c 0
 651.786778581 538.411591762 498.451279532 370.478517437 316.012437339 139.724459053 c 0
 727.732017614 125.983700081 l 0
 762.69893568 125.665030944 797.407560359 152.002171438 833.188693425 169.760601502 c 0
 853.127913804 193.235201428 883.491567742 244.076141214 899.851566965 292.28217466 c 0
 903.662644884 297.925014576 904.17436295 300.063254434 912.232509494 297.922168306 c 0
 932.608359549 296.43879078 945.071194678 295.180810089 946.776518591 299.018336636 c 0
EndSplineSet
Colour: ff0000
EndChar
StartChar: three
Encoding: 51 51 20
Width: 1090
Flags: HW
LayerCount: 2
Back
SplineSet
564 1284 m 0,0,1
 604 1284 604 1284 648.5 1266.5 c 128,-1,2
 693 1249 693 1249 733 1218 c 128,-1,3
 773 1187 773 1187 799.5 1136.5 c 128,-1,4
 826 1086 826 1086 826 1028 c 0,5,6
 826 982 826 982 807.5 937.5 c 128,-1,7
 789 893 789 893 758.5 859 c 128,-1,8
 728 825 728 825 699 800.5 c 128,-1,9
 670 776 670 776 640 758 c 1,10,11
 685 752 685 752 732 728 c 128,-1,12
 779 704 779 704 822 665 c 128,-1,13
 865 626 865 626 892.5 566 c 128,-1,14
 920 506 920 506 920 436 c 0,15,16
 920 337 920 337 876 251.5 c 128,-1,17
 832 166 832 166 760 109.5 c 128,-1,18
 688 53 688 53 597 21.5 c 128,-1,19
 506 -10 506 -10 412 -10 c 0,20,21
 300 -10 300 -10 208 36 c 1,22,23
 196 44 196 44 182 67.5 c 128,-1,24
 168 91 168 91 168 112 c 0,25,26
 168 154 168 154 193 181 c 128,-1,27
 218 208 218 208 252 208 c 0,28,29
 277 208 277 208 296 195 c 128,-1,30
 315 182 315 182 336 154.5 c 128,-1,31
 357 127 357 127 364 120 c 0,32,33
 414 70 414 70 512 70 c 0,34,35
 554 70 554 70 594 87 c 128,-1,36
 634 104 634 104 669.5 138.5 c 128,-1,37
 705 173 705 173 726.5 235.5 c 128,-1,38
 748 298 748 298 748 380 c 0,39,40
 748 499 748 499 671 580.5 c 128,-1,41
 594 662 594 662 492 662 c 0,42,43
 473 662 473 662 450.5 657.5 c 128,-1,44
 428 653 428 653 401.5 645 c 128,-1,45
 375 637 375 637 372 636 c 1,46,47
 360 651 360 651 360 676 c 0,48,49
 360 690 360 690 364 696 c 1,50,51
 428 710 428 710 481 733.5 c 128,-1,52
 534 757 534 757 579.5 792.5 c 128,-1,53
 625 828 625 828 650.5 879 c 128,-1,54
 676 930 676 930 676 992 c 0,55,56
 676 1072 676 1072 620.5 1125 c 128,-1,57
 565 1178 565 1178 480 1178 c 0,58,59
 437 1178 437 1178 394.5 1158.5 c 128,-1,60
 352 1139 352 1139 328 1118 c 128,-1,61
 304 1097 304 1097 281 1072 c 128,-1,62
 258 1047 258 1047 256 1046 c 1,63,64
 247 1046 247 1046 239.5 1061 c 128,-1,65
 232 1076 232 1076 232 1090 c 1,66,67
 287 1171 287 1171 372 1227.5 c 128,-1,68
 457 1284 457 1284 564 1284 c 0,0,1
EndSplineSet
Fore
SplineSet
561.015206951 1302.21826214 m 0
 493.934302137 1294.04330675 418.094414611 1281.48917728 369.390563614 1233.17020579 c 0
 303.413858548 1204.2183728 257.034969271 1147.50230055 212.972256193 1096.64575519 c 0
 222.419410314 1073.49264573 213.860552646 1062.33480712 230.109073039 1050.05890976 c 0
 239.473706438 1041.26378904 247.497876354 1034.63704623 260.173206859 1030.23368537 c 0
 261.408633574 1034.93356717 271.385377303 1044.0142081 292.170681783 1062.8649925 c 0
 301.166500956 1071.9465358 315.725618271 1088.60977227 340.143332833 1100.66134736 c 0
 346.087710011 1120.19300395 379.913485838 1134.95358031 398.356743496 1150.89784558 c 0
 427.607737873 1150.98339219 457.169158148 1158.14937378 486.904191776 1166.9303265 c 0
 536.695692834 1165.58684967 581.738711234 1145.58889103 605.869466723 1113.26612501 c 0
 647.860268156 1084.93242292 658.157228412 1041.94431551 666.929296213 990.871370894 c 0
 654.593105003 954.905001928 658.77281944 923.171036076 636.046042256 892.666072536 c 0
 616.772427471 854.610406546 602.309894634 827.139206542 570.871935457 804.996419474 c 0
 540.820055468 783.182746811 509.517357051 765.189758593 476.538180176 752.106796962 c 0
 440.070299229 731.754933322 402.138373764 722.708290757 350.554016399 709.743517434 c 0
 347.306062029 695.380093988 347.628228061 683.001884495 350.60794854 675.71459706 c 0
 344.436276649 651.678631003 344.629733946 644.787370489 369.299692369 614.962274201 c 0
 373.386375829 618.111874993 386.434494045 627.967664058 412.582937488 631.966999665 c 0
 416.793752438 633.819536407 440.474924366 646.581156493 452.5754918 639.131295739 c 0
 467.16538373 640.686222198 475.759379338 651.965085018 495.902418726 650.684547025 c 0
 555.300400852 654.150668946 617.278926538 625.264885002 661.769739546 571.727725801 c 0
 704.518037894 514.034188652 731.126183578 451.412562232 734.159690584 382.927703894 c 0
 726.728469901 324.090145844 729.790186174 285.732008786 710.025738727 247.147931753 c 0
 694.754208194 196.649327971 684.849239396 169.600877932 658.709175642 146.057710543 c 0
 642.581872719 122.466656653 611.054361011 107.888005996 590.166479282 103.977733859 c 0
 567.32756082 91.8908400391 537.513810444 79.2995487263 516.198226947 85.4373966644 c 0
 451.456237197 83.8367956491 400.036572728 92.4995679149 375.810448436 126.958140906 c 0
 368.767828622 141.260038395 365.423069455 144.379713921 354.270059868 160.878121225 c 0
 327.58876779 183.58602084 323.262453389 202.079075584 300.135470964 206.846908138 c 0
 285.660663226 214.109661115 274.998146754 221.789294725 253.68705219 222.577861097 c 0
 221.255284388 227.768702692 204.779638542 214.838341494 177.668746222 187.667394301 c 0
 158.813001806 174.546101256 148.732568272 136.431803945 156.177299503 111.292762088 c 0
 154.860289928 97.246681128 162.554047295 78.7758475932 164.809570914 60.7043701988 c 0
 173.760753236 36.6561962135 183.508419478 34.6595094889 202.208621284 26.6291761719 c 0
 263.270505185 -9.29947280108 335.741308068 -31.4389710824 410.711293122 -20.8351208331 c 0
 473.700597581 -24.2218169091 538.128787347 -16.7488463891 604.38180789 5.88252351483 c 0
 657.480211966 25.7961918406 714.869409305 55.5675568858 764.667127832 92.9523664371 c 0
 820.272906315 139.980173782 855.433649595 187.120736151 883.40994635 250.328558105 c 0
 920.23803831 299.832735267 931.432341657 369.850988786 930.526935557 437.888081095 c 0
 929.809227247 489.60258222 920.977571867 525.391991991 909.366246615 566.643159527 c 0
 884.281328026 609.530379459 868.724037441 645.086849177 838.33322021 681.446870963 c 0
 798.796333026 697.680862497 768.994146218 718.412271194 740.270955205 741.459034987 c 0
 710.521445229 763.898564584 674.49511945 770.767119723 656.414066858 765.722868501 c 0
 668.749472009 758.023684865 689.85015717 771.09925317 715.40440922 782.209409501 c 0
 726.535648323 803.800879131 755.239255511 827.894848728 776.362622817 850.854346447 c 0
 789.618169083 875.500847843 804.02753889 900.290406823 827.069259922 934.062744989 c 0
 834.530627413 960.628869496 836.500318459 1000.35632739 845.055313956 1032.61200541 c 0
 836.298101371 1073.05327035 825.646593154 1104.57043801 815.87125662 1148.04095437 c 0
 792.71686254 1180.82109723 768.232736488 1215.02947979 739.868666276 1226.66735888 c 0
 718.26370453 1257.82236473 683.517589735 1262.71039102 655.871691833 1281.29558527 c 0
 620.030412681 1295.77636289 587.142707994 1294.82629414 561.015206951 1302.21826214 c 0
568.679616285 1274.10928754 m 0
 595.641187028 1267.52657916 612.789582838 1257.26851191 637.317514817 1248.85532919 c 0
 676.104879314 1246.88769429 693.97328152 1223.05400842 719.42201197 1211.01355548 c 0
 755.865173754 1191.84826986 771.482422032 1158.99568126 791.347189355 1127.13094067 c 0
 805.404092937 1100.06767115 811.013012373 1062.5050346 810.700842052 1022.42299281 c 0
 804.6172826 993.864009477 800.566060075 968.937706912 795.059843388 940.541480194 c 0
 783.596241924 915.441160059 765.547552875 894.643488379 748.434370024 863.924574748 c 0
 723.59845735 840.433224071 705.251190935 823.813207414 687.620579412 811.320504501 c 0
 676.716573602 796.803718824 645.821252429 788.518588283 622.227644532 756.427371027 c 0
 671.426617941 735.252821529 698.705035755 730.071407536 731.634263808 708.578120026 c 0
 760.250729614 700.836677712 781.688951905 681.303458716 814.099025755 654.838079191 c 0
 846.328120199 635.235243299 862.13313327 593.535680838 885.317616185 558.291592362 c 0
 891.883012142 522.603320688 910.615876342 483.574313696 903.507016047 432.656364338 c 0
 904.801508615 373.896206703 896.761628218 312.574264713 857.58679644 258.795907234 c 0
 830.474107766 202.903575073 797.190522207 159.648688675 748.622631369 116.126334728 c 0
 709.623328634 79.3053030526 645.780477586 51.8403631184 596.304846324 37.1936051152 c 0
 532.850660695 17.6086254852 470.125485287 9.53270400479 411.300858372 4.04920489028 c 0
 337.373539174 10.4207378455 273.438463655 18.1532939668 217.14293537 49.9809775552 c 0
 210.416343249 50.2534956956 200.272718422 66.5514165119 198.729925693 75.7235636095 c 0
 181.187805397 83.1699280144 176.826555181 105.970158216 188.227151036 105.150128287 c 0
 187.426926841 136.765666131 182.521326301 151.961121355 201.576806699 167.433829106 c 0
 219.644910366 189.925961061 227.114624396 193.082341274 257.17375841 194.159427329 c 0
 267.957449143 186.514003974 272.556332878 189.219805805 283.472727033 179.960591868 c 0
 303.208812027 173.74215394 307.12243375 165.210203649 330.754178696 146.389399504 c 0
 335.603480543 133.601481123 341.807100294 119.9938407 348.236265795 116.041179264 c 0
 392.091091249 76.6301053643 444.338215726 54.9957662476 518.460321978 60.0095893199 c 0
 535.433809082 58.2322440348 574.314379695 58.6173585012 595.23842353 75.688615501 c 0
 625.63255939 78.3294229834 658.443291275 99.4518962314 679.413147247 131.949703349 c 0
 698.833529495 152.72581147 729.477119169 191.071347014 744.053341002 234.402703738 c 0
 755.665254382 273.032184374 763.675597874 318.220794503 756.085156853 379.115137458 c 0
 758.948274256 464.685664936 738.643651018 534.869266232 676.826838769 591.833372251 c 0
 626.608581175 650.234225002 564.506475956 683.249856394 493.975016365 670.979168113 c 0
 481.106586521 674.91898458 461.389401424 672.575990243 451.853214276 671.760525573 c 0
 431.848860074 673.984430103 408.886451265 665.714758661 390.960091015 656.966708298 c 0
 383.898926811 655.389190008 363.382995454 654.593685619 376.238605774 653.298651272 c 0
 370.51736442 655.63720069 379.025456657 668.327602248 371.195737647 678.448003149 c 0
 378.161134212 682.666089474 371.174917394 683.022093897 370.179427906 676.639428549 c 0
 414.616355907 684.305187126 456.456449033 707.915126861 490.650890604 714.02348654 c 0
 527.212532058 739.632457782 559.434552318 749.833125715 582.611698949 783.971058055 c 0
 625.536667535 803.398233883 644.399584018 833.325025715 658.881185513 877.907640389 c 0
 688.074844249 902.075228931 694.346100548 948.191997701 691.328187436 986.442077436 c 0
 690.84047585 1047.78944123 671.782838008 1099.92163729 625.905125384 1141.40758128 c 0
 597.005670419 1174.73139185 545.338411111 1191.37243443 482.995535418 1188.37336925 c 0
 443.320503908 1198.48397589 423.844613141 1178.73615461 382.60527041 1166.47967491 c 0
 363.74997304 1151.75293449 337.839067612 1138.18557049 319.324489702 1123.46912927 c 0
 298.894712962 1108.52944992 289.658046756 1097.74261452 275.524784964 1078.3578765 c 0
 248.149055632 1069.47207476 253.277552151 1053.12340601 254.445467604 1055.26743755 c 0
 260.828074449 1062.3818556 259.121550037 1066.15233176 251.150219819 1062.58064144 c 0
 242.000197033 1082.47931118 251.16646627 1087.88226334 243.109456795 1082.75021276 c 0
 278.493263528 1137.28816122 319.363903976 1184.21522932 385.909784307 1210.90922647 c 0
 433.282794568 1257.00667372 496.322737677 1273.70523063 568.679616285 1274.10928754 c 0
EndSplineSet
Colour: ff0000
EndChar
StartChar: four
Encoding: 52 52 19
Width: 1253
VWidth: -35
Flags: HW
LayerCount: 2
Back
SplineSet
822 1288 m 0,0,1
 836 1288 836 1288 844 1277 c 128,-1,2
 852 1266 852 1266 852 1252 c 2,3,-1
 852 462 l 1,4,-1
 970 462 l 2,5,6
 979 462 979 462 988.5 436 c 128,-1,7
 998 410 998 410 998 380 c 0,8,9
 998 360 998 360 990 348 c 1,10,-1
 852 348 l 1,11,-1
 852 -2 l 1,12,13
 844 -12 844 -12 766 -12 c 0,14,15
 694 -12 694 -12 694 4 c 2,16,-1
 694 348 l 1,17,-1
 130 348 l 1,18,19
 110 359 110 359 110 386 c 1,20,-1
 762 1238 l 2,21,22
 774 1254 774 1254 792.5 1271 c 128,-1,23
 811 1288 811 1288 822 1288 c 0,0,1
694 1048 m 1,1,-1
 246 462 l 1,2,-1
 694 462 l 1,3,-1
 694 1048 l 1,1,-1
EndSplineSet
Fore
SplineSet
1133.98339844 518.122070312 m 1
 1133.98339844 321.948242188 l 1
 1003.20019531 321.948242188 l 1
 1003.20019531 0 l 1
 618.086914062 0 l 1
 618.086914062 321.669921875 l 1
 120 321.669921875 l 1
 120 519.235351562 l 1
 661 1289.47851562 l 1
 1003.20019531 1289.47851562 l 5
 1003.20019531 518.122070312 l 1
 1133.98339844 518.122070312 l 1
365.426757812 518.122070312 m 1
 618.086914062 518.122070312 l 1
 618.086914062 877.078125 l 1
 365.426757812 518.122070312 l 1
EndSplineSet
Colour: ffff00
EndChar
StartChar: five
Encoding: 53 53 22
Width: 1090
Flags: HW
LayerCount: 2
Back
SplineSet
544 790 m 0,0,1
 629 790 629 790 701.5 758.5 c 128,-1,2
 774 727 774 727 821 676.5 c 128,-1,3
 868 626 868 626 894 563 c 128,-1,4
 920 500 920 500 920 436 c 0,5,6
 920 337 920 337 876 251.5 c 128,-1,7
 832 166 832 166 760 109.5 c 128,-1,8
 688 53 688 53 597 21.5 c 128,-1,9
 506 -10 506 -10 412 -10 c 0,10,11
 300 -10 300 -10 208 36 c 1,12,13
 196 44 196 44 182 67.5 c 128,-1,14
 168 91 168 91 168 112 c 0,15,16
 168 154 168 154 193 181 c 128,-1,17
 218 208 218 208 252 208 c 0,18,19
 277 208 277 208 296 195 c 128,-1,20
 315 182 315 182 336 154.5 c 128,-1,21
 357 127 357 127 364 120 c 0,22,23
 414 70 414 70 512 70 c 0,24,25
 554 70 554 70 594 86.5 c 128,-1,26
 634 103 634 103 669.5 137.5 c 128,-1,27
 705 172 705 172 726.5 234.5 c 128,-1,28
 748 297 748 297 748 380 c 0,29,30
 748 419 748 419 737.5 459 c 128,-1,31
 727 499 727 499 702 538.5 c 128,-1,32
 677 578 677 578 641 609 c 128,-1,33
 605 640 605 640 550 659 c 128,-1,34
 495 678 495 678 428 678 c 0,35,36
 394 678 394 678 338.5 668.5 c 128,-1,37
 283 659 283 659 260 648 c 1,38,39
 254 648 254 648 249 657 c 128,-1,40
 244 666 244 666 244 676 c 1,41,42
 352 1228 352 1228 360 1270 c 1
 656 1270 l 2,44,45
 692 1270 692 1270 738 1274.5 c 0,46,47
 784 1280 784 1280 812 1284 c 2
 840 1288 l 1,49,50
 843 1286 843 1286 848.5 1282.5 c 128,-1,51
 854 1279 854 1279 856.5 1277.5 c 128,-1,52
 859 1276 859 1276 861.5 1273 c 128,-1,53
 864 1270 864 1270 864 1266 c 0,54,55
 864 1251 864 1251 845.5 1201 c 128,-1,56
 827 1151 827 1151 804 1124 c 1,57,58
 692 1112 692 1112 572 1112 c 2
 404 1112 l 1,60,61
 396 1072 396 1072 381.5 997 c 128,-1,62
 367 922 367 922 355 862 c 128,-1,63
 343 802 343 802 332 752 c 1,64,65
 372 768 372 768 436.5 779 c 128,-1,66
 501 790 501 790 544 790 c 0,0,1
EndSplineSet
Fore
SplineSet
539.904011568 811.204056904 m 0
 512.194356689 802.698049119 483.446181532 807.829292451 434.306873574 790.412737455 c 0
 392.582349156 790.666445194 357.257893549 771.875288417 345.493789615 769.559779735 c 0
 360.544868277 784.499404797 356.722978343 812.87577077 366.998108647 852.153895743 c 0
 380.1576125 896.856961867 387.578473324 937.550286903 395.191283425 994.808754423 c 0
 405.631964872 1041.4473348 411.596860913 1078.64103314 410.043548142 1096.49979824 c 0
 576.220786384 1100.00323021 l 0
 650.905058895 1090.97923417 727.699101744 1098.84890351 814.41869527 1116.7136574 c 0
 837.656658375 1129.55393074 846.667864652 1156.18994883 860.427613622 1193.77553487 c 0
 868.613264851 1229.93439504 872.654462658 1256.21171602 873.368759613 1262.87894202 c 0
 881.633000287 1264.41435771 876.702365728 1272.55945346 868.648829378 1286.34718696 c 0
 868.986500733 1291.26738285 867.20440098 1290.85866722 866.051631711 1290.81527758 c 0
 861.238154719 1285.26348986 856.452117682 1289.91668628 860.58494474 1292.22109665 c 0
 848.603760262 1294.87426807 850.115360587 1292.99454861 837.701208969 1298.87841656 c 0
 810.656257091 1296.48973232 l 0
 796.021126947 1294.20446762 760.327249207 1292.51803936 739.011436819 1285.76690616 c 0
 713.138364695 1286.88296398 677.735309696 1278.94187512 652.662927808 1284.96985639 c 0
 354.482286123 1285.39757636 l 0
 343.542686749 1241.87087694 298.914346666 1047.07289188 226.037608152 678.770543685 c 0
 222.326877128 672.372286825 237.183434158 656.928686802 228.930373085 653.841521799 c 0
 235.092564972 635.279259838 251.398174901 636.787882728 267.978927089 631.323818175 c 0
 275.418568484 635.138358009 306.84031195 652.41009965 336.429635054 649.913013948 c 0
 372.088127389 655.157054659 401.303301153 658.533037247 422.398311791 662.480229761 c 0
 467.23876497 669.180876085 505.882382355 656.634776539 538.753745182 643.592691374 c 0
 576.220573922 628.974571525 602.664897527 613.685435098 627.29789918 591.671280663 c 0
 657.664976006 579.224923024 677.287783311 557.990002438 693.675844288 537.4576515 c 0
 700.556366112 502.629973505 716.061492122 475.167963138 721.175940941 461.272805727 c 0
 725.683508855 428.294850504 734.009501421 405.267235382 732.85250601 373.393817878 c 0
 730.70433254 327.311267271 722.554149087 282.13314588 711.896056053 233.800780061 c 0
 698.601929101 196.07237659 674.600423369 170.810989983 664.790695533 153.52946607 c 0
 641.869661429 130.014177095 607.345021096 115.585529512 594.08281901 96.0536164336 c 0
 566.793312756 89.2517604483 537.523004391 88.8324315752 506.224950151 89.5528765006 c 0
 444.203966484 91.4639014243 401.677369601 94.8071642477 376.554766375 137.443434797 c 0
 374.606216685 141.175802405 359.79901191 152.128290479 349.386060928 162.832043703 c 0
 328.798502252 179.452388664 320.33312047 200.364334422 308.009505842 201.805825135 c 0
 294.142830044 212.462093299 272.611693496 228.049015059 245.511263432 220.844200488 c 0
 229.478128255 217.60225335 203.963941551 212.003782204 177.768715889 195.086077853 c 0
 160.794446148 169.909585593 155.294714816 142.260245603 156.628599062 108.236044516 c 0
 152.405209578 95.9848354937 161.055688407 74.8132382753 172.728944286 63.9690498739 c 0
 179.199946729 49.5263973261 186.649844808 25.1158169378 197.85483272 28.9636628727 c 0
 258.050444661 -12.6566610943 340.300499383 -27.8105932865 406.605989269 -21.6478190974 c 0
 474.394947848 -21.7399770236 535.966046898 -14.2769480923 606.813244666 1.68630859853 c 0
 659.011487514 32.4018386722 717.293691666 59.2123605586 771.005359389 94.9932644152 c 0
 824.969010296 142.554021159 861.846659576 179.828300042 882.994112761 250.837901283 c 0
 924.515412421 310.155497436 931.61736153 372.703796862 936.272558178 438.470095171 c 0
 935.864196305 486.244116864 927.113672881 531.829320885 907.288823269 566.111359675 c 0
 887.733450717 608.784242205 863.112475024 649.348382563 828.063030832 690.711214111 c 0
 804.799834043 724.129635518 752.449705877 745.940920075 712.511334711 778.14386689 c 0
 664.414526444 790.664813215 604.352782549 807.022013068 539.904011568 811.204056904 c 0
539.952341284 774.191614557 m 0
 602.828211405 781.116609883 641.873922151 759.290442213 696.581404038 747.860276734 c 0
 749.063463673 726.910164 775.991217014 692.814614776 814.301392635 660.904396497 c 0
 840.631308912 628.366334152 860.003659943 599.228935466 873.251982442 553.678870533 c 0
 896.322854383 519.76877188 901.993626869 473.058748271 899.135371131 436.064984746 c 0
 905.042206971 374.571022118 885.86932831 319.631780679 862.299553645 255.637571812 c 0
 839.691809436 195.916091145 794.617022961 156.17101077 754.175747901 114.871637293 c 0
 710.179549052 86.1421796952 653.215967919 58.9138169612 586.445290753 35.1987636203 c 0
 531.752653352 11.2883382528 470.635428176 2.26669778611 410.104854459 3.7583097552 c 0
 340.709527524 10.6029683653 276.636765752 19.006463416 216.854228308 53.777770622 c 0
 216.087618717 52.4714348784 198.786050089 56.9556446512 197.506564809 75.8532689888 c 0
 192.007102639 92.4844279977 178.446814207 101.933226201 177.561826204 105.1148477 c 0
 179.26867632 137.368762063 196.048927456 150.482453149 203.199489821 166.991898401 c 0
 217.206673599 181.388114345 225.826459996 198.624939342 255.408830329 197.795304884 c 0
 267.018258883 186.457392881 282.143527268 184.957478627 288.965191318 177.822125984 c 0
 295.764010065 172.012606228 316.41252068 160.130653842 328.911577127 148.238514397 c 0
 332.551142209 132.604637665 353.298595812 113.254594479 354.751393348 104.077272013 c 0
 392.080901836 68.2146891616 441.664039116 50.9547384037 508.822540284 54.515183378 c 0
 540.799514011 52.5016716717 572.135782841 57.523529835 597.652722873 76.1679034939 c 0
 631.518983334 80.5873714159 659.776371735 99.9989840515 674.359269727 132.031267263 c 0
 698.855503277 148.748470345 731.376506082 192.055953554 740.859551375 223.389752371 c 0
 752.316225733 276.383571022 765.285445559 316.794647287 765.587094455 376.919869381 c 0
 762.649742329 405.499550968 765.028652293 435.716333245 755.213423372 463.796555575 c 0
 740.841366027 490.569863923 729.908259359 520.24023893 713.13182824 551.511461887 c 0
 697.479680979 574.973576308 678.349810561 602.410596827 652.40920805 617.255145103 c 0
 627.974991333 636.079729958 599.165024676 658.187213794 560.810137998 666.386777352 c 0
 517.160832957 693.147241418 477.981049646 691.141414783 428.997038437 688.036223604 c 0
 409.166303424 697.266228136 374.772843168 682.958748966 330.818027565 688.444291144 c 0
 303.893020532 671.714861664 263.931771502 671.035063615 259.750850294 666.336411243 c 0
 255.737783589 656.846885959 268.305344045 655.54186137 267.888315838 660.555812272 c 0
 257.703758977 663.909798979 259.275896474 665.220927702 262.941848475 669.498105864 c 0
 327.465665079 1038.94539777 363.149104098 1241.16680082 373.934994333 1255.43536743 c 0
 653.387065923 1260.67780111 l 0
 686.345627282 1249.18961111 710.749731609 1256.64885714 744.089611611 1253.60066874 c 0
 768.269105706 1260.07235574 795.666082278 1260.15891752 811.553573773 1275.6436709 c 0
 835.179301422 1267.8240276 l 0
 829.141491004 1268.71753324 839.968968218 1269.99212104 840.64523833 1264.75966961 c 0
 841.875116336 1267.86663731 845.257321892 1260.04631657 853.57507137 1264.53144723 c 0
 851.539837076 1267.32095769 846.449291229 1271.41308461 846.944600824 1263.79668356 c 0
 847.694816136 1270.38437527 847.819734602 1259.48747178 848.840504871 1266.35735306 c 0
 853.212128653 1253.08725092 840.839050541 1241.0070952 826.142818051 1210.89489334 c 0
 817.807438509 1173.88563701 809.554997364 1154.57196149 801.767729415 1138.41565124 c 0
 731.181403491 1132.42505534 656.366247426 1123.0744799 570.980950177 1133.67526245 c 0
 392.557595809 1129.43679928 l 0
 389.974873426 1090.85674881 375.854403752 1047.29097292 365.773835234 999.639508344 c 0
 353.523842521 956.425709293 344.846941246 908.360723037 334.650084143 861.011974398 c 0
 326.316138034 819.332711565 328.248695282 784.614511684 320.967992333 742.001003682 c 0
 360.284415516 750.17800728 393.717759155 750.442758913 432.103094807 764.923953656 c 0
 475.226032298 778.223120332 516.570909123 776.348328552 539.952341284 774.191614557 c 0
EndSplineSet
Colour: ff0000
EndChar
StartChar: six
Encoding: 54 54 23
Width: 1090
Flags: HW
LayerCount: 2
Back
SplineSet
326 612 m 1,0,1
 318 556 318 556 318 476 c 0,2,3
 318 406 318 406 333 334 c 128,-1,4
 348 262 348 262 375.5 198 c 128,-1,5
 403 134 403 134 450 94 c 128,-1,6
 497 54 497 54 554 54 c 0,7,8
 649 54 649 54 711.5 143.5 c 128,-1,9
 774 233 774 233 774 368 c 0,10,11
 774 457 774 457 749.5 528 c 128,-1,12
 725 599 725 599 666.5 645.5 c 128,-1,13
 608 692 608 692 522 692 c 0,14,15
 399 692 399 692 326 612 c 1,0,1
578 790 m 0,16,17
 658 790 658 790 723 763.5 c 128,-1,18
 788 737 788 737 828 696.5 c 128,-1,19
 868 656 868 656 895 603.5 c 128,-1,20
 922 551 922 551 933 501.5 c 128,-1,21
 944 452 944 452 944 406 c 0,22,23
 944 236 944 236 825.5 112 c 128,-1,24
 707 -12 707 -12 538 -12 c 0,25,26
 451 -12 451 -12 375.5 28 c 128,-1,27
 300 68 300 68 251 133 c 128,-1,28
 202 198 202 198 174 278 c 128,-1,29
 146 358 146 358 146 440 c 0,30,31
 146 594 146 594 195 730.5 c 128,-1,32
 244 867 244 867 338 970 c 0,33,34
 440 1082 440 1082 590.5 1170.5 c 128,-1,35
 741 1259 741 1259 874 1294 c 1,36,37
 886 1294 886 1294 892 1272.5 c 128,-1,38
 898 1251 898 1251 898 1236 c 1,39,40
 441 1089 441 1089 342 700 c 1,41,42
 392 742 392 742 458 766 c 128,-1,43
 524 790 524 790 578 790 c 0,16,17
EndSplineSet
Fore
SplineSet
583.379123284 807.628401388 m 0
 538.34125504 810.467039146 493.054857939 794.942091897 451.789218401 779.151188724 c 0
 409.402353258 757.907164171 364.160560532 745.71484161 347.629209551 706.950198432 c 0
 415.388690077 956.16710837 594.514831763 1128.25918805 917.085563956 1226.38211754 c 0
 919.20232676 1248.02141014 910.105912152 1255.67659605 912.429664742 1274.77673622 c 0
 904.672083545 1290.28180398 887.713651952 1303.45455243 871.358481694 1307.71020318 c 0
 783.029749028 1278.30054551 677.890106435 1249.08021122 576.803630242 1189.01455264 c 0
 476.101750361 1127.14570746 398.970806575 1057.68118909 323.491773977 986.369993508 c 0
 268.17622869 909.768754115 211.565786976 826.384503661 175.684546693 742.064303128 c 0
 141.3994882 644.056729527 132.164880647 549.89572534 124.647608747 436.972919209 c 0
 132.53328428 390.251514522 140.224028078 332.396632485 158.490575417 266.137887221 c 0
 179.30654364 212.334351677 209.263172818 173.203080049 235.931522412 129.390455308 c 0
 267.651796404 83.1153528652 318.10772927 43.7125307829 366.603610479 10.9681734687 c 0
 419.822375436 -15.3718390321 475.930033917 -25.107257667 531.275540376 -20.8412673069 c 0
 653.713790105 -25.6139207255 750.68858053 21.0519284955 839.321896972 108.346000143 c 0
 910.542488952 191.070623785 954.790145888 288.209514676 964.026836527 403.873647357 c 0
 964.635877904 440.69949857 950.325382457 473.035376743 951.479541095 503.362949434 c 0
 940.37953589 536.615301076 924.177937041 573.857598281 913.590928777 615.813620822 c 0
 885.209934981 646.522397984 866.084197929 684.961227267 832.899335972 705.638535721 c 0
 817.444818554 730.835951893 768.338929358 762.013434171 731.283223281 771.753490968 c 0
 680.481626958 790.206099911 632.384957987 800.438767038 583.379123284 807.628401388 c 0
337.277972764 610.450599461 m 0
 387.036200555 658.306970504 445.074630899 682.114789057 523.636917182 674.01644422 c 0
 580.612047937 679.594887744 623.959302694 662.807035372 661.761915521 637.810961685 c 0
 701.139954703 609.949467609 725.099259861 574.080872413 739.967100213 520.749717076 c 0
 756.024689706 482.737162339 761.104319377 423.258922979 763.270001539 361.030541754 c 0
 755.295232478 276.723105199 740.962446082 214.35184262 693.068359035 146.84273208 c 0
 665.432060735 98.1823103655 610.250699009 62.0252765679 549.970240902 75.9332973936 c 0
 521.704982505 68.9375065595 491.414785495 74.034213403 452.824740099 100.571988906 c 0
 430.580984348 133.462747313 412.034580861 162.0205592 388.759872055 201.407312313 c 0
 374.735204881 244.97309238 350.627175399 287.172315408 348.099146647 331.432069823 c 0
 336.327143069 382.896742814 330.327102525 426.436084613 332.730293354 474.089968308 c 0
 333.46712313 532.980419456 339.878725481 579.632045892 337.277972764 610.450599461 c 0
573.319542643 776.783912141 m 0
 626.000209834 772.232972863 676.295042424 764.331347685 720.093942738 753.559611144 c 0
 765.107050527 731.827071478 790.69662816 714.214739285 819.372963728 691.175064162 c 0
 842.452324484 655.707418103 866.464100616 633.775309768 886.094636429 603.297717529 c 0
 903.512404912 569.044449671 911.840996045 534.767017094 913.891633744 503.854485917 c 0
 926.445256086 472.949641654 932.770053321 430.560849198 935.033521975 410.910273921 c 0
 922.284061001 288.84363502 889.125174407 200.468608423 815.444465644 121.499327482 c 0
 744.589472092 35.2013822652 650.251609544 2.43309133288 536.111944392 -1.64505771322 c 0
 475.18080625 -3.89004382975 427.636064669 21.9745501467 387.010555475 42.5173863552 c 0
 330.083964463 60.4321508685 291.738288036 104.292382135 259.10196893 142.720482245 c 0
 226.248933805 188.029465758 201.120438181 227.74309995 181.908735282 281.276037185 c 0
 172.243176475 341.846381488 154.981725284 385.203258266 154.693272547 441.508076052 c 0
 157.858057814 536.135594375 175.867276184 635.690403778 204.746041529 731.836108496 c 0
 247.732926404 813.296427611 285.367496437 898.974704015 351.851982642 960.29109532 c 0
 415.438425079 1032.09189338 498.32453326 1097.57273495 592.356715259 1158.09709081 c 0
 699.691910992 1217.63870001 794.602466182 1257.2213628 880.520632353 1279.90774754 c 0
 881.295320771 1278.37584472 868.811436353 1286.46618384 879.454990223 1274.13434885 c 0
 877.230563002 1251.88510334 878.176966931 1248.49541406 879.841668428 1242.38986221 c 0
 588.68409477 1150.35015525 393.151506058 967.340306664 333.357585084 689.38740952 c 0
 388.949097382 713.043228399 426.511046609 731.606027442 463.997059341 754.149131837 c 0
 512.14915475 760.625720824 537.228440913 770.69582943 573.319542643 776.783912141 c 0
319.057603917 615.294260453 m 0
 300.622957696 575.245303828 303.708976806 530.041022413 298.458495157 480.413168235 c 0
 303.632419428 432.253080638 312.918787635 385.8991363 323.15871316 326.295158383 c 0
 322.347907197 286.915875609 346.084295284 230.329809154 364.452597354 190.649406597 c 0
 379.425014776 142.876140925 402.956368547 107.861986763 435.213797169 78.862729194 c 0
 473.326057787 61.0541951447 516.276704585 33.6398030012 553.413519584 33.8787746137 c 0
 618.952282914 33.9402225186 686.714219506 66.5619737556 724.557702691 132.402006384 c 0
 764.123380255 191.284157521 785.170648372 281.478703696 784.023186404 373.416137307 c 0
 784.629707235 423.193263379 786.619903012 480.47180469 766.8665542 530.649834148 c 0
 740.433273178 584.299408838 712.127495958 628.954804784 673.101956101 661.012365044 c 0
 629.149221572 693.967280614 583.03100357 704.148332492 521.389528732 705.326503823 c 0
 431.236845295 706.046209607 359.835885441 673.193660655 319.057603917 615.294260453 c 0
EndSplineSet
Colour: ff0000
EndChar
StartChar: seven
Encoding: 55 55 24
Width: 1090
Flags: HW
LayerCount: 2
Back
SplineSet
816 1266 m 2,0,1
 847 1266 847 1266 899 1269 c 128,-1,2
 951 1272 951 1272 952 1272 c 0,3,4
 964 1272 964 1272 964 1254 c 0,5,6
 964 1245 964 1245 958.5 1229 c 128,-1,7
 953 1213 953 1213 946.5 1199 c 128,-1,8
 940 1185 940 1185 927.5 1159.5 c 128,-1,9
 915 1134 915 1134 908 1120 c 2
 380 -4 l 1,11,12
 374 -10 374 -10 360 -10 c 0,13,14
 335 -10 335 -10 303.5 1.5 c 128,-1,15
 272 13 272 13 272 26 c 1,16,17
 364 165 364 165 506 438.5 c 128,-1,18
 648 712 648 712 744 916 c 2
 840 1120 l 1
 332 1120 l 2,21,22
 274 1120 274 1120 242.5 1084.5 c 128,-1,23
 211 1049 211 1049 188 966 c 1,24,25
 186 954 186 954 164 954 c 0,26,27
 140 954 140 954 124 966 c 1,28,29
 184 1157 184 1157 208 1266 c 1
 816 1266 l 2,0,1
EndSplineSet
Fore
SplineSet
818.141996622 1275.76560695 m 0
 201.411817737 1273.62169034 l 0
 174.102173127 1203.76456761 143.828327527 1101.94307338 116.143105431 959.959467046 c 0
 121.795718987 941.897285029 140.758678989 944.605353012 164.936333637 944.399744962 c 0
 182.611521365 934.190008598 203.860139945 955.108710629 204.523783122 958.314672439 c 0
 217.379926842 1009.65370673 237.662294539 1046.10424821 254.074595737 1070.16537548 c 0
 265.551483688 1101.43172261 302.797537159 1101.09320494 334.176771263 1101.77541101 c 0
 829.650785943 1109.51867947 l 0
 730.613278182 928.997065506 l 0
 664.031979971 782.839145479 593.255682453 627.99097652 493.812117845 442.715716849 c 0
 398.348262679 260.376985764 319.123872848 132.926166606 260.882726426 31.186091522 c 0
 263.697808273 11.221164566 279.947963298 2.97910872033 295.211848456 -10.2257766014 c 0
 316.363730925 -27.5573086063 340.174166791 -30.0817451516 363.321186962 -21.5994563545 c 0
 368.674596148 -27.4117342723 381.153877185 -26.1271429655 387.106227194 -11.3476676785 c 0
 916.230288025 1119.49480813 l 0
 932.862125513 1125.23609557 929.847005251 1132.95105103 942.41588403 1151.43597077 c 0
 952.825426937 1169.24766983 952.633938615 1177.89151587 955.554552679 1193.74177926 c 0
 969.251063204 1202.26683436 969.395720768 1207.44863374 968.274087919 1226.11061383 c 0
 977.175245514 1241.13426105 979.465240974 1241.98275866 985.568422695 1253.89416436 c 0
 977.083902055 1267.92558969 971.752419748 1291.50155671 953.95292448 1287.01444219 c 0
 950.753183672 1289.40783964 928.20947415 1290.35428128 903.69435284 1288.77368372 c 0
 857.991645391 1277.44180466 840.227049624 1287.43181328 818.141996622 1275.76560695 c 0
811.410364872 1244.75235244 m 0
 831.843618186 1248.05388981 860.592262068 1254.38011525 902.957256796 1251.71127039 c 0
 933.688789384 1259.75313817 955.033749683 1255.57783522 949.119578262 1250.34795055 c 0
 958.072202054 1255.67314658 943.902119756 1254.87844306 944.400431445 1253.82522274 c 0
 943.184978029 1245.06088452 953.777382591 1247.0694771 949.974124662 1230.8677014 c 0
 941.322798872 1220.54809345 943.868421077 1216.12161831 938.960422846 1205.61940455 c 0
 926.271933657 1190.42995391 927.958152708 1189.84908703 907.820050321 1159.55588489 c 0
 907.827825119 1149.04116595 898.633102445 1139.76584465 897.761568586 1122.85525346 c 0
 369.909108416 -0.523782679577 l 0
 373.571189243 1.29543037299 363.592402515 6.68829366368 363.956787194 -1.64777901338 c 0
 347.464858053 0.914557518085 334.74705191 12.8827333292 306.11569938 11.3396195636 c 0
 291.240121051 28.7791189333 289.989233323 18.6898652492 287.04907518 27.6752165587 c 0
 341.099343713 104.063303581 425.383217278 245.933134784 512.497468724 434.145449625 c 0
 618.183375743 613.148288695 693.460048983 768.696053834 759.261143167 906.258885095 c 0
 856.491674713 1131.3627365 l 0
 334.251399893 1134.53277865 l 0
 289.893248995 1132.86698182 260.895867459 1115.45314014 233.62311337 1096.51033373 c 0
 208.828246481 1067.70723102 189.857451657 1024.13760539 174.874489526 969.527869827 c 0
 179.370348191 965.001100564 171.222124966 965.261097117 163.767728813 963.88701834 c 0
 144.668411373 962.515109539 141.167803107 973.953195172 143.736962474 976.799035462 c 0
 171.638742491 1089.94434417 204.721256048 1192.42755539 210.954948422 1257.56297134 c 0
 811.410364872 1244.75235244 l 0
EndSplineSet
Colour: ff0000
EndChar
StartChar: eight
Encoding: 56 56 25
Width: 1090
Flags: HW
LayerCount: 2
Back
SplineSet
544 54 m 0,0,1
 643 54 643 54 701.5 114 c 128,-1,2
 760 174 760 174 760 276 c 0,3,4
 760 323 760 323 735 371.5 c 128,-1,5
 710 420 710 420 679 453.5 c 128,-1,6
 648 487 648 487 605 520.5 c 128,-1,7
 562 554 562 554 542 567 c 128,-1,8
 522 580 522 580 504 590 c 0,9,10
 496 594 496 594 492 594 c 0,11,12
 486 594 486 594 484 592 c 0,13,14
 401 539 401 539 363.5 474 c 128,-1,15
 326 409 326 409 326 314 c 0,16,17
 326 197 326 197 392.5 125.5 c 128,-1,18
 459 54 459 54 544 54 c 0,0,1
544 1216 m 0,19,20
 472 1216 472 1216 422 1151 c 128,-1,21
 372 1086 372 1086 372 996 c 0,22,23
 372 944 372 944 390.5 900.5 c 128,-1,24
 409 857 409 857 444.5 824 c 128,-1,25
 480 791 480 791 506 773.5 c 128,-1,26
 532 756 532 756 571 733 c 0,27,28
 577 730 577 730 580 728 c 0,29,30
 588 724 588 724 592 724 c 0,31,32
 598 724 598 724 604 728 c 0,33,34
 740 818 740 818 740 972 c 0,35,36
 740 1065 740 1065 685 1140.5 c 128,-1,37
 630 1216 630 1216 544 1216 c 0,19,20
556 1286 m 0,38,39
 695 1286 695 1286 789.5 1206.5 c 128,-1,40
 884 1127 884 1127 884 992 c 0,41,42
 884 937 884 937 863.5 888.5 c 128,-1,43
 843 840 843 840 804.5 801.5 c 128,-1,44
 766 763 766 763 735.5 739.5 c 128,-1,45
 705 716 705 716 660 688 c 1,46,47
 647 685 647 685 660 676 c 1,48,49
 765 617 765 617 843.5 525 c 128,-1,50
 922 433 922 433 922 334 c 0,51,52
 922 187 922 187 807.5 84.5 c 128,-1,53
 693 -18 693 -18 540 -18 c 0,54,55
 375 -18 375 -18 271.5 72.5 c 128,-1,56
 168 163 168 163 168 308 c 0,57,58
 168 334 168 334 174 359 c 128,-1,59
 180 384 180 384 187 404.5 c 128,-1,60
 194 425 194 425 210 447.5 c 128,-1,61
 226 470 226 470 236.5 485 c 128,-1,62
 247 500 247 500 269.5 520 c 128,-1,63
 292 540 292 540 302.5 549.5 c 128,-1,64
 313 559 313 559 338 576.5 c 128,-1,65
 363 594 363 594 370 599 c 128,-1,66
 377 604 377 604 402 620 c 128,-1,67
 427 636 427 636 428 636 c 0,68,69
 438 643 438 643 428 648 c 0,70,71
 350 695 350 695 287 777.5 c 128,-1,72
 224 860 224 860 224 960 c 0,73,74
 224 1088 224 1088 324 1187 c 128,-1,75
 424 1286 424 1286 556 1286 c 0,38,39
EndSplineSet
Fore
SplineSet
555.802632605 1297.90562065 m 0
 470.297489779 1296.52055913 376.838036467 1266.33677408 311.043533846 1197.22751336 c 0
 240.03359669 1128.37282903 202.52936755 1049.65238012 209.634618083 953.340494753 c 0
 204.619152982 894.929343399 228.349581694 826.205269107 279.210250486 765.08271965 c 0
 320.692458197 717.122875251 370.262896491 662.154314729 423.191582525 634.917899213 c 0
 419.721579274 643.216397114 418.239976786 641.53985471 424.862347671 656.096682796 c 0
 424.224435817 644.590497666 413.578950015 643.128432792 393.253443572 630.805294059 c 0
 379.37541343 622.430304689 372.28007686 611.245881876 364.489478355 617.618237885 c 0
 361.781950463 609.245476589 348.29242743 601.510688575 327.706513229 584.582235135 c 0
 315.160555996 572.501243152 295.295107062 563.082658954 286.273519797 563.368701494 c 0
 288.195874973 557.038773319 273.60162919 543.250283208 259.159446418 525.796775245 c 0
 241.897074401 515.603802731 237.030945696 504.812533714 226.310021683 496.83945982 c 0
 212.181112509 481.560223914 206.907738628 475.512363443 196.257392297 459.05225812 c 0
 181.140395617 434.743452624 171.872320473 430.339366684 175.85438353 406.943100576 c 0
 167.200669612 395.104030749 163.047230898 385.70944256 153.372061013 362.306826699 c 0
 149.320094169 348.057185255 150.625910083 328.280613693 153.48871022 303.001333683 c 0
 158.126182472 205.442986243 195.317760354 128.943631437 261.241267656 61.5239037405 c 0
 328.142496678 1.58590282947 432.462155477 -39.3664733653 533.394931902 -39.6530430188 c 0
 648.219348735 -35.4040758833 744.628380836 10.3335422406 810.831037793 67.1705292656 c 0
 894.671290705 146.230440721 943.213067462 229.677379947 940.522189577 332.096884911 c 0
 935.313114279 400.201057719 905.364619724 472.805810805 858.861965152 528.789368815 c 0
 795.173499444 601.009521871 738.494771629 643.125982452 665.654340183 684.190912179 c 0
 666.380718187 695.54349834 666.858136408 677.668298213 667.670063373 675.774321605 c 0
 695.146983172 697.639602204 725.319169035 705.172177987 750.867185963 731.845231197 c 0
 762.308439375 737.966100615 784.175602865 759.157881642 821.208564643 797.527771328 c 0
 841.844202182 817.966823799 869.121969924 855.846726307 877.407572043 886.011033864 c 0
 893.637462318 915.096111047 899.302046199 946.934058095 894.686113686 997.075271359 c 0
 893.109587405 1079.53008416 866.934950363 1162.63815936 803.746130685 1223.31247853 c 0
 727.344715199 1268.59711786 646.241884364 1302.89445036 555.802632605 1297.90562065 c 0
538.74299998 1199.39448839 m 0
 597.82434598 1207.10650785 639.58075004 1181.72764252 674.37492282 1125.04683338 c 0
 713.003785437 1078.58487505 724.195193045 1033.01385989 727.364796277 969.301565454 c 0
 728.864839043 874.25176851 686.607774924 791.455214849 594.686557832 742.16231411 c 0
 591.383721377 740.941458058 595.844628818 737.794808798 588.647971406 735.98130691 c 0
 585.383628784 741.51067921 597.741711067 738.7215535 589.295169969 736.820682728 c 0
 585.320050998 735.746501079 584.666920616 747.317652951 571.62710811 743.894547032 c 0
 553.95389745 767.024640926 536.644095478 771.171014739 517.650258857 787.744732235 c 0
 494.173961172 801.939804556 478.645353935 812.65960518 459.112495875 834.80041579 c 0
 426.543865005 861.524492018 421.372723164 883.762931158 400.617396119 903.968256215 c 0
 387.470335676 932.250785432 390.46166207 959.848976417 381.327536282 1000.98839023 c 0
 383.227739715 1050.9350613 407.10543909 1102.81929362 433.007728159 1148.48833237 c 0
 468.058686699 1189.53771653 500.713689553 1205.27850526 538.74299998 1199.39448839 c 0
540.27377306 70.7597176262 m 0
 491.591255914 72.1672049988 451.439876596 86.1069366113 403.735868399 134.908022573 c 0
 362.257700143 176.221913612 339.395114933 239.457942093 335.250296785 316.50510649 c 0
 338.305190741 375.765414303 348.808226418 431.146587619 372.416210523 473.467280382 c 0
 393.778529055 512.465316583 433.346416592 540.267607421 488.556797308 586.255353555 c 0
 490.624635535 586.805922955 491.731679783 576.434466536 491.529445191 582.510285284 c 0
 492.741269519 573.240570127 490.666316206 585.391414165 499.791683526 571.583560895 c 0
 502.875782593 564.040271451 519.018035005 566.050561695 530.49314236 556.365944755 c 0
 549.46104553 542.574198384 561.516629982 524.496688619 594.681431301 515.648329906 c 0
 620.372764022 485.602184934 652.453820586 470.413642582 664.42441673 449.918912914 c 0
 687.899609626 423.58703724 706.182998044 398.201532768 714.840924157 363.858181271 c 0
 733.643530684 331.888660914 742.41146482 309.476706582 747.022409085 272.137354154 c 0
 745.590785464 213.342218386 732.359636325 166.069240985 695.560066938 120.075511822 c 0
 659.650693812 83.8380361494 612.225547296 72.5004832361 540.27377306 70.7597176262 c 0
556.331254616 1268.09706399 m 0
 653.208298706 1276.7783983 722.337965679 1249.61058885 786.759499162 1200.07692899 c 0
 836.991277391 1137.69826813 868.14897224 1082.07073262 869.739017199 991.442924137 c 0
 864.938345606 955.061251514 857.52306357 926.305700528 849.717521237 889.50493662 c 0
 830.754659286 868.390001531 812.327861725 837.977103174 794.433685149 812.611099844 c 0
 765.935197094 791.546195685 753.09708612 773.389901439 722.719077677 745.135818117 c 0
 706.407024246 738.764694607 682.686516701 722.800412392 649.240182174 701.495042601 c 0
 634.828888599 691.701504963 635.46460772 674.955855155 645.99711808 657.585950233 c 0
 726.253081825 625.434898992 778.565163743 581.219968505 835.47614164 521.868857121 c 0
 889.703939805 450.535054818 912.571678126 398.913125344 906.018784762 328.323833 c 0
 905.495485435 245.135387582 875.054550695 161.147033446 802.446136529 92.6176510388 c 0
 725.76166012 21.969923034 632.455724374 -5.03326991414 540.880703303 -9.54671184832 c 0
 431.457612523 -6.35329604105 341.915375624 20.5087541834 287.632610217 84.3871799623 c 0
 208.309842584 140.290129551 183.614905327 208.891102091 182.936820128 305.555915872 c 0
 188.645625254 322.945998733 184.654159949 334.702809375 190.158256706 356.772110854 c 0
 191.353661075 375.789616186 195.209389764 390.083467806 206.005501778 394.482129911 c 0
 202.240408973 411.745819175 205.17565051 428.422240538 228.268446965 435.635251273 c 0
 235.360318842 459.124863751 244.160026659 461.992978407 245.030126009 477.353246745 c 0
 256.029003975 487.26156002 267.375776505 496.234890818 274.239145087 514.103298298 c 0
 293.945969919 519.776232871 299.106346126 528.966929483 307.619589409 535.472191528 c 0
 325.138708329 544.487248774 332.202139434 545.786922673 345.24709 571.140828532 c 0
 367.096507856 577.030918502 373.757187687 587.392773967 377.031702639 585.748152111 c 0
 388.931913281 593.34831515 391.608398956 600.4713345 405.632723444 613.501081114 c 0
 421.137240886 612.796730569 425.812769098 625.049079431 431.945434804 626.2814317 c 0
 441.911736516 635.23484714 447.939642115 654.287057962 430.461835558 660.425588646 c 0
 388.424259361 694.059069305 339.09177983 729.236559974 305.795844455 784.275676574 c 0
 257.267456867 838.881806584 239.127320064 902.739061757 236.962057662 960.571067628 c 0
 243.106607099 1036.25862344 265.986574486 1117.70289624 332.542705346 1181.38271259 c 0
 398.455658086 1237.70086476 467.536485126 1268.35434759 556.331254616 1268.09706399 c 0
537.277568682 1227.8104181 m 0
 497.066842884 1235.35750246 443.261429233 1204.98624584 412.462816061 1159.51343982 c 0
 379.214471502 1120.54718282 360.407031008 1061.47660833 359.501336232 989.032922309 c 0
 361.387393449 958.487110235 368.396010218 925.771602864 372.361335847 890.035668202 c 0
 393.330529511 870.613697742 406.890935708 831.071540758 428.780614031 812.175047349 c 0
 453.829420821 793.811519787 482.890634167 778.796773955 496.803392485 756.356641361 c 0
 516.478118754 755.996532459 542.123978294 738.718777166 560.697643372 720.553315805 c 0
 568.284268914 717.188132033 564.695003552 720.500477039 568.856965984 719.332284257 c 0
 579.686882506 718.299703298 581.125686839 711.321737155 597.670076191 710.625868119 c 0
 597.377915606 714.57648541 609.953966606 713.479753198 613.192908214 717.345951935 c 0
 699.089192959 771.652254228 757.165592342 869.261351297 750.834479402 977.324260464 c 0
 755.117593312 1042.43524451 731.165561549 1091.97738625 692.950228998 1149.86883193 c 0
 662.527367045 1201.83705526 602.102868526 1237.03230308 537.277568682 1227.8104181 c 0
542.207068984 34.6726616509 m 0
 609.290262022 39.2216903984 666.209522511 55.1839823844 706.795244753 97.7184365018 c 0
 758.880313491 151.002949242 778.789729261 199.840880736 778.447371251 273.867438419 c 0
 781.633993994 306.030170733 769.23492855 338.582832797 755.139722222 377.935602607 c 0
 732.025836658 405.69279053 706.961001025 438.727016945 683.899633359 460.906488021 c 0
 663.399282792 490.833311756 645.38388597 507.165269547 609.055605376 535.144644118 c 0
 582.972208975 548.96982337 563.015151721 565.781121091 546.768688472 575.457940916 c 0
 542.481364798 581.597336797 518.191196211 595.155427367 510.796817552 603.891612133 c 0
 507.436838595 604.222921356 497.319189515 611.677219445 498.433483983 609.987795668 c 0
 492.369459784 602.284738392 471.194500355 602.590946209 476.030437773 609.68886019 c 0
 420.425924707 573.298878486 373.217172131 522.902681441 354.832968814 481.617771707 c 0
 326.78069525 439.201189867 308.565443957 375.649326461 315.155332262 314.714550718 c 0
 311.503449642 236.909488661 334.146835982 159.98557087 386.521775018 114.077496402 c 0
 424.671214728 60.6707779882 483.55383582 33.4264367278 542.207068984 34.6726616509 c 0
EndSplineSet
Colour: ff0000
EndChar
StartChar: nine
Encoding: 57 57 24
Width: 1100
VWidth: -35
Flags: HW
LayerCount: 2
Back
SplineSet
694 670 m 1,0,1
 702 726 702 726 702 806 c 0,2,3
 702 876 702 876 687 948 c 128,-1,4
 672 1020 672 1020 644.5 1084 c 128,-1,5
 617 1148 617 1148 570 1188 c 128,-1,6
 523 1228 523 1228 466 1228 c 0,7,8
 372 1228 372 1228 310 1138.5 c 128,-1,9
 248 1049 248 1049 248 914 c 0,10,11
 248 824 248 824 272 753.5 c 128,-1,12
 296 683 296 683 354 636.5 c 128,-1,13
 412 590 412 590 498 590 c 0,14,15
 621 590 621 590 694 670 c 1,0,1
122 46 m 1,16,17
 579 193 579 193 678 582 c 1,18,19
 628 540 628 540 562 516 c 128,-1,20
 496 492 496 492 442 492 c 0,21,22
 362 492 362 492 297 518.5 c 128,-1,23
 232 545 232 545 192.5 585.5 c 128,-1,24
 153 626 153 626 126 679 c 128,-1,25
 99 732 99 732 88.5 780.5 c 128,-1,26
 78 829 78 829 78 876 c 0,27,28
 78 1046 78 1046 195.5 1170 c 128,-1,29
 313 1294 313 1294 482 1294 c 0,30,31
 569 1294 569 1294 644.5 1254 c 128,-1,32
 720 1214 720 1214 769 1149 c 128,-1,33
 818 1084 818 1084 846 1004 c 128,-1,34
 874 924 874 924 874 842 c 0,35,36
 874 688 874 688 825 551.5 c 128,-1,37
 776 415 776 415 682 312 c 0,38,39
 580 200 580 200 429.5 111.5 c 128,-1,40
 279 23 279 23 146 -12 c 1,41,42
 134 -12 134 -12 128 9.5 c 128,-1,43
 122 31 122 31 122 46 c 1,16,17
EndSplineSet
Fore
SplineSet
622.71875 469.477539062 m 1
 566.509765625 427.4609375 482.196289062 406.590820312 419.866210938 406.869140625 c 0
 214.788085938 406.869140625 58.6435546875 591.63671875 70.6484375 856.260742188 c 0
 83.4482421875 1138.41699219 291.309570312 1308.70117188 543.970703125 1308.70117188 c 4
 826.126953125 1308.70117188 1010.89257812 1025.16503906 1010.89257812 676.50390625 c 0
 1010.89257812 327.842773438 777.98828125 -19.982421875 463.831054688 -19.982421875 c 0
 357.536132812 -19.982421875 262.370117188 20.365234375 187.518554688 79.078125 c 1
 187.518554688 294.452148438 l 1
 312.178710938 183.704101562 376.735351562 181.200195312 421.2578125 181.200195312 c 0
 531.448242188 181.200195312 622.71875 268.017578125 622.71875 376.817382812 c 2
 622.71875 469.477539062 l 1
457.153320312 1024.33007812 m 1
 456.875 1024.33007812 l 1
 456.875 690.138671875 l 2
 456.875 643.947265625 494.162109375 606.3828125 540.353515625 606.3828125 c 0
 581.813476562 606.3828125 617.153320312 636.712890625 623.552734375 676.50390625 c 1
 624.109375 1024.33007812 l 2
 624.109375 1070.52148438 586.822265625 1108.08691406 540.630859375 1108.08691406 c 0
 494.440429688 1108.08691406 457.153320312 1070.52148438 457.153320312 1024.33007812 c 1
EndSplineSet
Colour: ffff00
EndChar
StartChar: colon
Encoding: 58 58 25
Width: 529
Flags: HW
LayerCount: 2
Back
SplineSet
155.581054688 90 m 128,-1,1
 155.581054688 135 155.581054688 135 189.081054688 166.5 c 128,-1,2
 222.581054688 198 222.581054688 198 267.581054688 198 c 128,-1,3
 312.581054688 198 312.581054688 198 344.081054688 166.5 c 128,-1,4
 375.581054688 135 375.581054688 135 375.581054688 90 c 128,-1,5
 375.581054688 45 375.581054688 45 344.081054688 11.5 c 128,-1,6
 312.581054688 -22 312.581054688 -22 267.581054688 -22 c 128,-1,7
 222.581054688 -22 222.581054688 -22 189.081054688 11.5 c 128,-1,0
 155.581054688 45 155.581054688 45 155.581054688 90 c 128,-1,1
155.581054688 754 m 128,-1,9
 155.581054688 799 155.581054688 799 189.081054688 830.5 c 128,-1,10
 222.581054688 862 222.581054688 862 267.581054688 862 c 128,-1,11
 312.581054688 862 312.581054688 862 344.081054688 830.5 c 128,-1,12
 375.581054688 799 375.581054688 799 375.581054688 754 c 128,-1,13
 375.581054688 709 375.581054688 709 344.081054688 675.5 c 128,-1,14
 312.581054688 642 312.581054688 642 267.581054688 642 c 128,-1,15
 222.581054688 642 222.581054688 642 189.081054688 675.5 c 128,-1,8
 155.581054688 709 155.581054688 709 155.581054688 754 c 128,-1,9
EndSplineSet
Fore
SplineSet
264.581054688 329.161132812 m 4
 355.737304688 329.161132812 429.162109375 255.459960938 429.162109375 164.580078125 c 4
 429.162109375 73.7001953125 355.4609375 0 264.581054688 0 c 4
 173.701171875 0 100 73.7001953125 100 164.580078125 c 4
 100 255.459960938 173.701171875 329.161132812 264.581054688 329.161132812 c 4
264.581054688 433.89453125 m 4
 173.701171875 433.89453125 100 507.873046875 100 598.475585938 c 4
 100 689.35546875 173.701171875 763.056640625 264.581054688 763.056640625 c 4
 355.4609375 763.056640625 429.162109375 689.35546875 429.162109375 598.475585938 c 4
 429.162109375 507.595703125 355.4609375 433.89453125 264.581054688 433.89453125 c 4
EndSplineSet
Colour: ff0000
EndChar
StartChar: semicolon
Encoding: 59 59 26
Width: 464
Flags: W
LayerCount: 2
Back
SplineSet
254 246 m 0,0,1
 282 246 282 246 306 232 c 1,2,3
 342 170 342 170 342 92 c 0,4,5
 342 8 342 8 263 -113.5 c 128,-1,6
 184 -235 184 -235 106 -278 c 1,7,8
 96 -278 96 -278 86 -262 c 128,-1,9
 76 -246 76 -246 76 -236 c 1,10,11
 99 -219 99 -219 114 -205.5 c 128,-1,12
 129 -192 129 -192 153 -163.5 c 128,-1,13
 177 -135 177 -135 189.5 -97 c 128,-1,14
 202 -59 202 -59 202 -14 c 0,15,16
 202 18 202 18 169 63 c 128,-1,17
 136 108 136 108 136 148 c 0,18,19
 136 183 136 183 169.5 214.5 c 128,-1,20
 203 246 203 246 254 246 c 0,0,1
122 754 m 128,-1,22
 122 799 122 799 155.5 830.5 c 128,-1,23
 189 862 189 862 234 862 c 128,-1,24
 279 862 279 862 310.5 830.5 c 128,-1,25
 342 799 342 799 342 754 c 128,-1,26
 342 709 342 709 310.5 675.5 c 128,-1,27
 279 642 279 642 234 642 c 128,-1,28
 189 642 189 642 155.5 675.5 c 128,-1,21
 122 709 122 709 122 754 c 128,-1,22
EndSplineSet
Fore
SplineSet
101.108876381 753.169456923 m 0
 108.215248385 716.783183236 123.408350359 689.3239868 151.338400607 663.958568531 c 0
 176.180241709 643.617086504 198.731235655 621.605704988 232.326679781 623.303892997 c 0
 262.109454553 629.608773155 292.703436502 637.944600517 324.613554848 668.979154808 c 0
 338.527784693 692.447579356 357.069409549 721.800449165 360.334077372 749.007280738 c 0
 351.055529403 790.986346238 337.652802326 822.966180761 324.686754229 841.12519016 c 0
 303.297178855 868.342664945 263.545371733 876.529626415 240.741184215 882.100189908 c 0
 201.514373413 877.076376451 175.108155241 857.709482485 149.583010846 835.256461005 c 0
 127.398617134 817.04151352 108.676575438 786.120082092 101.108876381 753.169456923 c 0
259.911525103 262.57726413 m 0
 212.376636055 262.358476231 188.460124049 254.194590809 153.155327826 228.929934594 c 0
 131.984151926 196.575721456 122.619597538 170.072589564 122.058120693 143.43259329 c 0
 119.287264907 122.919212801 137.941148673 89.2540738184 152.517757765 48.5631851805 c 0
 181.77296131 23.1213809593 185.219996408 7.25520444935 193.286866431 -20.3922776736 c 0
 188.5003432 -49.4623049091 184.687263035 -67.3654398065 171.146765497 -92.2674637705 c 0
 163.256732465 -110.403879655 152.821675167 -133.371532302 139.088894742 -149.227704053 c 0
 120.663061016 -179.074691285 115.528266907 -179.906930601 104.255507334 -197.582457866 c 0
 90.9883226451 -198.095022679 76.6991776516 -212.311673954 62.872447 -231.66229937 c 0
 59.3704828974 -251.143847785 68.800058859 -261.430841677 70.6376143225 -264.731925435 c 0
 76.6452921493 -287.591078175 100.309004759 -292.837518122 114.434097093 -298.214008731 c 0
 173.207360724 -267.306070794 221.560082116 -208.18782705 268.797834054 -122.450581314 c 0
 334.528693223 -44.8424056425 358.360429896 35.0452443277 363.180905224 95.3735581687 c 0
 359.951823651 151.144376859 342.36453 192.731503765 310.59655638 241.309970612 c 0
 296.658954046 250.899018229 277.959959865 259.558873597 259.911525103 262.57726413 c 0
130.823387177 752.308883726 m 0
 137.569177911 774.200607164 145.529461224 797.194082884 165.183970705 822.47819838 c 0
 180.229163708 837.248885131 203.667109849 847.599775063 237.556581361 846.729457319 c 0
 265.216661632 853.66891438 275.26312621 835.477043052 300.178736114 816.994480181 c 0
 320.126141768 798.96557052 326.159042986 777.808844912 331.043163138 756.937029303 c 0
 331.010463843 728.841939987 312.448812307 709.348606679 303.910070423 679.299728217 c 0
 275.146440493 660.613471294 265.578504047 655.933294053 227.697396782 654.201026743 c 0
 210.599113077 653.986725266 192.408848011 669.401008109 173.102153386 691.592708853 c 0
 139.422243742 712.471878102 134.967213581 733.354773197 130.823387177 752.308883726 c 0
247.538628418 233.470833952 m 0
 267.745499501 226.880596327 280.217651977 227.993105193 297.806132317 222.0735382 c 0
 312.538078682 186.582964604 328.458735781 136.720941813 323.044612467 86.7225048272 c 0
 332.774646848 43.3675671951 300.6330499 -25.5769933687 247.129953543 -105.830080296 c 0
 192.446270554 -184.028636687 146.969033468 -242.355445746 105.208398899 -262.033761218 c 0
 100.9999031 -268.159924018 103.995933375 -264.003207676 95.9822501592 -255.085466118 c 0
 96.3714168057 -248.424014405 93.7813152465 -240.717493665 84.1920436912 -236.256216966 c 0
 93.8943134682 -242.682801214 109.302335219 -220.131765575 122.234602569 -210.439227223 c 0
 129.15653016 -200.294560312 144.295665067 -191.998931965 160.110881995 -174.926663213 c 0
 187.851789062 -153.516813281 188.210509059 -123.398671187 197.136774858 -104.154004854 c 0
 211.871868318 -74.3518619242 218.14983895 -45.3619096483 218.135498932 -13.8240941457 c 0
 222.705838305 4.85728762897 203.608509427 45.1467328657 176.997213858 71.460330517 c 0
 156.814484156 101.417758828 151.543155929 130.277844955 146.165528037 152.529728979 c 0
 148.0331208 165.950129935 155.448325592 185.319614387 182.791394964 199.398828971 c 0
 198.346926652 229.733813184 221.116734712 236.503181626 247.538628418 233.470833952 c 0
EndSplineSet
Colour: ff0000
EndChar
StartChar: less
Encoding: 60 60 27
Width: 881
Flags: HW
LayerCount: 2
Back
SplineSet
611.994140625 70 m 0,0,1
 611.994140625 56 611.994140625 56 599.994140625 13 c 128,-1,2
 587.994140625 -30 587.994140625 -30 579.994140625 -30 c 0,3,4
 577.994140625 -30 577.994140625 -30 569.994140625 -26 c 2,5,-1
 -180.005859375 354 l 2,6,7
 -216.005859375 373 -216.005859375 373 -216.005859375 434 c 0,8,9
 -216.005859375 464 -216.005859375 464 -180.005859375 482 c 2,10,-1
 557.994140625 856 l 2,11,12
 565.994140625 860 565.994140625 860 567.994140625 860 c 0,13,14
 583.994140625 860 583.994140625 860 601.994140625 766 c 0,15,16
 602.994140625 761 602.994140625 761 601.494140625 756.5 c 128,-1,17
 599.994140625 752 599.994140625 752 597.994140625 750 c 2,18,-1
 595.994140625 748 l 1,19,-1
 -56.005859375 418 l 1,20,-1
 605.994140625 82 l 2,21,22
 611.994140625 80 611.994140625 80 611.994140625 70 c 0,0,1
EndSplineSet
Fore
SplineSet
387.400390625 494.051757812 m 5
 739.509765625 986.5 l 5
 495.509765625 986.5 l 5
 140 494.051757812 l 5
 494.509765625 0 l 5
 741.994140625 0 l 5
 387.400390625 494.051757812 l 5
EndSplineSet
Colour: ff0000
EndChar
StartChar: equal
Encoding: 61 61 28
Width: 1130
Flags: W
LayerCount: 2
Back
SplineSet
957 240 m 1,0,-1
 145 240 l 1,1,2
 135 244 135 244 136.5 266.5 c 128,-1,3
 138 289 138 289 151 317 c 128,-1,4
 164 345 164 345 177 350 c 1,5,-1
 983 350 l 1,6,7
 995 346 995 346 994.5 324.5 c 128,-1,8
 994 303 994 303 982 275 c 128,-1,9
 970 247 970 247 957 240 c 1,0,-1
957 528 m 1,10,-1
 145 528 l 1,11,12
 135 532 135 532 136.5 554.5 c 128,-1,13
 138 577 138 577 151 605 c 128,-1,14
 164 633 164 633 177 638 c 1,15,-1
 983 638 l 1,16,17
 995 634 995 634 994.5 612.5 c 128,-1,18
 994 591 994 591 982 563 c 128,-1,19
 970 535 970 535 957 528 c 1,10,-1
EndSplineSet
Fore
SplineSet
954.113840609 512.679359844 m 0
 980.957368035 527.415696716 992.063155611 542.721470006 998.94548587 555.124017105 c 0
 1003.45315015 576.216474531 1015.20963446 590.808194532 1002.54088174 609.072000534 c 0
 1014.01478183 628.629160418 998.593865993 643.746324572 981.625438026 656.071852683 c 0
 173.815024922 649.542914057 l 0
 164.84713999 640.2215576 141.892817261 626.634981197 138.655673133 609.656683676 c 0
 124.916543564 597.736258788 120.023490575 565.663865958 123.94627987 553.278672965 c 0
 125.108057536 540.664724796 121.814421737 514.425921108 145.207697461 520.263123402 c 0
 954.113840609 512.679359844 l 0
956.066768105 220.10303308 m 0
 979.672930701 227.834319452 981.470737543 248.00633436 1002.68316863 271.883121916 c 0
 1001.03052399 282.341125764 1009.83713445 304.998585502 1003.67253165 330.724551923 c 0
 1011.1897985 341.247064579 994.626974188 355.254493586 986.055115922 360.55167881 c 0
 176.8092489 361.825861961 l 0
 164.088365515 362.457958232 142.321714267 337.009024337 134.378573271 316.616968405 c 0
 133.257896126 308.237414713 122.143355507 289.492331015 127.27942314 274.314429802 c 0
 123.9028525 248.249998421 131.023720998 236.396716984 143.39746025 220.581006865 c 0
 956.066768105 220.10303308 l 0
954.628789102 547.826108825 m 0
 146.718446608 543.961823817 l 0
 155.354331071 537.606106759 149.04664243 545.860515808 148.676733427 548.83635122 c 0
 146.483831242 564.469688295 160.027511047 580.441112042 162.117265406 594.85949408 c 0
 174.494522761 620.009225205 181.442737491 621.223066169 182.879072256 629.72957671 c 0
 979.873116893 623.981937072 l 0
 974.460461027 628.757963478 984.787095712 622.832368265 973.463764508 609.198079013 c 0
 978.083473267 603.906991686 980.733583832 584.226103255 972.63963543 569.94928749 c 0
 965.082711027 550.935686043 954.530213977 546.515301646 954.628789102 547.826108825 c 0
958.161075307 248.745811895 m 0
 150.591972675 249.282763516 l 0
 147.541034691 255.225116266 152.203578823 251.602851794 148.063640139 270.93291178 c 0
 156.484087039 272.445957978 162.520222098 298.058202067 168.172916164 313.148880256 c 0
 176.171557714 329.260110453 172.216818054 332.744407588 186.256742724 341.619522241 c 0
 983.60639857 334.444460753 l 0
 982.222205726 331.790822452 986.89708595 340.791977887 975.080988766 328.703792664 c 0
 975.655671809 316.10465692 971.994528601 301.923505395 962.714229012 283.28466756 c 0
 956.081672905 270.193924462 956.990150003 257.315551618 958.161075307 248.745811895 c 0
EndSplineSet
Colour: ff0000
EndChar
StartChar: greater
Encoding: 62 62 29
Width: 841
Flags: HW
LayerCount: 2
Back
SplineSet
76 70 m 0,0,1
 76 74 76 74 77.5 77 c 0,2,3
 78 80 78 80 80 81 c 2,4,-1
 82 82 l 1,5,-1
 744 418 l 1,6,-1
 94 748 l 2,7,8
 88 750 88 750 88 764 c 0,9,10
 88 789 88 789 100.5 824.5 c 128,-1,11
 113 860 113 860 120 860 c 0,12,13
 122 860 122 860 130 856 c 2,14,-1
 870 482 l 2,15,16
 904 465 904 465 904 434 c 0,17,18
 904 372 904 372 870 354 c 2,19,-1
 120 -26 l 2,20,21
 112 -30 112 -30 110 -30 c 0,22,23
 102 -30 102 -30 89 12.5 c 128,-1,24
 76 55 76 55 76 70 c 0,0,1
EndSplineSet
Fore
SplineSet
474.59375 494.051757812 m 5
 122.484375 986.5 l 5
 366.484375 986.5 l 5
 721.994140625 494.051757812 l 5
 367.484375 0 l 5
 120 0 l 5
 474.59375 494.051757812 l 5
EndSplineSet
Colour: ffff00
EndChar
StartChar: question
Encoding: 63 63 32
Width: 998
Flags: HW
LayerCount: 2
Back
SplineSet
126 90 m 128,-1,1
 126 135 126 135 159.5 166.5 c 128,-1,2
 193 198 193 198 238 198 c 128,-1,3
 283 198 283 198 314.5 166.5 c 128,-1,4
 346 135 346 135 346 90 c 128,-1,5
 346 45 346 45 314.5 11.5 c 128,-1,6
 283 -22 283 -22 238 -22 c 128,-1,7
 193 -22 193 -22 159.5 11.5 c 128,-1,0
 126 45 126 45 126 90 c 128,-1,1
200 1096 m 0,8,9
 173 1096 173 1096 142.5 1124 c 128,-1,10
 112 1152 112 1152 112 1196 c 0,11,12
 112 1245 112 1245 130 1270 c 1,13,14
 158 1284 158 1284 226 1284 c 0,15,16
 267 1284 267 1284 318 1268.5 c 128,-1,17
 369 1253 369 1253 422 1221 c 128,-1,18
 475 1189 475 1189 519.5 1146 c 128,-1,19
 564 1103 564 1103 592 1042 c 128,-1,20
 620 981 620 981 620 914 c 0,21,22
 620 811 620 811 574.5 741.5 c 128,-1,23
 529 672 529 672 418 608 c 0,24,25
 376 583 376 583 323.5 541.5 c 128,-1,26
 271 500 271 500 262 484 c 0,27,28
 256 473 256 473 253 453.5 c 128,-1,29
 250 434 250 434 249.5 420.5 c 128,-1,30
 249 407 249 407 249.5 379 c 128,-1,31
 250 351 250 351 250 344 c 1,32,33
 238 320 238 320 218 318 c 1,34,35
 199 326 199 326 192 340 c 1,36,37
 176 407 176 407 176 522 c 0,38,39
 176 562 176 562 186.5 596.5 c 128,-1,40
 197 631 197 631 209.5 653 c 128,-1,41
 222 675 222 675 247 698 c 128,-1,42
 272 721 272 721 287.5 732 c 128,-1,43
 303 743 303 743 332 761 c 0,44,45
 342 767 342 767 346 770 c 0,46,47
 387 796 387 796 403.5 807 c 128,-1,48
 420 818 420 818 448.5 840.5 c 128,-1,49
 477 863 477 863 488.5 879.5 c 128,-1,50
 500 896 500 896 510 921 c 128,-1,51
 520 946 520 946 520 974 c 0,52,53
 520 1049 520 1049 476 1093.5 c 128,-1,54
 432 1138 432 1138 372 1138 c 128,-1,55
 312 1138 312 1138 265.5 1117 c 128,-1,56
 219 1096 219 1096 200 1096 c 0,8,9
EndSplineSet
Fore
SplineSet
532.138671875 370.169921875 m 0
 634.37890625 370.169921875 717.22265625 287.325195312 717.22265625 185.0859375 c 0
 717.22265625 82.845703125 634.37890625 0 532.138671875 0 c 0
 429.899414062 0 347.0546875 82.845703125 347.0546875 185.0859375 c 0
 347.0546875 287.325195312 429.899414062 370.169921875 532.138671875 370.169921875 c 0
474.23046875 1289.47851562 m 0
 719.994140625 1289.47851562 865.1796875 1122.95898438 857.975585938 960.31640625 c 0
 852.98828125 855.860351562 790.647460938 787.701171875 748.532226562 751.958007812 c 0
 585.05859375 612.868164062 631.607421875 501.485351562 631.607421875 501.485351562 c 1
 430.73046875 501.485351562 l 2
 430.73046875 502.0390625 364.509765625 610.096679688 462.592773438 808.7578125 c 0
 568.435546875 1022.65722656 496.950195312 1097.74511719 403.022460938 1095.25097656 c 0
 298.567382812 1092.48046875 268.366210938 984.421875 309.649414062 864.450195312 c 1
 143.12890625 936.765625 l 1
 115.14453125 1139.58203125 278.89453125 1289.47851562 474.23046875 1289.47851562 c 0
EndSplineSet
Colour: ffff00
EndChar
StartChar: at
Encoding: 64 64 31
Width: 1479
Flags: HW
LayerCount: 2
Back
SplineSet
816 1156 m 0,0,1
 930 1156 930 1156 1027 1122 c 128,-1,2
 1124 1088 1124 1088 1192.5 1029 c 128,-1,3
 1261 970 1261 970 1309.5 891.5 c 128,-1,4
 1358 813 1358 813 1381 724 c 128,-1,5
 1404 635 1404 635 1404 540 c 0,6,7
 1404 389 1404 389 1350.5 262 c 128,-1,8
 1297 135 1297 135 1202 60.5 c 128,-1,9
 1107 -14 1107 -14 992 -14 c 0,10,11
 915 -14 915 -14 870.5 28 c 128,-1,12
 826 70 826 70 826 158 c 0,13,14
 826 213 826 213 840 250 c 1,15,16
 823 218 823 218 795 177.5 c 128,-1,17
 767 137 767 137 729 93 c 128,-1,18
 691 49 691 49 645 19.5 c 128,-1,19
 599 -10 599 -10 558 -10 c 0,20,21
 469 -10 469 -10 418.5 69 c 128,-1,22
 368 148 368 148 368 260 c 0,23,24
 368 367 368 367 419.5 478 c 128,-1,25
 471 589 471 589 551 675 c 128,-1,26
 631 761 631 761 735.5 815.5 c 128,-1,27
 840 870 840 870 940 870 c 0,28,29
 1015 870 1015 870 1086 844 c 1,30,-1
 964 212 l 1,31,32
 958 188 958 188 958 162 c 0,33,34
 958 116 958 116 984.5 94 c 128,-1,35
 1011 72 1011 72 1054 72 c 0,36,37
 1101 72 1101 72 1149.5 109.5 c 128,-1,38
 1198 147 1198 147 1236.5 208.5 c 128,-1,39
 1275 270 1275 270 1299.5 356.5 c 128,-1,40
 1324 443 1324 443 1324 534 c 0,41,42
 1324 617 1324 617 1305 694.5 c 128,-1,43
 1286 772 1286 772 1245 841.5 c 128,-1,44
 1204 911 1204 911 1145.5 963 c 128,-1,45
 1087 1015 1087 1015 1002 1045.5 c 128,-1,46
 917 1076 917 1076 816 1076 c 0,47,48
 697 1076 697 1076 591 1033 c 128,-1,49
 485 990 485 990 407.5 917 c 128,-1,50
 330 844 330 844 272.5 749.5 c 128,-1,51
 215 655 215 655 186.5 550 c 128,-1,52
 158 445 158 445 158 340 c 0,53,54
 158 173 158 173 233.5 42 c 128,-1,55
 309 -89 309 -89 424 -156 c 0,56,57
 500 -200 500 -200 574 -212 c 1,58,59
 574 -223 574 -223 547.5 -235.5 c 128,-1,60
 521 -248 521 -248 502 -248 c 0,61,62
 455 -248 455 -248 424 -236 c 0,63,64
 280 -183 280 -183 179 -23.5 c 128,-1,65
 78 136 78 136 78 340 c 0,66,67
 78 458 78 458 109.5 575 c 128,-1,68
 141 692 141 692 204.5 796.5 c 128,-1,69
 268 901 268 901 355 981.5 c 128,-1,70
 442 1062 442 1062 561.5 1109 c 128,-1,71
 681 1156 681 1156 816 1156 c 0,0,1
856 778 m 0,72,73
 800 778 800 778 738.5 735.5 c 128,-1,74
 677 693 677 693 628 626.5 c 128,-1,75
 579 560 579 560 547.5 473 c 128,-1,76
 516 386 516 386 516 302 c 0,77,78
 516 106 516 106 618 106 c 0,79,80
 666 106 666 106 725.5 176.5 c 128,-1,81
 785 247 785 247 832 349.5 c 128,-1,82
 879 452 879 452 898 548 c 2,83,-1
 938 752 l 1,84,85
 915 778 915 778 856 778 c 0,72,73
EndSplineSet
Fore
SplineSet
955.838867188 329.810546875 m 2
 955.838867188 329.810546875 788.771484375 329.64453125 788.522460938 329.89453125 c 2
 788.522460938 412.139648438 l 2
 788.0234375 411.391601562 747.772460938 353.844726562 651.307617188 353.844726562 c 0
 554.67578125 353.844726562 461.786132812 411.973632812 461.703125 509.602539062 c 0
 461.703125 576.961914062 504.614257812 662.8671875 631.017578125 704.36328125 c 0
 713.428710938 731.47265625 788.60546875 732.470703125 788.60546875 732.470703125 c 1
 788.60546875 732.470703125 783.033203125 810.391601562 685.90234375 810.391601562 c 0
 641.745117188 810.391601562 583.94921875 791.015625 560.1640625 738.458984375 c 1
 496.630859375 802.991210938 l 1
 539.374023438 881.161132812 624.530273438 922.408203125 729.145507812 922.408203125 c 0
 945.278320312 922.408203125 996.587890625 810.225585938 996.587890625 672.513671875 c 2
 996.670898438 474.260742188 l 1
 1139.62207031 474.260742188 1181.8671875 625.1953125 1180.453125 710.932617188 c 0
 1177.2109375 908.520507812 1035.25683594 1086.39941406 762.16015625 1086.39941406 c 0
 517.088867188 1086.39941406 317.836914062 887.149414062 317.836914062 642.16015625 c 0
 317.836914062 397.171875 517.171875 195.5078125 762.16015625 195.5078125 c 2
 1141.45214844 195.5078125 l 1
 1032.84570312 0 l 1
 762.16015625 0 l 2
 408.06640625 0 120 288.064453125 120 642.16015625 c 0
 120 996.254882812 420.750976562 1289.47851562 774.845703125 1289.47851562 c 0
 1220.41601562 1289.47851562 1359.99609375 961.493164062 1359.99609375 764.654296875 c 0
 1359.99609375 507.939453125 1205.65136719 329.810546875 955.838867188 329.810546875 c 2
788.438476562 478.41796875 m 2
 788.60546875 663.864257812 l 1
 788.60546875 663.864257812 679.665039062 635.340820312 679.665039062 551.099609375 c 0
 679.665039062 508.272460938 708.522460938 466.02734375 751.848632812 466.02734375 c 0
 775.881835938 466.02734375 788.0234375 478.001953125 788.438476562 478.41796875 c 2
EndSplineSet
Colour: ffff00
EndChar
StartChar: A
Encoding: 65 65 34
Width: 1254
Flags: HW
LayerCount: 2
Back
SplineSet
190 278 m 0,0,1
 454 957 454 957 576 1268 c 1,2,3
 584 1283 584 1283 611.5 1304.5 c 128,-1,4
 639 1326 639 1326 652 1326 c 0,5,6
 655 1326 655 1326 658.5 1323.5 c 128,-1,7
 662 1321 662 1321 664 1320 c 1
 1071 252 l 2,9,10
 1121 123 1121 123 1122 120 c 0,11,12
 1135 89 1135 89 1184.5 70.5 c 128,-1,13
 1234 52 1234 52 1258 52 c 1,14,15
 1264 43 1264 43 1264 22.5 c 128,-1,16
 1264 2 1264 2 1262 -6 c 1,17,18
 1062 4 1062 4 1042 4 c 0,19,20
 1001 4 1001 4 965.5 2.5 c 128,-1,21
 930 1 930 1 886 -2 c 128,-1,22
 842 -5 842 -5 810 -6 c 1,23,24
 803 2 803 2 803.5 23 c 128,-1,25
 804 44 804 44 812 52 c 1,26,27
 835 52 835 52 873.5 59.5 c 128,-1,28
 912 67 912 67 924 78 c 0,29,30
 932 86 932 86 932 106 c 0,31,32
 932 133 932 133 898 230.5 c 128,-1,33
 864 328 864 328 830 412 c 2
 796 496 l 1,35,36
 790 504 790 504 784 504 c 0,37,38
 758 506 758 506 586 506 c 0,39,40
 460 506 460 506 370 500 c 1
 360 494 l 1,42,43
 304 346 304 346 270 250 c 0,44,45
 242 168 242 168 242 108 c 0,46,47
 242 91 242 91 260.5 79 c 128,-1,48
 279 67 279 67 305.5 61.5 c 128,-1,49
 332 56 332 56 351 54 c 128,-1,50
 370 52 370 52 380 52 c 1,51,52
 384 48 384 48 385.5 25.5 c 128,-1,53
 387 3 387 3 384 -6 c 1,54,55
 355 -5 355 -5 321 -2 c 128,-1,56
 287 1 287 1 258 2.5 c 128,-1,57
 229 4 229 4 190 4 c 0,58,59
 149 4 149 4 117.5 2.5 c 128,-1,60
 86 1 86 1 48 -2 c 128,-1,61
 10 -5 10 -5 -24 -6 c 1,62,63
 -28 -2 -28 -2 -28 20 c 128,-1,64
 -28 42 -28 42 -24 52 c 1,65,66
 1 52 1 52 42 62.5 c 128,-1,67
 83 73 83 73 96 90 c 0,68,69
 138 145 138 145 190 278 c 0,0,1
582 1084 m 1
 398 596 l 1,71,72
 398 588 398 588 402 588 c 0,73,74
 506 584 506 584 584 584 c 0,75,76
 659 584 659 584 752 590 c 0,77,78
 754 590 754 590 755.5 592.5 c 0,79,80
 758 596 758 596 758 598 c 2
 758 600 l 1
 582 1084 l 1
EndSplineSet
Fore
SplineSet
588.840949454 1071.15469199 m 0
 736.900323972 591.82623134 l 0
 738.886916423 598.271853249 l 0
 737.987111981 594.300169693 737.283197154 597.610919248 748.373853588 600.617631022 c 0
 747.761327055 597.753274345 753.63495601 602.805470048 757.29175106 599.327922314 c 0
 685.926963365 602.680105744 637.819354226 600.26483598 587.434093477 596.795226819 c 0
 527.789121638 604.172729671 474.072782817 602.208624287 399.046177853 602.629118125 c 0
 402.11119465 598.404720577 413.523437064 590.031527027 410.015072718 597.47453834 c 0
 588.840949454 1071.15469199 l 0
178.077410349 278.472470513 m 0
 143.843143551 189.956813671 113.178883643 132.32416862 77.1982356955 92.8260328723 c 0
 82.8056256186 96.4719484616 67.6244528537 88.1920834271 33.0187867955 82.6966852493 c 0
 13.5810924886 77.118762009 -9.84730850484 63.0223693159 -38.1355875287 60.2971385707 c 0
 -44.4069725488 53.4429905524 -40.6540913153 38.5631651796 -38.858762099 16.8966179409 c 0
 -44.6176156191 -1.63558324552 -44.8511430755 -8.19888197699 -28.0877581576 -19.182451005 c 0
 -4.20327558445 -26.2371599934 19.5484491227 -13.6204220793 54.2362621271 -14.4334472524 c 0
 67.9738018951 -11.681596517 91.0705512554 -8.98217713798 117.493314837 -15.0886592163 c 0
 144.18907126 -16.3630870659 163.008212836 -11.4622406517 194.823361935 -16.1064442844 c 0
 215.843557374 -4.6440176444 237.556160914 -17.9485663495 251.472391066 -7.58754843747 c 0
 278.094941846 -8.38961486276 296.946052992 -11.2491068754 315.356459662 -18.5612513216 c 0
 340.371960398 -19.4110554103 364.204203287 -16.2469262026 398.151471909 -24.0889833728 c 0
 398.777736481 -4.66163484346 407.389186459 11.4134097622 401.078928743 27.6768437364 c 0
 394.494131926 42.1016052394 397.684439155 59.9853726126 384.151468084 59.9371478005 c 0
 375.94306938 66.772164442 368.557772924 68.8278173075 359.175788213 65.2507215375 c 0
 345.490103756 76.9085012726 329.310763913 72.6526431563 302.06050979 72.6378602251 c 0
 285.190016753 75.5732300554 274.521397958 87.4638493801 273.498484434 86.1606978267 c 0
 262.154888665 92.4824178701 251.117340101 94.8435511349 253.527262271 109.941669738 c 0
 253.33397887 142.730324098 263.009481948 191.365522991 282.371791986 247.88570421 c 0
 302.993627383 312.550397954 335.937002335 395.413801446 368.226226245 483.053301064 c 0
 380.483789368 485.566025954 l 0
 423.725413595 492.253394669 503.755954633 492.127424349 582.554886133 494.73145044 c 0
 694.87791157 488.508946564 761.52754635 492.756816527 786.516578295 495.333494526 c 0
 789.865711104 492.984248651 782.747488539 488.140154747 789.455128759 494.679118064 c 0
 815.839096225 401.914993503 l 0
 839.268886501 354.856352926 858.96206504 291.241295458 879.992538804 225.434639589 c 0
 908.0088434 161.725974722 912.338548304 116.997100502 913.054451554 102.319941664 c 0
 918.055204805 100.108982446 921.939248348 95.8172528565 913.319935098 83.1835091672 c 0
 901.661009617 76.6586187323 890.132371285 78.5466186142 867.170774074 77.3432028088 c 0
 842.627126966 75.0636373364 827.545321659 71.681865451 811.920483434 62.8026258144 c 0
 789.199381353 51.1204436835 795.232601537 35.5366292711 795.20637775 17.3377979571 c 0
 786.598877229 1.8205417382 789.799360463 -7.34957037653 803.855102687 -22.7896448458 c 0
 835.213406077 -25.840777748 859.88276713 -17.1897559155 881.967165248 -17.2847359189 c 0
 915.320203937 -21.9403851032 935.735328161 -12.6410810492 963.060454867 -11.9145075621 c 0
 984.270654596 -6.57300680064 1017.55038144 -4.79114059848 1044.92785113 -16.1314344871 c 0
 1053.48944737 -14.3634784264 1121.43238905 -20.4606167647 1275.09332956 -24.7198389964 c 0
 1279.79424715 2.88898781421 1275.63851859 4.49840638748 1274.81408822 17.9226231401 c 0
 1280.81014051 37.4884755126 1277.78268477 54.7463327132 1260.17516469 65.5875895364 c 0
 1245.47193714 61.2988055406 1225.81051212 66.2976882526 1190.77020203 85.4427665728 c 0
 1153.81019105 92.6788036704 1138.46852683 112.866725045 1136.87622243 121.462049677 c 0
 1141.35704377 127.440851978 1119.47199026 165.489659582 1088.37579966 253.676557296 c 0
 675.957653364 1323.14552523 l 0
 665.752710163 1326.81453436 664.209853873 1327.85083361 667.645281353 1330.24383169 c 0
 659.653431772 1337.19080114 663.299380927 1339.78021107 655.085515001 1341.68309501 c 0
 639.971924921 1343.22109488 622.732139818 1337.78689321 606.130156006 1320.96540381 c 0
 585.52852337 1306.49837142 571.613200177 1283.44801796 566.843918844 1269.47301756 c 0
 479.262741415 1063.06500806 353.624455967 735.005895881 178.077410349 278.472470513 c 0
577.804305289 1097.68072482 m 0
 386.674412769 599.423065171 l 0
 383.563791603 585.275053693 390.592667799 577.526740047 406.708607712 572.023917502 c 0
 466.241936345 574.048484522 528.209932671 569.341325557 579.198760391 572.511941873 c 0
 627.555456596 573.525241709 687.163627295 567.71134362 746.289283393 578.740966755 c 0
 755.024113309 581.245747352 764.660061191 575.76223701 770.606863893 588.593958589 c 0
 774.100340979 588.84048434 773.526669615 589.622365304 772.644038874 598.434630143 c 0
 768.404078172 607.416925253 l 0
 577.804305289 1097.68072482 l 0
199.395944498 276.122671784 m 0
 386.690919158 721.850913791 506.71764132 1054.73214504 586.337344903 1261.87661008 c 0
 593.599583487 1272.49783049 610.111369904 1274.01257306 624.028231404 1291.26341794 c 0
 639.776615137 1304.43418068 647.757242003 1311.88257709 652.127491269 1306.54371839 c 0
 652.172837214 1311.97520227 647.607191642 1318.73700574 654.705808482 1310.45945253 c 0
 658.843722713 1310.08457227 653.059325807 1306.42061428 648.618454515 1304.45885257 c 0
 1058.17112159 250.071262576 l 0
 1093.86919444 158.761412653 1101.18554353 110.009306685 1101.30135081 119.370617159 c 0
 1122.92306906 95.7875438448 1148.67586258 64.4716867737 1173.0373426 62.9884068346 c 0
 1212.54521452 42.0777229198 1243.8455968 39.0330709504 1245.95255176 36.0154475838 c 0
 1249.22335186 33.8156038465 1242.65312371 30.2062700157 1249.47608635 25.0360023945 c 0
 1242.54141487 13.517847867 1253.16122572 0.958525794558 1255.13844286 9.45490298776 c 0
 1123.05911037 20.3947405841 1062.50192298 14.4032248134 1041.24665227 12.2997230511 c 0
 1017.12225757 24.2086648835 982.94472439 13.806156771 960.614697579 19.3366799588 c 0
 945.017526285 16.6365444193 913.909027862 17.4121029294 879.840272979 17.3695813162 c 0
 851.203087316 17.5011041644 835.045558621 16.0601918531 821.706922491 2.27662797072 c 0
 820.192704907 2.04619847187 811.104716781 8.65075360378 811.725004588 19.4365187839 c 0
 819.566060538 40.6850761585 823.600252185 32.0767595589 815.039560827 31.1605191963 c 0
 825.630851127 33.5633616692 846.612928307 33.3537876637 871.958980309 49.9620821082 c 0
 901.974808761 45.8987389751 918.853567695 59.1447305208 932.484280875 65.5085625837 c 0
 936.372810204 79.8604581435 945.485185648 93.0373795585 942.890939866 105.421716157 c 0
 951.658307967 119.977340414 939.127019447 168.960575143 914.082381748 233.488634381 c 0
 889.204228578 301.025947864 869.612597979 357.22003872 837.827071605 421.508215405 c 0
 815.798952226 498.510469438 l 0
 799.85062658 508.294318767 793.663095732 518.245832486 787.306505625 515.568709921 c 0
 764.72293363 514.81284446 698.009797343 514.107890176 589.102412523 519.033137467 c 0
 507.617609035 522.860089356 425.211164482 515.810324665 368.399028739 514.765450064 c 0
 348.201221985 507.817215398 l 0
 312.765166618 393.933703629 280.408137672 320.186008769 254.704993137 252.119870364 c 0
 233.989420548 205.359320786 226.218532856 146.67147402 227.801925398 109.939357742 c 0
 229.146225737 97.1120118868 232.046445299 79.0034425953 249.108366848 70.5651366873 c 0
 270.767815691 56.5146478805 280.44898943 49.8740546576 300.716699795 51.6215787659 c 0
 325.953964645 47.3086516163 330.708043983 37.802990168 347.071637117 42.5298021077 c 0
 361.801977589 32.6420369913 373.389070426 35.0007379702 375.020861382 39.6186667117 c 0
 363.059706033 47.8180151594 365.080039533 41.3162673203 364.645479213 27.2258532127 c 0
 366.041334063 7.05995324266 373.500415899 2.04569768616 373.829296188 3.18664163426 c 0
 366.353171138 14.4587924795 347.021760719 6.97926500348 317.060438492 6.10399887366 c 0
 292.574591171 8.3479906554 283.047367684 19.3366515221 256.2714555 16.5815110013 c 0
 233.332624264 16.636709674 210.066710297 15.1542150582 183.286381758 16.7963962801 c 0
 157.285036802 16.1481493188 136.886618241 15.2433917697 118.946138609 20.828609166 c 0
 102.497158582 9.77953393238 77.1868143593 11.4191916425 46.191659816 8.89249912445 c 0
 18.152697571 4.43274111229 -1.35228685209 14.9834230061 -25.2167939928 9.99107165471 c 0
 -9.43183852058 4.78249270679 -15.6687235488 -0.236477403574 -14.3273621127 25.3812874353 c 0
 -11.9547758959 29.5254678772 -19.0664417875 44.1940454988 -13.0662782763 42.856186032 c 0
 -0.810815305721 30.576756358 17.982877963 43.4657388443 47.4783819498 44.5588169051 c 0
 75.5198586208 59.9153340406 95.1814156543 65.3061096682 103.060996806 77.2258163281 c 0
 140.983813151 114.487899902 173.512209627 183.461075071 199.395944498 276.122671784 c 0
EndSplineSet
Colour: ff0000
EndChar
StartChar: B
Encoding: 66 66 33
Width: 1365
Flags: HW
LayerCount: 2
Back
SplineSet
393 664 m 1,0,-1
 393 230 l 1,1,2
 392 201 392 201 397 152 c 128,-1,3
 402 103 402 103 411 94 c 0,4,5
 432 72 432 72 468.5 65 c 128,-1,6
 505 58 505 58 569 58 c 0,7,8
 887 58 887 58 887 352 c 0,9,10
 887 664 887 664 515 664 c 2,11,-1
 393 664 l 1,0,-1
393 740 m 1,12,-1
 560 740 l 2,13,14
 685 740 685 740 748 809 c 128,-1,15
 811 878 811 878 811 974 c 0,16,17
 811 1106 811 1106 727.5 1180 c 128,-1,18
 644 1254 644 1254 503 1254 c 0,19,20
 412 1254 412 1254 403 1234 c 0,21,22
 391 1205 391 1205 393 1084 c 1,23,-1
 393 740 l 1,12,-1
591 1318 m 0,24,25
 649 1318 649 1318 703 1309 c 128,-1,26
 757 1300 757 1300 811 1278.5 c 128,-1,27
 865 1257 865 1257 904.5 1224 c 128,-1,28
 944 1191 944 1191 968.5 1138.5 c 128,-1,29
 993 1086 993 1086 993 1020 c 0,30,31
 993 917 993 917 925.5 836 c 128,-1,32
 858 755 858 755 791 730 c 0,33,34
 782 726 782 726 791 720 c 1,35,36
 830 718 830 718 879 695 c 128,-1,37
 928 672 928 672 974.5 632.5 c 128,-1,38
 1021 593 1021 593 1053 530.5 c 128,-1,39
 1085 468 1085 468 1085 398 c 0,40,41
 1085 215 1085 215 950 102 c 0,42,43
 825 -2 825 -2 531 -6 c 1,44,-1
 71 -6 l 1,45,46
 64 2 64 2 64.5 23 c 128,-1,47
 65 44 65 44 71 52 c 1,48,49
 101 52 101 52 153 61 c 128,-1,50
 205 70 205 70 209 84 c 0,51,52
 219 116 219 116 219 232 c 2,53,-1
 219 1086 l 2,54,55
 219 1202 219 1202 209 1234 c 0,56,57
 205 1248 205 1248 153 1257 c 128,-1,58
 101 1266 101 1266 71 1266 c 1,59,60
 65 1274 65 1274 64.5 1295 c 128,-1,61
 64 1316 64 1316 71 1324 c 1,62,63
 276 1314 276 1314 307 1314 c 0,64,65
 341 1314 341 1314 434 1316 c 128,-1,66
 527 1318 527 1318 591 1318 c 0,24,25
EndSplineSet
Fore
SplineSet
1006.35449219 681.59765625 m 1
 1006.35449219 681.59765625 1245.74511719 620.364257812 1245.74511719 378.48046875 c 0
 1245.74511719 161.254882812 1038.49511719 0 806.30859375 0 c 2
 225.841796875 0 l 1
 225.841796875 1099.14550781 l 1
 120 1099.14550781 l 1
 120 1289.47851562 l 1
 801.875 1289.47851562 l 2
 1032.39941406 1289.47851562 1198.36621094 1149.57226562 1198.36621094 956.452148438 c 0
 1198.36621094 806.557617188 1112.75097656 731.469726562 1006.35449219 681.59765625 c 1
608.755859375 1098.8671875 m 1
 608.755859375 777.186523438 l 1
 729.283203125 777.186523438 l 2
 785.52734375 777.186523438 832.907226562 828.16796875 832.907226562 888.29296875 c 2
 832.907226562 987.76171875 l 2
 832.907226562 1048.99511719 786.359375 1098.8671875 729.283203125 1098.8671875 c 2
 608.755859375 1098.8671875 l 1
862.83203125 320.572265625 m 2
 862.83203125 455.505859375 l 2
 862.83203125 525.051757812 809.91015625 581.573242188 745.075195312 581.573242188 c 2
 608.755859375 581.573242188 l 1
 608.755859375 194.50390625 l 1
 745.075195312 194.50390625 l 2
 809.080078125 194.50390625 862.83203125 252.134765625 862.83203125 320.572265625 c 2
EndSplineSet
Colour: ffff00
EndChar
StartChar: C
Encoding: 67 67 36
Width: 1290
Flags: HW
LayerCount: 2
Back
SplineSet
772 1334 m 0,0,1
 1002 1334 1002 1334 1196 1292 c 1,2,3
 1242 1016 1242 1016 1242 996 c 1,4,5
 1243 987 1243 987 1228 978.5 c 128,-1,6
 1213 970 1213 970 1198 970 c 128,-1,7
 1183 970 1183 970 1174 976 c 1,8,9
 1117 1268 1117 1268 782 1268 c 0,10,11
 640 1268 640 1268 526 1180 c 128,-1,12
 412 1092 412 1092 353 960 c 128,-1,13
 294 828 294 828 294 686 c 0,14,15
 294 591 294 591 314.5 500.5 c 128,-1,16
 335 410 335 410 377.5 329 c 128,-1,17
 420 248 420 248 480.5 187 c 128,-1,18
 541 126 541 126 627 90 c 128,-1,19
 713 54 713 54 814 54 c 0,20,21
 969 54 969 54 1078 150 c 1,22,23
 1168 231 1168 231 1200 382 c 1,24,25
 1235 385 1235 385 1264 366 c 1,26,27
 1264 328 1264 328 1238.5 211 c 128,-1,28
 1213 94 1213 94 1194 78 c 1,29,30
 1034 -12 1034 -12 764 -12 c 0,31,32
 619 -12 619 -12 493 41 c 128,-1,33
 367 94 367 94 281 183 c 128,-1,34
 195 272 195 272 145.5 392 c 128,-1,35
 96 512 96 512 96 644 c 0,36,37
 96 783 96 783 147 909.5 c 128,-1,38
 198 1036 198 1036 286 1129.5 c 128,-1,39
 374 1223 374 1223 501 1278.5 c 128,-1,40
 628 1334 628 1334 772 1334 c 0,0,1
EndSplineSet
Fore
SplineSet
1016.65820312 379.625976562 m 5
 1150.20703125 245.5234375 l 5
 1087.58789062 104.215820312 924.669921875 -35.982421875 723.791992188 -35.982421875 c 4
 401.834960938 -35.982421875 140 256.606445312 140 616.247070312 c 4
 140 1006.91796875 388.811523438 1324.72070312 714.09375 1324.72070312 c 4
 886.987304688 1324.72070312 974.265625 1242.4296875 974.54296875 1242.15234375 c 6
 974.54296875 1324.72070312 l 5
 1121.9453125 1324.72070312 l 5
 1121.9453125 908.002929688 l 5
 973.711914062 908.002929688 l 5
 973.711914062 908.002929688 971.771484375 1117.46972656 767.291992188 1117.46972656 c 4
 653.416015625 1117.46972656 560.873046875 1029.91503906 560.873046875 918.532226562 c 6
 560.873046875 371.037109375 l 6
 560.873046875 259.654296875 654.5234375 169.328125 767.291992188 169.328125 c 4
 956.810546875 169.328125 1010.5625 355.798828125 1016.65820312 379.625976562 c 5
EndSplineSet
Colour: ffff00
EndChar
StartChar: D
Encoding: 68 68 35
Width: 1218
Flags: HW
LayerCount: 2
Back
SplineSet
275 1082 m 1,0,-1
 275 230 l 2,1,2
 275 100 275 100 287 86 c 1,3,4
 307 58 307 58 451 58 c 0,5,6
 560 58 560 58 654 92.5 c 128,-1,7
 748 127 748 127 822 195 c 128,-1,8
 896 263 896 263 938.5 373.5 c 128,-1,9
 981 484 981 484 981 626 c 0,10,11
 981 758 981 758 950.5 864.5 c 128,-1,12
 920 971 920 971 868 1042 c 128,-1,13
 816 1113 816 1113 744 1161 c 128,-1,14
 672 1209 672 1209 592 1230.5 c 128,-1,15
 512 1252 512 1252 423 1252 c 0,16,17
 292 1252 292 1252 285 1230 c 0,18,19
 273 1192 273 1192 275 1082 c 1,0,-1
477 1316 m 0,20,21
 638 1316 638 1316 771 1266.5 c 128,-1,22
 904 1217 904 1217 993 1130.5 c 128,-1,23
 1082 1044 1082 1044 1130.5 925 c 128,-1,24
 1179 806 1179 806 1179 668 c 0,25,26
 1179 561 1179 561 1158 467 c 128,-1,27
 1137 373 1137 373 1084.5 284.5 c 128,-1,28
 1032 196 1032 196 951.5 133 c 128,-1,29
 871 70 871 70 743 32 c 128,-1,30
 615 -6 615 -6 451 -6 c 2,31,-1
 -49 -6 l 1,32,33
 -56 2 -56 2 -55.5 23 c 128,-1,34
 -55 44 -55 44 -49 52 c 1,35,36
 -19 52 -19 52 33 61 c 128,-1,37
 85 70 85 70 89 84 c 0,38,39
 99 116 99 116 99 232 c 2,40,-1
 99 1086 l 2,41,42
 99 1202 99 1202 89 1234 c 0,43,44
 85 1248 85 1248 33 1257 c 128,-1,45
 -19 1266 -19 1266 -49 1266 c 1,46,47
 -55 1274 -55 1274 -55.5 1295 c 128,-1,48
 -56 1316 -56 1316 -49 1324 c 1,49,50
 156 1314 156 1314 187 1314 c 0,51,52
 225 1314 225 1314 328.5 1315 c 128,-1,53
 432 1316 432 1316 477 1316 c 0,20,21
EndSplineSet
Fore
SplineSet
575.478515625 1289.47851562 m 6
 879.150390625 1289.47851562 1138.21289062 1007.43457031 1138.21289062 668.297851562 c 4
 1138.21289062 299.791992188 876.083007812 0 569.106445312 0 c 6
 105.564453125 0 l 5
 105.564453125 1098.86914062 l 5
 0 1098.86914062 l 5
 0 1289.47851562 l 5
 575.478515625 1289.47851562 l 6
741.72265625 373.770507812 m 6
 741.72265625 909.905273438 l 6
 741.72265625 1014.91503906 653.3359375 1098.86914062 546.940429688 1098.86914062 c 6
 489.033203125 1098.86914062 l 5
 489.033203125 183.975585938 l 5
 546.940429688 183.975585938 l 6
 654.444335938 183.975585938 741.72265625 268.759765625 741.72265625 373.770507812 c 6
EndSplineSet
Colour: ffff00
EndChar
StartChar: E
Encoding: 69 69 38
Width: 1174
Flags: HW
LayerCount: 2
Back
SplineSet
327 1314 m 0,0,1
 417 1314 417 1314 637.5 1321 c 128,-1,2
 858 1328 858 1328 971 1328 c 1,3,4
 979 1270 979 1270 1001.5 1175 c 128,-1,5
 1024 1080 1024 1080 1029 1056 c 1,6,7
 1019 1046 1019 1046 993 1046 c 0,8,9
 968 1046 968 1046 965 1060 c 0,10,11
 934 1171 934 1171 878.5 1209.5 c 128,-1,12
 823 1248 823 1248 733 1248 c 2
 561 1248 l 2,14,15
 430 1248 430 1248 423 1226 c 0,16,17
 411 1188 411 1188 413 1084 c 1
 413 710 l 1,19,20
 412 703 412 703 436 700.5 c 128,-1,21
 460 698 460 698 499 698 c 2
 605 698 l 2,23,24
 655 698 655 698 683 699 c 128,-1,25
 711 700 711 700 735.5 705 c 128,-1,26
 760 710 760 710 771 718 c 128,-1,27
 782 726 782 726 792 740.5 c 128,-1,28
 802 755 802 755 807.5 775 c 128,-1,29
 813 795 813 795 821 825 c 0,30,31
 823 836 823 836 825 842 c 0,32,33
 828 856 828 856 855 856 c 0,34,35
 879 856 879 856 889 846 c 1
 889 468 l 1,37,38
 881 460 881 460 857 460 c 0,39,40
 831 460 831 460 825 476 c 1,41,42
 804 555 804 555 794 576.5 c 128,-1,43
 784 598 784 598 769 608 c 0,44,45
 744 624 744 624 557 624 c 0,46,47
 537 624 537 624 526 624 c 128,-1,48
 515 624 515 624 495 623.5 c 128,-1,49
 475 623 475 623 463 622 c 128,-1,50
 451 621 451 621 438 619 c 128,-1,51
 425 617 425 617 419 613.5 c 128,-1,52
 413 610 413 610 413 606 c 2
 413 226 l 1,54,55
 412 191 412 191 414.5 143 c 128,-1,56
 417 95 417 95 425 88 c 0,57,58
 443 74 443 74 469.5 71 c 128,-1,59
 496 68 496 68 567 68 c 2
 663 68 l 2,61,62
 735 68 735 68 804.5 82.5 c 128,-1,63
 874 97 874 97 915 122 c 0,64,65
 958 148 958 148 984 194.5 c 128,-1,66
 1010 241 1010 241 1041 324 c 1,67,68
 1044 336 1044 336 1069 336 c 0,69,70
 1107 336 1107 336 1119 324 c 1,71,72
 1110 298 1110 298 1089 241 c 128,-1,73
 1068 184 1068 184 1055.5 148.5 c 128,-1,74
 1043 113 1043 113 1029.5 68 c 128,-1,75
 1016 23 1016 23 1011 -8 c 1,76,77
 908 -8 908 -8 688 -4 c 128,-1,78
 468 0 468 0 329 0 c 0,79,80
 280 0 280 0 204 -3 c 128,-1,81
 128 -6 128 -6 91 -6 c 1,82,83
 84 2 84 2 84.5 23 c 128,-1,84
 85 44 85 44 91 52 c 1,85,86
 121 52 121 52 173 61 c 128,-1,87
 225 70 225 70 229 84 c 0,88,89
 239 116 239 116 239 232 c 2
 239 1086 l 2,91,92
 239 1202 239 1202 229 1234 c 0,93,94
 225 1248 225 1248 173 1257 c 128,-1,95
 121 1266 121 1266 91 1266 c 1,96,97
 85 1274 85 1274 84.5 1295 c 128,-1,98
 84 1316 84 1316 91 1324 c 1,99,100
 296 1314 296 1314 327 1314 c 0,0,1
EndSplineSet
Fore
SplineSet
324.111595792 1333.61810527 m 0
 305.602970041 1334.37081469 223.859771212 1329.95596736 89.4534492171 1339.0305844 c 0
 77.668870292 1326.39409438 66.5109054578 1313.40379801 66.0618903483 1292.54068715 c 0
 68.8643200553 1282.05228327 67.3800614541 1271.70126188 82.47198888 1253.74332904 c 0
 111.315718847 1257.05780527 133.530485502 1254.38096586 163.623117318 1241.65378008 c 0
 203.529239985 1230.80379327 218.059921344 1227.54628033 216.448551967 1223.22160774 c 0
 213.972716761 1209.47108149 230.694235944 1166.66684181 230.883842128 1088.4294397 c 0
 220.705368207 235.161159248 l 0
 219.923009253 153.55946051 214.809953193 113.871241049 220.780306672 86.1051596202 c 0
 217.07007041 78.6570045148 206.196527056 80.5542295225 176.766625724 82.0201411432 c 0
 140.506179781 65.4045688281 111.116293906 66.9483935596 85.6523904191 61.3954821748 c 0
 71.7515078965 50.7182965944 75.8030428918 32.4171774799 70.3070718373 23.0128467105 c 0
 65.9734360891 3.39472128514 78.9013499297 -13.4755110288 78.2756268175 -25.5057250775 c 0
 117.796439843 -27.6575041489 150.207854222 -22.2514592338 205.724657216 -16.1663717907 c 0
 251.306521687 -21.3497810309 292.962874623 -9.34437236683 322.090129565 -10.8028002531 c 0
 427.065583002 -18.1225316616 545.170766379 -19.8511705887 686.300757708 -25.1241624244 c 0
 841.00164116 -17.2719044322 944.282091107 -23.3248808923 1021.1494436 -20.958648189 c 0
 1028.70204037 12.3116067566 1041.14932643 36.6545796588 1048.45933971 67.2919187732 c 0
 1048.11493771 90.7028393283 1066.59715414 119.580478181 1073.83554153 139.622746103 c 0
 1074.35118205 169.970185975 1095.96871339 204.28987291 1100.95871509 229.844441695 c 0
 1123.4131003 268.452700745 1132.58405828 296.12126179 1137.34691889 331.686343195 c 0
 1114.4446061 341.052548821 1093.304503 352.053057093 1069.56189202 347.505556257 c 0
 1046.89250963 344.97479601 1029.02786657 339.188144991 1024.00446971 330.873755944 c 0
 1009.2507446 277.285106581 986.735369247 238.6075536 964.851559199 196.427402733 c 0
 955.562890821 170.746598676 931.349368528 146.488640078 908.402691215 140.566683647 c 0
 887.087307947 120.38152014 842.548566109 107.443705826 805.76379604 102.90993632 c 0
 757.953914056 92.7643994945 716.637619762 89.2319680839 659.306913479 81.5249561477 c 0
 562.329641534 78.795419609 l 0
 518.880688092 79.0345727935 485.931069285 86.9395725325 473.418191065 79.7206605072 c 0
 457.861655409 94.136733289 448.423579213 84.877826269 430.170082199 104.729936078 c 0
 434.937440255 97.0227305874 437.954218363 115.726451385 435.071779401 150.622780461 c 0
 431.415509825 173.584719878 431.635546962 201.918250746 432.359756288 223.477031826 c 0
 434.563141209 602.236509584 l 0
 429.131710348 597.226669488 423.868745275 595.148072913 424.973740687 597.058901245 c 0
 424.344320407 604.415361888 435.681977603 603.272502017 440.98067791 608.458107808 c 0
 449.812719788 609.924460386 451.62711957 604.654973288 470.424215122 603.991308293 c 0
 467.343102126 612.908771075 476.853466514 604.948471202 500.726275049 612.894690919 c 0
 510.771832273 615.126170447 524.848250094 608.517692984 525.504648161 602.187549086 c 0
 540.820201123 607.53082815 536.25584312 613.421802752 552.491995119 605.197975511 c 0
 681.725807453 610.386530111 745.875190736 610.079022215 763.948878 601.638740062 c 0
 775.584289692 593.090583807 777.057169984 582.535490388 776.192987417 573.999667241 c 0
 785.288078181 561.462560716 798.365658957 519.921340727 804.241112096 467.127404785 c 0
 823.750883576 456.632782086 833.068543209 446.015352932 859.270567881 448.364820142 c 0
 876.99738875 448.905327326 886.844213722 449.099942788 908.173987279 461.20127672 c 0
 904.983875033 854.620561109 l 0
 887.512289069 869.115845605 870.116618491 866.152342502 855.235815826 874.709965421 c 0
 828.107322029 867.388476371 810.280341997 860.302226637 813.44640891 842.558321442 c 0
 810.515889049 839.795716574 807.301610348 828.553754248 812.194713139 827.987580194 c 0
 799.472723165 811.492250938 799.316061893 786.121656735 786.983806126 775.500828999 c 0
 789.197714687 763.991221474 780.05110551 756.910862449 780.22430182 749.810622473 c 0
 768.198965834 744.471629736 773.261941337 738.678316418 764.862352332 725.502448189 c 0
 750.892296672 723.556149985 741.586597529 725.88034351 737.884499732 719.083333262 c 0
 721.491920347 719.762519202 694.582532421 711.036808094 675.664531839 707.68667082 c 0
 663.240902658 717.34236943 635.465919258 714.438378842 609.006332382 713.914165641 c 0
 502.186905885 708.062720752 l 0
 475.334024038 715.267789009 459.541150874 716.572930031 433.920582246 715.927856948 c 0
 424.941876675 715.3449878 424.93757585 718.982437662 426.759739795 711.266721713 c 0
 431.819587988 1087.73893623 l 0
 422.881090634 1151.31824092 427.99182724 1200.14162093 440.850593345 1215.87928505 c 0
 437.957585907 1226.85721086 476.907629843 1239.75151307 558.168883668 1229.13284267 c 0
 739.619928378 1239.00120631 l 0
 785.099250899 1229.85010963 838.308567737 1220.56293538 863.945657066 1198.06795815 c 0
 910.418034946 1178.14840123 930.71343135 1122.96626079 957.093356595 1062.77619202 c 0
 952.535337285 1042.32822139 978.547663741 1029.59712688 995.358390544 1028.9973383 c 0
 1011.09618769 1034.92373832 1024.32995431 1035.97780353 1039.03144782 1053.44286992 c 0
 1042.93778494 1073.42217267 1026.60066177 1117.28025377 1021.71986726 1177.79656132 c 0
 1001.95226126 1246.11695178 994.100500737 1291.71117219 987.213147062 1337.95839509 c 0
 899.1222338 1342.49745867 784.970342697 1338.84466229 635.815400715 1339.66532212 c 0
 489.81455202 1325.38192576 393.354363521 1334.14295484 324.111595792 1333.61810527 c 0
327.805616122 1304.53696612 m 0
 381.963021538 1303.45541878 489.661798483 1306.73401782 641.423466002 1302.85322163 c 0
 787.056790332 1305.55457337 898.664381871 1314.10602409 966.800225438 1319.16963123 c 0
 957.124161813 1291.20037051 975.860501462 1235.11210463 991.833599548 1170.88256382 c 0
 1006.64280844 1109.82505281 1015.82189322 1070.16202442 1012.52155681 1065.09868396 c 0
 1008.42078547 1056.81975814 1015.27128246 1067.52250504 996.812179478 1065.56108662 c 0
 974.815404199 1064.12803329 985.394184759 1062.66952587 982.852372211 1067.57279851 c 0
 954.079800666 1136.21881954 931.782159288 1190.95526558 887.850196717 1215.9199011 c 0
 849.618128982 1249.51830091 800.217453851 1269.16854085 729.570791813 1260.64532831 c 0
 562.455250763 1262.97380373 l 0
 469.677394039 1269.48229879 415.899384407 1247.887537 409.170754443 1235.65494511 c 0
 401.518437354 1201.71136699 401.947036085 1147.85181079 404.747581355 1079.22207549 c 0
 392.861365513 716.624457603 l 0
 392.542425214 697.365413659 418.491604006 682.025402892 440.715241468 692.262926122 c 0
 450.308688538 688.076732709 467.53457831 676.918041568 505.035829133 681.283779657 c 0
 604.969544373 682.431011161 l 0
 637.709521654 683.503184406 664.105203972 687.448474977 680.750675808 678.242717944 c 0
 702.487212953 682.905065927 724.230432977 684.371603768 740.594678589 689.278599703 c 0
 749.943211771 688.484969657 776.601497363 694.040463053 776.796776861 702.688426967 c 0
 788.410367288 708.102091588 793.80777021 725.180182721 798.473536085 728.658909776 c 0
 808.055782051 739.415285119 812.083453332 758.90406002 824.452097414 766.97524328 c 0
 825.936251287 778.406394795 828.822000888 800.692909776 837.05798906 826.155682837 c 0
 835.307869203 824.095184239 834.033279663 833.970458613 835.100268864 835.137613544 c 0
 833.474006044 847.92637172 837.677426167 847.677730774 857.246728799 838.381483101 c 0
 874.048271315 838.615856332 868.707696795 845.985711171 878.790950363 844.186994326 c 0
 871.145403168 472.455002115 l 0
 879.568777349 472.753273802 873.843958062 468.733887024 858.315020474 475.686530032 c 0
 849.790909435 473.34869054 838.186455969 475.330629142 843.480307611 484.523067989 c 0
 820.387439761 537.045261939 819.35539054 563.26432042 805.123825747 582.837361689 c 0
 801.304844267 603.318934679 789.760887706 614.861093064 771.251583763 614.914734298 c 0
 750.867834343 639.003161147 682.866792238 644.806629449 552.022649132 638.811901491 c 0
 531.507772394 643.376506308 532.892929915 642.568434443 530.084092292 634.299089312 c 0
 520.498726202 637.484148457 507.730086816 641.218774932 493.627660956 641.834519861 c 0
 485.810053494 643.046963781 469.908554511 632.636664832 456.609616599 630.21641463 c 0
 446.754433491 629.686903058 450.376523574 637.923173014 441.231967928 633.79850944 c 0
 421.790522172 626.679489334 423.794888602 626.678873431 416.44452569 627.828367593 c 0
 402.073781336 621.347354403 394.171339918 615.973158028 392.050948395 601.263584403 c 0
 391.113269664 220.991676185 l 0
 395.906935356 207.466914018 396.938305849 167.978115031 395.047533178 140.666966597 c 0
 399.538361039 111.002033362 399.866128353 91.4266699211 412.748311925 78.4464037109 c 0
 429.647058541 71.4623585612 452.253030031 51.7184577822 467.351248177 54.2108814867 c 0
 485.996648643 58.2375825381 514.414554788 54.1409293462 560.693327365 48.5846616 c 0
 664.123995547 49.7810393438 l 0
 710.193034745 47.5695932821 765.300318649 58.1796715505 809.814467721 69.4556916593 c 0
 852.371433285 84.2540409013 891.301514974 89.5866387748 921.802991989 109.447927436 c 0
 952.586178783 124.272097103 973.457053504 154.502785373 993.113063199 186.178440815 c 0
 1017.52119885 224.268990466 1038.3067339 266.513125902 1055.85270042 319.457647198 c 0
 1059.47575534 317.758393078 1060.00020333 318.04332595 1064.27186192 316.547386508 c 0
 1089.28250694 324.956954155 1098.72052167 323.423585975 1110.43069326 318.976317757 c 0
 1105.47133647 312.047020921 1082.12698448 279.156199454 1073.73267502 246.108357394 c 0
 1064.44584906 205.36736952 1047.00910302 174.454321498 1035.94942224 157.197189389 c 0
 1035.04617578 132.192248916 1023.52472146 95.9930451264 1016.60232749 74.1396323922 c 0
 1002.91274042 45.8084546081 997.423595352 15.8766208338 1007.76475687 -1.81087967748 c 0
 937.080573541 0.335347777497 829.725323235 9.90768323467 693.919834359 16.361608147 c 0
 547.977696995 12.961619786 426.408029818 15.7953059867 328.288765523 8.58617840076 c 0
 293.945040272 9.64158365889 260.710992156 13.3787988946 197.835736022 8.76894796894 c 0
 149.765529282 14.9753285357 112.679361975 6.65389811206 90.2336045792 12.9562959499 c 0
 103.969707351 8.10638820869 101.164252869 6.75411150815 103.136296757 18.9298025537 c 0
 101.302942713 29.609967663 101.752000466 37.1475952225 103.354075391 43.7705416271 c 0
 112.370623117 41.3680500497 137.189451741 45.8789494218 173.381187783 51.6158420466 c 0
 208.859522164 56.6956729552 233.697997622 66.9300356677 247.558024311 85.9864292602 c 0
 256.62148971 105.568545251 252.297253732 147.328870297 260.683333398 235.678633399 c 0
 255.004754189 1092.28889433 l 0
 259.700711235 1157.37449153 247.928552819 1219.58634717 240.268970209 1240.34488242 c 0
 231.619185774 1255.60542177 205.3804427 1265.49838276 170.584137372 1269.33624339 c 0
 143.210607153 1280.64010833 116.415940617 1283.71320054 98.4425128266 1284.4113715 c 0
 96.2766175173 1276.08356291 97.6651664499 1279.27371498 92.8907159028 1289.68122513 c 0
 105.289901326 1300.61451653 97.7145632155 1315.27427674 90.6274407119 1307.89445777 c 0
 232.338675347 1300.46433908 309.9359205 1300.20188796 327.805616122 1304.53696612 c 0
EndSplineSet
Colour: ff0000
EndChar
StartChar: F
Encoding: 70 70 37
Width: 1255
Flags: HW
LayerCount: 2
Back
SplineSet
198.754882812 1314 m 0,0,1
 288.754882812 1314 288.754882812 1314 509.254882812 1321 c 128,-1,2
 729.754882812 1328 729.754882812 1328 842.754882812 1328 c 1,3,4
 850.754882812 1270 850.754882812 1270 873.254882812 1175 c 128,-1,5
 895.754882812 1080 895.754882812 1080 900.754882812 1056 c 1,6,7
 890.754882812 1046 890.754882812 1046 864.754882812 1046 c 0,8,9
 839.754882812 1046 839.754882812 1046 836.754882812 1060 c 0,10,11
 805.754882812 1171 805.754882812 1171 750.254882812 1209.5 c 128,-1,12
 694.754882812 1248 694.754882812 1248 604.754882812 1248 c 2,13,-1
 432.754882812 1248 l 2,14,15
 301.754882812 1248 301.754882812 1248 294.754882812 1226 c 0,16,17
 284.754882812 1194 284.754882812 1194 284.754882812 1084 c 2,18,-1
 284.754882812 710 l 1,19,20
 283.754882812 703 283.754882812 703 307.754882812 700.5 c 128,-1,21
 331.754882812 698 331.754882812 698 370.754882812 698 c 2,22,-1
 476.754882812 698 l 2,23,24
 526.754882812 698 526.754882812 698 554.754882812 699 c 128,-1,25
 582.754882812 700 582.754882812 700 607.254882812 705 c 128,-1,26
 631.754882812 710 631.754882812 710 642.754882812 718 c 128,-1,27
 653.754882812 726 653.754882812 726 663.754882812 740.5 c 128,-1,28
 673.754882812 755 673.754882812 755 679.254882812 775 c 128,-1,29
 684.754882812 795 684.754882812 795 692.754882812 825 c 0,30,31
 694.754882812 836 694.754882812 836 696.754882812 842 c 0,32,33
 699.754882812 856 699.754882812 856 726.754882812 856 c 0,34,35
 750.754882812 856 750.754882812 856 760.754882812 846 c 1,36,-1
 760.754882812 468 l 1,37,38
 752.754882812 460 752.754882812 460 728.754882812 460 c 0,39,40
 702.754882812 460 702.754882812 460 696.754882812 476 c 1,41,42
 675.754882812 555 675.754882812 555 665.754882812 576.5 c 128,-1,43
 655.754882812 598 655.754882812 598 640.754882812 608 c 0,44,45
 615.754882812 624 615.754882812 624 428.754882812 624 c 0,46,47
 284.754882812 624 284.754882812 624 284.754882812 606 c 2,48,-1
 284.754882812 232 l 2,49,50
 284.754882812 116 284.754882812 116 294.754882812 84 c 0,51,52
 298.754882812 70 298.754882812 70 359.254882812 61 c 128,-1,53
 419.754882812 52 419.754882812 52 452.754882812 52 c 1,54,55
 458.754882812 44 458.754882812 44 459.254882812 23 c 128,-1,56
 459.754882812 2 459.754882812 2 452.754882812 -6 c 1,57,58
 247.754882812 4 247.754882812 4 198.754882812 4 c 128,-1,59
 149.754882812 4 149.754882812 4 74.7548828125 -1 c 128,-1,60
 -0.2451171875 -6 -0.2451171875 -6 -37.2451171875 -6 c 1,61,62
 -44.2451171875 2 -44.2451171875 2 -43.7451171875 23 c 128,-1,63
 -43.2451171875 44 -43.2451171875 44 -37.2451171875 52 c 1,64,65
 -7.2451171875 52 -7.2451171875 52 44.7548828125 61 c 128,-1,66
 96.7548828125 70 96.7548828125 70 100.754882812 84 c 0,67,68
 110.754882812 116 110.754882812 116 110.754882812 232 c 2,69,-1
 110.754882812 1086 l 2,70,71
 110.754882812 1202 110.754882812 1202 100.754882812 1234 c 0,72,73
 96.7548828125 1248 96.7548828125 1248 44.7548828125 1257 c 128,-1,74
 -7.2451171875 1266 -7.2451171875 1266 -37.2451171875 1266 c 1,75,76
 -43.2451171875 1274 -43.2451171875 1274 -43.7451171875 1295 c 128,-1,77
 -44.2451171875 1316 -44.2451171875 1316 -37.2451171875 1324 c 1,78,79
 167.754882812 1314 167.754882812 1314 198.754882812 1314 c 0,0,1
EndSplineSet
Fore
SplineSet
140 1289.47851562 m 5
 1115.29492188 1289.47851562 l 1
 1115.29492188 889.956054688 l 1
 969.831054688 889.956054688 l 1
 969.5546875 1037.08105469 l 2
 969.5546875 1081.96777344 950.713867188 1097.75976562 929.102539062 1098.86914062 c 2
 628.754882812 1098.86914062 l 1
 628.754882812 753.635742188 l 1
 764.521484375 753.913085938 l 1
 764.521484375 819.579101562 l 1
 909.983398438 819.579101562 l 1
 909.983398438 492.080078125 l 1
 764.521484375 492.080078125 l 1
 764.521484375 558.577148438 l 1
 628.754882812 558.577148438 l 1
 628.754882812 0 l 1
 245.564453125 0 l 1
 245.564453125 1099.14550781 l 1
 140 1099.14550781 l 1
 140 1289.47851562 l 5
EndSplineSet
Colour: ff0000
EndChar
StartChar: G
Encoding: 71 71 38
Width: 1428
Flags: HW
LayerCount: 2
Back
SplineSet
1045.79199219 350 m 2,0,1
 1045.79199219 466 1045.79199219 466 1035.79199219 498 c 0,2,3
 1031.79199219 512 1031.79199219 512 980.791992188 521 c 128,-1,4
 929.791992188 530 929.791992188 530 899.791992188 530 c 1,5,6
 893.791992188 538 893.791992188 538 893.291992188 559 c 128,-1,7
 892.791992188 580 892.791992188 580 899.791992188 588 c 1,8,9
 1104.79199219 578 1104.79199219 578 1133.79199219 578 c 0,10,11
 1152.79199219 578 1152.79199219 578 1357.79199219 588 c 1,12,13
 1364.79199219 580 1364.79199219 580 1364.29199219 559 c 128,-1,14
 1363.79199219 538 1363.79199219 538 1357.79199219 530 c 1,15,16
 1328.79199219 530 1328.79199219 530 1280.29199219 521 c 128,-1,17
 1231.79199219 512 1231.79199219 512 1227.79199219 498 c 0,18,19
 1217.79199219 466 1217.79199219 466 1217.79199219 350 c 2,20,-1
 1217.79199219 208 l 2,21,22
 1217.79199219 184 1217.79199219 184 1227.79199219 159.5 c 128,-1,23
 1237.79199219 135 1237.79199219 135 1237.79199219 128 c 0,24,25
 1237.79199219 119 1237.79199219 119 1230.29199219 112 c 128,-1,26
 1222.79199219 105 1222.79199219 105 1197.79199219 92 c 0,27,28
 1137.79199219 60 1137.79199219 60 1097.29199219 42.5 c 128,-1,29
 1056.79199219 25 1056.79199219 25 959.291992188 6.5 c 128,-1,30
 861.791992188 -12 861.791992188 -12 739.791992188 -12 c 0,31,32
 594.791992188 -12 594.791992188 -12 468.791992188 41 c 128,-1,33
 342.791992188 94 342.791992188 94 256.791992188 183 c 128,-1,34
 170.791992188 272 170.791992188 272 121.291992188 392 c 128,-1,35
 71.7919921875 512 71.7919921875 512 71.7919921875 644 c 0,36,37
 71.7919921875 783 71.7919921875 783 122.791992188 909.5 c 128,-1,38
 173.791992188 1036 173.791992188 1036 261.791992188 1129.5 c 128,-1,39
 349.791992188 1223 349.791992188 1223 476.791992188 1278.5 c 128,-1,40
 603.791992188 1334 603.791992188 1334 747.791992188 1334 c 0,41,42
 977.791992188 1334 977.791992188 1334 1171.79199219 1292 c 1,43,44
 1217.79199219 1016 1217.79199219 1016 1217.79199219 996 c 1,45,46
 1218.79199219 987 1218.79199219 987 1203.79199219 978.5 c 128,-1,47
 1188.79199219 970 1188.79199219 970 1173.79199219 970 c 128,-1,48
 1158.79199219 970 1158.79199219 970 1149.79199219 976 c 1,49,50
 1092.79199219 1268 1092.79199219 1268 757.791992188 1268 c 0,51,52
 615.791992188 1268 615.791992188 1268 501.791992188 1180 c 128,-1,53
 387.791992188 1092 387.791992188 1092 328.791992188 960 c 128,-1,54
 269.791992188 828 269.791992188 828 269.791992188 686 c 0,55,56
 269.791992188 591 269.791992188 591 289.791992188 500.5 c 128,-1,57
 309.791992188 410 309.791992188 410 352.291992188 329 c 128,-1,58
 394.791992188 248 394.791992188 248 455.291992188 187 c 128,-1,59
 515.791992188 126 515.791992188 126 601.791992188 90 c 128,-1,60
 687.791992188 54 687.791992188 54 789.791992188 54 c 0,61,62
 903.791992188 54 903.791992188 54 1031.79199219 118 c 0,63,64
 1045.79199219 125 1045.79199219 125 1045.79199219 148 c 2,65,-1
 1045.79199219 350 l 2,0,1
EndSplineSet
Fore
SplineSet
1288.46386719 694.1015625 m 5
 1288.1875 694.1015625 l 5
 1288.1875 545.58984375 l 5
 1150.20605469 545.58984375 l 5
 1150.20605469 245.521484375 l 5
 1087.58789062 104.213867188 924.66796875 -35.984375 723.791992188 -35.984375 c 4
 401.833007812 -35.984375 140 256.604492188 140 616.244140625 c 4
 140 1006.91601562 391.58203125 1324.71875 720.744140625 1324.71875 c 4
 883.662109375 1324.71875 974.264648438 1242.42773438 974.541992188 1242.14941406 c 6
 974.541992188 1324.71875 l 5
 1121.390625 1324.71875 l 5
 1121.390625 908.278320312 l 5
 973.7109375 908.278320312 l 5
 973.7109375 908.278320312 964.290039062 1118.57617188 767.291992188 1118.57617188 c 4
 653.415039062 1118.57617188 560.872070312 1029.91308594 560.872070312 918.530273438 c 6
 560.872070312 371.03515625 l 6
 560.872070312 259.65234375 654.522460938 169.326171875 767.291992188 169.326171875 c 4
 768.676757812 169.326171875 803.034179688 169.326171875 835.728515625 169.326171875 c 5
 835.728515625 545.58984375 l 5
 697.74609375 545.58984375 l 5
 697.74609375 694.1015625 l 5
 1288.46386719 694.1015625 l 5
EndSplineSet
Colour: ff0000
EndChar
StartChar: G
Encoding: 71 71 38
Width: 1388
Flags: HW
LayerCount: 2
Back
SplineSet
1050 350 m 2,0,1
 1050 466 1050 466 1040 498 c 0,2,3
 1036 512 1036 512 985 521 c 128,-1,4
 934 530 934 530 904 530 c 1,5,6
 898 538 898 538 897.5 559 c 128,-1,7
 897 580 897 580 904 588 c 1,8,9
 1109 578 1109 578 1138 578 c 0,10,11
 1157 578 1157 578 1362 588 c 1,12,13
 1369 580 1369 580 1368.5 559 c 128,-1,14
 1368 538 1368 538 1362 530 c 1,15,16
 1333 530 1333 530 1284.5 521 c 128,-1,17
 1236 512 1236 512 1232 498 c 0,18,19
 1222 466 1222 466 1222 350 c 2,20,-1
 1222 208 l 2,21,22
 1222 184 1222 184 1232 159.5 c 128,-1,23
 1242 135 1242 135 1242 128 c 0,24,25
 1242 119 1242 119 1234.5 112 c 128,-1,26
 1227 105 1227 105 1202 92 c 0,27,28
 1142 60 1142 60 1101.5 42.5 c 128,-1,29
 1061 25 1061 25 963.5 6.5 c 128,-1,30
 866 -12 866 -12 744 -12 c 0,31,32
 599 -12 599 -12 473 41 c 128,-1,33
 347 94 347 94 261 183 c 128,-1,34
 175 272 175 272 125.5 392 c 128,-1,35
 76 512 76 512 76 644 c 0,36,37
 76 783 76 783 127 909.5 c 128,-1,38
 178 1036 178 1036 266 1129.5 c 128,-1,39
 354 1223 354 1223 481 1278.5 c 128,-1,40
 608 1334 608 1334 752 1334 c 0,41,42
 982 1334 982 1334 1176 1292 c 1,43,44
 1222 1016 1222 1016 1222 996 c 1,45,46
 1223 987 1223 987 1208 978.5 c 128,-1,47
 1193 970 1193 970 1178 970 c 128,-1,48
 1163 970 1163 970 1154 976 c 1,49,50
 1097 1268 1097 1268 762 1268 c 0,51,52
 620 1268 620 1268 506 1180 c 128,-1,53
 392 1092 392 1092 333 960 c 128,-1,54
 274 828 274 828 274 686 c 0,55,56
 274 591 274 591 294 500.5 c 128,-1,57
 314 410 314 410 356.5 329 c 128,-1,58
 399 248 399 248 459.5 187 c 128,-1,59
 520 126 520 126 606 90 c 128,-1,60
 692 54 692 54 794 54 c 0,61,62
 908 54 908 54 1036 118 c 0,63,64
 1050 125 1050 125 1050 148 c 2,65,-1
 1050 350 l 2,0,1
EndSplineSet
Fore
SplineSet
1268.46386719 694.1015625 m 5
 1268.1875 694.1015625 l 5
 1268.1875 545.58984375 l 5
 1130.20605469 545.58984375 l 5
 1130.20605469 245.521484375 l 5
 1067.58789062 104.213867188 904.66796875 -35.984375 703.791992188 -35.984375 c 4
 381.833007812 -35.984375 120 256.604492188 120 616.244140625 c 4
 120 1006.91601562 371.58203125 1324.71875 700.744140625 1324.71875 c 4
 863.662109375 1324.71875 954.264648438 1242.42773438 954.541992188 1242.14941406 c 6
 954.541992188 1324.71875 l 5
 1101.390625 1324.71875 l 5
 1101.390625 908.278320312 l 5
 953.7109375 908.278320312 l 5
 953.7109375 908.278320312 944.290039062 1118.57617188 747.291992188 1118.57617188 c 4
 633.415039062 1118.57617188 540.872070312 1029.91308594 540.872070312 918.530273438 c 6
 540.872070312 371.03515625 l 6
 540.872070312 259.65234375 634.522460938 169.326171875 747.291992188 169.326171875 c 4
 748.676757812 169.326171875 783.034179688 169.326171875 815.728515625 169.326171875 c 5
 815.728515625 545.58984375 l 5
 677.74609375 545.58984375 l 5
 677.74609375 694.1015625 l 5
 1268.46386719 694.1015625 l 5
EndSplineSet
Colour: ffff00
EndChar
StartChar: H
Encoding: 72 72 41
Width: 1452
Flags: HW
LayerCount: 2
Back
SplineSet
327 1314 m 0,0,1
 356 1314 356 1314 561 1324 c 1,2,3
 568 1316 568 1316 567.5 1292 c 128,-1,4
 567 1268 567 1268 561 1260 c 1,5,6
 531 1260 531 1260 479 1251 c 128,-1,7
 427 1242 427 1242 423 1228 c 0,8,9
 413 1196 413 1196 413 1080 c 2
 413 730 l 1
 417 724 l 1,12,13
 711 718 711 718 731 718 c 0,14,15
 767 718 767 718 1037 724 c 1,16,17
 1041 728 1041 728 1041 732 c 2
 1041 1080 l 2,19,20
 1041 1196 1041 1196 1031 1228 c 0,21,22
 1027 1242 1027 1242 975 1251 c 128,-1,23
 923 1260 923 1260 893 1260 c 1,24,25
 887 1268 887 1268 886.5 1292 c 128,-1,26
 886 1316 886 1316 893 1324 c 1,27,28
 1098 1314 1098 1314 1129 1314 c 0,29,30
 1158 1314 1158 1314 1363 1324 c 1,31,32
 1370 1316 1370 1316 1369.5 1292 c 128,-1,33
 1369 1268 1369 1268 1363 1260 c 1,34,35
 1333 1260 1333 1260 1281 1251 c 128,-1,36
 1229 1242 1229 1242 1225 1228 c 0,37,38
 1215 1196 1215 1196 1215 1080 c 2
 1215 238 l 2,40,41
 1215 122 1215 122 1225 90 c 0,42,43
 1229 76 1229 76 1281 67 c 128,-1,44
 1333 58 1333 58 1363 58 c 1,45,46
 1369 50 1369 50 1369.5 26 c 128,-1,47
 1370 2 1370 2 1363 -6 c 1,48,49
 1158 4 1158 4 1129 4 c 0,50,51
 1098 4 1098 4 893 -6 c 1,52,53
 886 2 886 2 886.5 26 c 128,-1,54
 887 50 887 50 893 58 c 1,55,56
 923 58 923 58 975 67 c 128,-1,57
 1027 76 1027 76 1031 90 c 0,58,59
 1041 122 1041 122 1041 238 c 2
 1041 634 l 1
 1037 642 l 1,62,63
 1013 643 1013 643 901.5 646.5 c 128,-1,64
 790 650 790 650 731 650 c 0,65,66
 439 650 439 650 415 638 c 1
 413 634 l 1
 413 238 l 2,69,70
 413 122 413 122 423 90 c 0,71,72
 427 76 427 76 479 67 c 128,-1,73
 531 58 531 58 561 58 c 1,74,75
 567 50 567 50 567.5 26 c 128,-1,76
 568 2 568 2 561 -6 c 1,77,78
 356 4 356 4 327 4 c 0,79,80
 296 4 296 4 91 -6 c 1,81,82
 84 2 84 2 84.5 26 c 128,-1,83
 85 50 85 50 91 58 c 1,84,85
 121 58 121 58 173 67 c 128,-1,86
 225 76 225 76 229 90 c 0,87,88
 239 122 239 122 239 238 c 2
 239 1080 l 2,90,91
 239 1196 239 1196 229 1228 c 0,92,93
 225 1242 225 1242 173 1251 c 128,-1,94
 121 1260 121 1260 91 1260 c 1,95,96
 85 1268 85 1268 84.5 1292 c 128,-1,97
 84 1316 84 1316 91 1324 c 1,98,99
 296 1314 296 1314 327 1314 c 0,0,1
EndSplineSet
Fore
SplineSet
323.517661159 1331.09960499 m 0
 309.35413131 1334.54227644 221.979314577 1330.14924602 89.1577079624 1340.32466728 c 0
 72.0474259364 1331.85497299 67.2736921451 1305.01287003 67.2803074542 1286.88915137 c 0
 74.2863512648 1267.56725044 76.1360428977 1255.80669148 80.8733128154 1243.45632603 c 0
 112.769919689 1247.00862907 136.94936764 1240.40219312 171.126784367 1240.75220554 c 0
 204.341271157 1228.13944259 215.981125201 1232.89820894 210.55209407 1220.44957445 c 0
 221.607286705 1197.10865787 219.896125586 1154.856143 225.252486499 1083.96849768 c 0
 224.822430024 244.641501514 l 0
 222.607615284 160.232309747 222.880527337 116.542287259 208.90807151 89.3786295691 c 0
 221.255883751 91.9926319828 209.223539452 91.7824130316 169.319926309 82.2817792226 c 0
 136.661963674 76.7786711609 106.809905222 75.9533632229 87.0721445343 72.0731059445 c 0
 77.590811669 52.3893904294 70.4791094474 37.7739621618 76.2044650034 21.8116337934 c 0
 62.4266723481 6.87461627494 69.8858184698 -4.84687204625 87.1372964076 -17.8418673591 c 0
 231.808201376 -13.9854957744 311.233295143 -16.7820671343 322.690634739 -8.3407370203 c 0
 345.2531049 -9.83840381741 429.635086773 -14.7710313701 567.873276516 -23.5360841028 c 0
 582.867781184 -6.25796754504 584.623828867 14.2294373302 578.271459701 29.7001229344 c 0
 582.266720492 37.9860904839 574.742314229 60.725747324 562.995050145 67.7804518681 c 0
 538.708774964 74.7038903825 517.193958293 74.3671725655 486.458641006 87.5692076584 c 0
 441.612182024 85.7729898465 441.698629285 97.4159448913 434.79580853 97.9973323022 c 0
 430.596363666 111.461073777 422.106013042 160.766971118 422.306113164 236.296530793 c 0
 427.197932523 634.677515264 l 0
 432.510439315 629.76245167 l 0
 434.671599992 633.814255162 540.803774249 639.361990076 727.119001171 633.721987769 c 0
 764.448390667 628.836084112 821.445298229 637.971932088 903.651163734 638.293212641 c 0
 980.855539015 634.87521571 1021.27279222 628.529959002 1030.07021429 627.044452962 c 0
 1021.94947927 634.8044444 l 0
 1028.22852295 235.767916123 l 0
 1031.00089736 162.223394141 1026.98279466 116.600963674 1018.70318671 99.7916455073 c 0
 1012.9605958 87.0091930574 1000.7418101 87.4540742033 973.971886359 87.8870750191 c 0
 937.570229025 71.7981917383 910.545661818 76.7911574463 886.13286902 74.6253507953 c 0
 877.083175735 59.7836971462 866.290691467 43.8622306981 872.639066528 27.1387648848 c 0
 871.375391147 9.51275771844 878.213183816 -7.1444719642 892.553688571 -26.7460214746 c 0
 1031.49017869 -12.8460255874 1110.02063728 -13.3104277086 1125.82631947 -15.579640287 c 0
 1148.51133822 -16.6324000102 1226.41812997 -16.1325397662 1370.69647299 -15.3054497567 c 0
 1377.51889979 -0.919869375871 1383.0298098 11.5271190819 1388.6839475 30.8175672943 c 0
 1388.98415022 37.9421231332 1378.17038132 56.4718739852 1371.91383969 72.0116073328 c 0
 1350.45339566 78.0472515493 1314.89634027 73.4537862462 1283.40903169 78.021572386 c 0
 1245.18303234 82.6730586355 1233.61423819 90.4261759246 1234.01594317 89.0047168587 c 0
 1239.55433616 120.19599996 1225.0274046 155.499587689 1234.93161635 244.467061109 c 0
 1235.59025419 1081.23969535 l 0
 1236.72124288 1162.63800026 1239.10284928 1205.17525678 1238.77470286 1225.2092923 c 0
 1238.64621069 1232.76589039 1256.80315429 1234.18209965 1283.12963527 1237.51415198 c 0
 1321.84458873 1244.35951801 1343.32058115 1245.25012551 1366.70200548 1251.94787046 c 0
 1376.19374173 1259.61655023 1388.94376239 1277.68165191 1385.46136014 1298.21588049 c 0
 1389.71189534 1314.01664174 1381.23437706 1323.56426007 1373.56981803 1335.87199373 c 0
 1219.87106092 1338.21344381 1141.48800605 1325.40407311 1135.07102078 1335.91319907 c 0
 1108.50849465 1334.02019054 1023.55033682 1338.95661379 886.868394357 1343.08356254 c 0
 871.343765242 1324.56877277 874.608724441 1303.61934441 867.943890419 1291.15277197 c 0
 874.202816515 1274.10023821 877.210235292 1262.71490904 892.336526221 1245.93082969 c 0
 916.151973047 1242.18173857 937.387191262 1240.91155775 966.321057087 1234.24592158 c 0
 1004.63832161 1226.57361974 1017.25034494 1231.71895037 1017.75426756 1216.95079549 c 0
 1015.93873933 1205.38641753 1024.16851941 1153.78282474 1019.14675117 1075.75138684 c 0
 1031.29846338 728.688722036 l 0
 1028.72879784 734.574367372 1026.72330118 742.100928252 1025.44395487 741.259432386 c 0
 853.521567856 728.751190496 752.153261758 726.473025813 729.930631075 735.055437912 c 0
 716.731950533 732.321227538 608.714082497 740.996309614 424.59629305 736.046882597 c 0
 432.400930647 738.527329833 l 0
 431.253663205 1075.15375181 l 0
 421.26775917 1159.46345892 430.726010824 1208.53053874 441.314039942 1221.50931405 c 0
 435.058179173 1222.10666525 451.735666415 1233.89562708 476.660094806 1229.69447813 c 0
 512.89424477 1248.88520534 547.455365992 1248.564321 574.628731463 1250.10801626 c 0
 580.773540351 1259.87605017 588.64229775 1270.15193914 586.300619676 1286.2436323 c 0
 580.787632753 1307.36015808 579.489079052 1324.26962053 560.869656103 1331.74121835 c 0
 417.183892274 1331.91174189 350.12678567 1335.73768567 323.517661159 1331.09960499 c 0
321.924258056 1295.65696265 m 0
 342.060863231 1294.70065424 425.612476003 1307.68782631 549.52050601 1303.44984139 c 0
 550.887175961 1309.27402343 555.028420009 1304.39489675 548.479731911 1291.56489348 c 0
 557.158828678 1274.46895853 558.290977565 1272.56561791 549.454563339 1272.32304482 c 0
 539.25042259 1272.54196033 508.548669536 1275.94105488 478.049442688 1267.92677464 c 0
 447.07800975 1265.61327882 411.094111215 1251.7193302 403.329615391 1229.31003801 c 0
 404.178411277 1215.56048977 402.021704004 1160.6338192 400.924776331 1074.65728407 c 0
 393.923464825 730.11713396 l 0
 412.776036331 714.883956441 l 0
 619.52456903 705.603914733 724.038710275 709.12722224 736.606568981 696.807883038 c 0
 750.074173485 702.704103797 854.122439995 699.708908025 1042.07825939 713.798364999 c 0
 1050.94957399 722.807754476 1050.92993519 726.757751714 1055.10485743 727.248068719 c 0
 1062.90985842 1078.59734902 l 0
 1051.7777533 1151.08826038 1053.54263207 1202.80354399 1050.37648636 1227.60925159 c 0
 1036.57171063 1250.71213696 1009.03124051 1254.82366716 972.834315919 1263.49462406 c 0
 940.486417691 1276.01371517 914.121869367 1281.76290812 900.398439633 1268.19975989 c 0
 899.938511036 1272.01976274 899.594287673 1279.66182078 903.111835384 1289.05466375 c 0
 904.443495076 1305.17114913 896.849918607 1311.35355734 901.081232104 1310.43855854 c 0
 1032.91147039 1298.04824619 1105.9195034 1293.85719106 1130.03224184 1294.18395545 c 0
 1149.61046564 1296.36175246 1230.56906382 1305.74018679 1358.93168123 1316.77512752 c 0
 1358.53773181 1311.31164704 1350.67295298 1301.09653987 1355.9400902 1296.03209146 c 0
 1354.43536535 1271.24695591 1346.35682392 1265.27332807 1355.75479597 1269.43037159 c 0
 1338.53567333 1268.47457637 1311.60219699 1271.08688019 1279.33356891 1265.4962583 c 0
 1236.22800073 1258.10928255 1218.5063137 1251.90556705 1212.73978327 1232.18206435 c 0
 1204.59583751 1203.99522403 1197.92330392 1159.29443381 1202.96635792 1085.4878286 c 0
 1201.46035298 231.437988348 l 0
 1203.42957595 166.941904836 1197.6337638 114.66006397 1206.75955191 92.2653955502 c 0
 1212.26748828 67.2806359368 1236.90412043 56.2910038741 1283.99646041 48.370632323 c 0
 1309.33613897 42.4956705578 1348.59813929 46.4130557112 1360.43019073 44.7231809758 c 0
 1348.53265761 43.4841492841 1356.8577081 43.2575733569 1352.8132165 26.1651114462 c 0
 1361.04560625 10.1058620365 1349.69819226 2.12846111208 1352.17029739 2.8421981696 c 0
 1231.20142296 15.6080368041 1152.85074442 15.3698201157 1128.27243456 24.5338420094 c 0
 1102.22288672 14.5637627772 1024.35778486 14.2162651726 896.50127504 12.0769771778 c 0
 902.837691774 5.08240676735 896.967978891 9.45785901126 904.883739915 31.2105364612 c 0
 899.671225006 33.7505356074 903.871096338 45.8247546037 896.078365815 49.7147108297 c 0
 919.596781053 47.2118739919 948.706128215 50.6188054221 983.217548575 54.1865913465 c 0
 1020.11465151 52.1451739451 1044.90035561 69.1370245979 1044.07688351 91.1954849007 c 0
 1051.25851446 114.558620348 1053.48636346 167.060465202 1056.44318988 242.488168077 c 0
 1054.80357162 643.386922159 l 0
 1045.31561898 655.868156031 l 0
 1020.53392454 661.820512817 971.538407151 655.400914971 904.158153902 659.094832566 c 0
 825.171799778 659.285937021 776.561577211 659.339656666 735.145032367 661.786336832 c 0
 537.551770305 659.687686264 433.2293008 655.793122155 399.875870341 649.290896016 c 0
 394.01502255 642.780003272 l 0
 395.027660016 232.62736166 l 0
 392.890553697 157.955245142 408.259332514 112.647930084 408.581644939 81.748366538 c 0
 409.842889738 67.027426251 439.615130064 52.5504990359 477.762503728 54.1480869755 c 0
 511.787660416 52.878614404 543.426182573 41.2953518636 560.772861156 44.3759958409 c 0
 551.386417523 45.3696013526 546.494243147 37.5449485656 556.055241713 27.4639586245 c 0
 553.075387192 4.38988447317 551.104538595 11.9935975608 551.515702762 9.89408199908 c 0
 425.348128765 13.5469683979 353.641665173 22.472310789 323.464246917 15.464542544 c 0
 300.184858879 25.5966926669 223.841486874 13.5984644688 96.3374909943 2.13404590431 c 0
 105.65956254 6.09233148429 102.227038156 16.3226463626 103.755778527 24.7768174226 c 0
 100.576935521 36.2952457772 98.1073331966 42.8278558633 93.2864267659 42.8657118736 c 0
 110.329529853 39.2090738974 144.399081119 47.218724855 169.838230439 57.7240888248 c 0
 205.330276042 62.7255201205 231.146528579 77.3890413411 243.329352414 83.2145086415 c 0
 256.10400402 114.500370242 249.951383114 162.843266143 250.645734841 232.159404641 c 0
 254.893338748 1078.20914804 l 0
 256.803423638 1151.90062851 248.439136612 1210.05120137 236.694480978 1227.8950873 c 0
 230.953618406 1250.9183563 218.092818249 1253.27183377 173.152141804 1270.29309696 c 0
 135.129363387 1276.01840215 113.009808612 1269.65917931 103.68064906 1272.92077451 c 0
 97.7386253467 1277.80173646 103.197832058 1272.77977195 102.891663561 1296.00298176 c 0
 104.223218056 1301.91748755 96.0619347835 1312.62183471 99.0753343947 1308.5434709 c 0
 232.615016047 1302.22642563 302.790582173 1304.46491053 321.924258056 1295.65696265 c 0
EndSplineSet
Colour: ff0000
EndChar
StartChar: I
Encoding: 73 73 40
Width: 834
Flags: W
HStem: 0 184.53<120 225.563 609.032 714.873> 1099.15 190.332<120 225.563 609.032 714.873>
VStem: 225.563 383.469<184.53 1099.15>
LayerCount: 2
Back
SplineSet
307 1314 m 0,0,1
 336 1314 336 1314 541 1324 c 1,2,3
 548 1316 548 1316 547.5 1295 c 128,-1,4
 547 1274 547 1274 541 1266 c 1,5,6
 511 1266 511 1266 459 1257 c 128,-1,7
 407 1248 407 1248 403 1234 c 0,8,9
 393 1202 393 1202 393 1086 c 2,10,-1
 393 232 l 2,11,12
 393 116 393 116 403 84 c 0,13,14
 407 70 407 70 459 61 c 128,-1,15
 511 52 511 52 541 52 c 1,16,17
 547 44 547 44 547.5 23 c 128,-1,18
 548 2 548 2 541 -6 c 1,19,20
 336 4 336 4 307 4 c 0,21,22
 276 4 276 4 71 -6 c 1,23,24
 64 2 64 2 64.5 23 c 128,-1,25
 65 44 65 44 71 52 c 1,26,27
 101 52 101 52 153 61 c 128,-1,28
 205 70 205 70 209 84 c 0,29,30
 219 116 219 116 219 232 c 2,31,-1
 219 1086 l 2,32,33
 219 1202 219 1202 209 1234 c 0,34,35
 205 1248 205 1248 153 1257 c 128,-1,36
 101 1266 101 1266 71 1266 c 1,37,38
 65 1274 65 1274 64.5 1295 c 128,-1,39
 64 1316 64 1316 71 1324 c 1,40,41
 276 1314 276 1314 307 1314 c 0,0,1
EndSplineSet
Fore
SplineSet
714.873046875 1099.14648438 m 5
 609.032226562 1099.14648438 l 5
 609.032226562 184.530273438 l 5
 714.873046875 184.530273438 l 5
 714.873046875 0 l 5
 120 0 l 5
 120 184.530273438 l 5
 225.563476562 184.530273438 l 5
 225.563476562 1099.14648438 l 5
 120 1099.14648438 l 5
 120 1289.47851562 l 5
 714.873046875 1289.47851562 l 5
 714.873046875 1099.14648438 l 5
EndSplineSet
Colour: ffff00
EndChar
StartChar: J
Encoding: 74 74 41
Width: 1130
Flags: HW
LayerCount: 2
Back
SplineSet
296 1314 m 0,0,1
 325 1314 325 1314 530 1324 c 1,2,3
 537 1316 537 1316 536.5 1295 c 128,-1,4
 536 1274 536 1274 530 1266 c 1,5,6
 500 1266 500 1266 448 1257 c 128,-1,7
 396 1248 396 1248 392 1234 c 0,8,9
 382 1202 382 1202 382 1086 c 2,10,-1
 382 242 l 2,11,12
 382 59 382 59 347.5 -77 c 128,-1,13
 313 -213 313 -213 249 -294.5 c 128,-1,14
 185 -376 185 -376 101.5 -415 c 128,-1,15
 18 -454 18 -454 -86 -454 c 0,16,17
 -110 -454 -110 -454 -152.5 -442.5 c 128,-1,18
 -195 -431 -195 -431 -212 -418 c 1,19,20
 -228 -402 -228 -402 -228 -372 c 0,21,22
 -228 -323 -228 -323 -203 -291.5 c 128,-1,23
 -178 -260 -178 -260 -132 -260 c 0,24,25
 -125 -260 -125 -260 -117.5 -261.5 c 128,-1,26
 -110 -263 -110 -263 -102 -267.5 c 128,-1,27
 -94 -272 -94 -272 -88.5 -275 c 128,-1,28
 -83 -278 -83 -278 -74 -285 c 128,-1,29
 -65 -292 -65 -292 -61.5 -295 c 128,-1,30
 -58 -298 -58 -298 -48 -307 c 128,-1,31
 -38 -316 -38 -316 -36 -318 c 0,32,33
 10 -360 10 -360 54 -360 c 0,34,35
 88 -360 88 -360 114 -334.5 c 128,-1,36
 140 -309 140 -309 162 -246.5 c 128,-1,37
 184 -184 184 -184 196 -63.5 c 128,-1,38
 208 57 208 57 208 232 c 2,39,-1
 208 1086 l 2,40,41
 208 1202 208 1202 198 1234 c 0,42,43
 194 1248 194 1248 142 1257 c 128,-1,44
 90 1266 90 1266 60 1266 c 1,45,46
 54 1274 54 1274 53.5 1295 c 128,-1,47
 53 1316 53 1316 60 1324 c 1,48,49
 265 1314 265 1314 296 1314 c 0,0,1
EndSplineSet
Fore
SplineSet
521.477539062 1289.47851562 m 5
 1010.51074219 1289.47851562 l 5
 1010.51074219 397.912109375 l 6
 1010.51074219 158.796875 907.994140625 -35.984375 523.694335938 -35.984375 c 4
 341.935546875 -35.984375 193.978515625 35.5009765625 120 171.266601562 c 5
 230.275390625 283.479492188 l 5
 271.55859375 192.045898438 371.858398438 157.689453125 448.608398438 157.689453125 c 4
 547.245117188 157.689453125 627.319335938 221.970703125 627.319335938 375.74609375 c 6
 627.319335938 1100.56640625 l 5
 521.477539062 1100.56640625 l 5
 521.477539062 1289.47851562 l 5
EndSplineSet
Colour: ffff00
EndChar
StartChar: K
Encoding: 75 75 42
Width: 1495
Flags: HW
LayerCount: 2
Back
SplineSet
307 1314 m 0,0,1
 336 1314 336 1314 541 1324 c 1,2,3
 548 1316 548 1316 547.5 1292 c 128,-1,4
 547 1268 547 1268 541 1260 c 1,5,6
 511 1260 511 1260 459 1251 c 128,-1,7
 407 1242 407 1242 403 1228 c 0,8,9
 391 1190 391 1190 393 1080 c 1,10,-1
 393 682 l 1,11,12
 445 714 445 714 619 884 c 1,13,14
 735 999 735 999 781 1048 c 128,-1,15
 827 1097 827 1097 873 1156 c 0,16,17
 901 1193 901 1193 901 1218 c 0,18,19
 901 1226 901 1226 898 1232.5 c 128,-1,20
 895 1239 895 1239 889 1243.5 c 128,-1,21
 883 1248 883 1248 876 1251.5 c 128,-1,22
 869 1255 869 1255 860 1257 c 128,-1,23
 851 1259 851 1259 843.5 1260 c 128,-1,24
 836 1261 836 1261 826 1261.5 c 128,-1,25
 816 1262 816 1262 810.5 1262 c 128,-1,26
 805 1262 805 1262 797.5 1262 c 128,-1,27
 790 1262 790 1262 789 1262 c 0,28,29
 784 1271 784 1271 784 1290.5 c 128,-1,30
 784 1310 784 1310 789 1324 c 1,31,32
 812 1323 812 1323 860.5 1319.5 c 128,-1,33
 909 1316 909 1316 947.5 1314 c 128,-1,34
 986 1312 986 1312 1019 1312 c 0,35,36
 1071 1312 1071 1312 1144 1317.5 c 128,-1,37
 1217 1323 1217 1323 1235 1324 c 1,38,39
 1239 1315 1239 1315 1238.5 1288.5 c 128,-1,40
 1238 1262 1238 1262 1231 1262 c 2,41,-1
 1215 1261 l 2,42,43
 1199 1260 1199 1260 1186 1258.5 c 128,-1,44
 1173 1257 1173 1257 1151 1252 c 128,-1,45
 1129 1247 1129 1247 1110.5 1239.5 c 128,-1,46
 1092 1232 1092 1232 1070.5 1219 c 128,-1,47
 1049 1206 1049 1206 1033 1188 c 0,48,49
 972 1122 972 1122 909 1057.5 c 128,-1,50
 846 993 846 993 806 954 c 128,-1,51
 766 915 766 915 688.5 841 c 128,-1,52
 611 767 611 767 570 728 c 1,53,54
 565 720 565 720 570 712 c 1,55,56
 583 697 583 697 626 646.5 c 128,-1,57
 669 596 669 596 683 580 c 128,-1,58
 697 564 697 564 735.5 519.5 c 128,-1,59
 774 475 774 475 790 456.5 c 128,-1,60
 806 438 806 438 840 399.5 c 128,-1,61
 874 361 874 361 892.5 341 c 128,-1,62
 911 321 911 321 940 289.5 c 128,-1,63
 969 258 969 258 990 236.5 c 128,-1,64
 1011 215 1011 215 1035.5 190.5 c 128,-1,65
 1060 166 1060 166 1083 144 c 0,66,67
 1126 104 1126 104 1175.5 81 c 128,-1,68
 1225 58 1225 58 1301 52 c 1,69,70
 1307 41 1307 41 1304.5 20.5 c 128,-1,71
 1302 0 1302 0 1299 -6 c 1,72,73
 1078 -6 1078 -6 1015 16 c 0,74,75
 937 44 937 44 879 102 c 0,76,77
 824 156 824 156 429 608 c 0,78,79
 425 614 425 614 411 614 c 0,80,81
 401 614 401 614 393 610 c 1,82,-1
 393 238 l 2,83,84
 393 122 393 122 403 90 c 0,85,86
 407 76 407 76 459 67 c 128,-1,87
 511 58 511 58 541 58 c 1,88,89
 547 50 547 50 547.5 26 c 128,-1,90
 548 2 548 2 541 -6 c 1,91,92
 336 4 336 4 307 4 c 0,93,94
 276 4 276 4 71 -6 c 1,95,96
 64 2 64 2 64.5 26 c 128,-1,97
 65 50 65 50 71 58 c 1,98,99
 101 58 101 58 153 67 c 128,-1,100
 205 76 205 76 209 90 c 0,101,102
 219 122 219 122 219 238 c 2,103,-1
 219 1080 l 2,104,105
 219 1196 219 1196 209 1228 c 0,106,107
 205 1242 205 1242 153 1251 c 128,-1,108
 101 1260 101 1260 71 1260 c 1,109,110
 65 1268 65 1268 64.5 1292 c 128,-1,111
 64 1316 64 1316 71 1324 c 1,112,113
 276 1314 276 1314 307 1314 c 0,0,1
EndSplineSet
Fore
SplineSet
1375.34082031 1289.47851562 m 1
 1003.02929688 874.994140625 l 1
 1295.34082031 0 l 1
 915.474609375 0 l 1
 722.631835938 563.288085938 l 1
 609.032226562 436.666015625 l 1
 609.032226562 0 l 1
 225.840820312 0 l 1
 225.840820312 1099.14648438 l 1
 120 1099.14648438 l 1
 120 1289.47851562 l 1
 609.032226562 1289.20117188 l 1
 609.032226562 722.604492188 l 1
 1119.34082031 1289.47851562 l 1
 1375.34082031 1289.47851562 l 1
EndSplineSet
Colour: ffff00
EndChar
StartChar: L
Encoding: 76 76 43
Width: 1308
Flags: HW
LayerCount: 2
Back
SplineSet
515.768554688 232 m 2,0,1
 515.768554688 98 515.768554688 98 527.768554688 88 c 0,2,3
 545.768554688 74 545.768554688 74 572.268554688 71 c 128,-1,4
 598.768554688 68 598.768554688 68 669.768554688 68 c 2,5,-1
 783.768554688 68 l 2,6,7
 846.768554688 68 846.768554688 68 912.768554688 81.5 c 128,-1,8
 978.768554688 95 978.768554688 95 1017.76855469 122 c 0,9,10
 1099.76855469 178 1099.76855469 178 1143.76855469 324 c 0,11,12
 1146.76855469 336 1146.76855469 336 1171.76855469 336 c 0,13,14
 1209.76855469 336 1209.76855469 336 1221.76855469 324 c 1,15,16
 1212.76855469 298 1212.76855469 298 1191.76855469 241 c 128,-1,17
 1170.76855469 184 1170.76855469 184 1158.26855469 148.5 c 128,-1,18
 1145.76855469 113 1145.76855469 113 1132.26855469 68 c 128,-1,19
 1118.76855469 23 1118.76855469 23 1113.76855469 -8 c 1,20,21
 1010.76855469 -8 1010.76855469 -8 790.768554688 -4 c 128,-1,22
 570.768554688 0 570.768554688 0 431.768554688 0 c 0,23,24
 382.768554688 0 382.768554688 0 306.768554688 -3 c 128,-1,25
 230.768554688 -6 230.768554688 -6 193.768554688 -6 c 1,26,27
 186.768554688 2 186.768554688 2 187.268554688 23 c 128,-1,28
 187.768554688 44 187.768554688 44 193.768554688 52 c 1,29,30
 223.768554688 52 223.768554688 52 275.768554688 61 c 128,-1,31
 327.768554688 70 327.768554688 70 331.768554688 84 c 0,32,33
 341.768554688 116 341.768554688 116 341.768554688 232 c 2,34,-1
 341.768554688 1086 l 2,35,36
 341.768554688 1202 341.768554688 1202 331.768554688 1234 c 0,37,38
 327.768554688 1248 327.768554688 1248 275.768554688 1257 c 128,-1,39
 223.768554688 1266 223.768554688 1266 193.768554688 1266 c 1,40,41
 187.768554688 1274 187.768554688 1274 187.268554688 1295 c 128,-1,42
 186.768554688 1316 186.768554688 1316 193.768554688 1324 c 1,43,44
 398.768554688 1314 398.768554688 1314 429.768554688 1314 c 0,45,46
 458.768554688 1314 458.768554688 1314 663.768554688 1324 c 1,47,48
 670.768554688 1316 670.768554688 1316 670.268554688 1295 c 128,-1,49
 669.768554688 1274 669.768554688 1274 663.768554688 1266 c 1,50,51
 633.768554688 1266 633.768554688 1266 581.768554688 1257 c 128,-1,52
 529.768554688 1248 529.768554688 1248 525.768554688 1234 c 0,53,54
 513.768554688 1196 513.768554688 1196 515.768554688 1086 c 1,55,-1
 515.768554688 232 l 2,0,1
EndSplineSet
Fore
SplineSet
1023.30664062 393.165039062 m 1
 1023.30664062 393.442382812 l 1
 1168.76855469 393.442382812 l 1
 1168.76855469 0 l 1
 245.563476562 0 l 1
 245.563476562 1098.86914062 l 1
 140 1098.86914062 l 1
 140 1289.47851562 l 1
 628.754882812 1289.47851562 l 1
 628.754882812 183.975585938 l 1
 974.541992188 183.975585938 l 2
 1009.45214844 187.854492188 1023.02929688 205.033203125 1023.02929688 224.982421875 c 2
 1023.30664062 393.165039062 l 1
EndSplineSet
Colour: ff0000
EndChar
StartChar: M
Encoding: 77 77 44
Width: 1704
Flags: HW
LayerCount: 2
Back
SplineSet
305 1314 m 0,0,1
 357 1314 357 1314 467 1324 c 1,2,3
 484 1270 484 1270 557.5 1094 c 128,-1,4
 631 918 631 918 733 675.5 c 128,-1,5
 835 433 835 433 891 292 c 0,6,7
 893 288 893 288 899 288 c 0,8,9
 906 288 906 288 909 296 c 0,10,11
 1201 1049 1201 1049 1215 1084 c 1,12,-1
 1303 1324 l 1,13,14
 1431 1316 1431 1316 1461 1316 c 0,15,16
 1585 1316 1585 1316 1685 1324 c 1,17,-1
 1691 1266 l 1,18,19
 1663 1266 1663 1266 1609.5 1254.5 c 128,-1,20
 1556 1243 1556 1243 1549 1230 c 0,21,22
 1539 1208 1539 1208 1539 1154 c 1,23,24
 1541 1093 1541 1093 1544.5 938.5 c 128,-1,25
 1548 784 1548 784 1552.5 576.5 c 128,-1,26
 1557 369 1557 369 1559 280 c 0,27,28
 1563 140 1563 140 1583 86 c 0,29,30
 1589 68 1589 68 1640.5 60 c 128,-1,31
 1692 52 1692 52 1723 52 c 1,32,33
 1730 40 1730 40 1730 21 c 128,-1,34
 1730 2 1730 2 1727 -6 c 1,35,36
 1527 4 1527 4 1489 4 c 0,37,38
 1448 4 1448 4 1411 2.5 c 128,-1,39
 1374 1 1374 1 1327 -2 c 128,-1,40
 1280 -5 1280 -5 1249 -6 c 1,41,42
 1245 -2 1245 -2 1244.5 18.5 c 128,-1,43
 1244 39 1244 39 1249 52 c 1,44,45
 1273 52 1273 52 1318 58.5 c 128,-1,46
 1363 65 1363 65 1379 74 c 0,47,48
 1397 84 1397 84 1397 158 c 0,49,50
 1397 172 1397 172 1395 215.5 c 128,-1,51
 1393 259 1393 259 1393 274 c 0,52,53
 1376 890 1376 890 1367 1130 c 0,54,55
 1367 1141 1367 1141 1362.5 1155.5 c 128,-1,56
 1358 1170 1358 1170 1349 1170 c 0,57,58
 1345 1170 1345 1170 1339 1156 c 0,59,60
 1293 1042 1293 1042 917 98 c 1,61,62
 907 76 907 76 881 37.5 c 128,-1,63
 855 -1 855 -1 841 -4 c 0,64,65
 838 -5 838 -5 823 0 c 1,66,-1
 335 1168 l 1,67,68
 331 976 331 976 324.5 725.5 c 128,-1,69
 318 475 318 475 313.5 314.5 c 128,-1,70
 309 154 309 154 309 150 c 0,71,72
 309 109 309 109 317 88 c 0,73,74
 325 69 325 69 383 60.5 c 128,-1,75
 441 52 441 52 475 52 c 1,76,77
 482 44 482 44 482 23 c 128,-1,78
 482 2 482 2 479 -6 c 1,79,80
 452 -5 452 -5 412 -2 c 128,-1,81
 372 1 372 1 339 2.5 c 128,-1,82
 306 4 306 4 267 4 c 0,83,84
 226 4 226 4 190.5 2.5 c 128,-1,85
 155 1 155 1 110 -2 c 128,-1,86
 65 -5 65 -5 33 -6 c 1,87,88
 29 -2 29 -2 28.5 18.5 c 128,-1,89
 28 39 28 39 33 52 c 1,90,91
 66 52 66 52 124.5 61.5 c 128,-1,92
 183 71 183 71 195 88 c 0,93,94
 216 118 216 118 219 188 c 0,95,96
 247 935 247 935 247 1144 c 0,97,98
 247 1202 247 1202 239 1224 c 0,99,100
 234 1240 234 1240 179.5 1253 c 128,-1,101
 125 1266 125 1266 99 1266 c 0,102,103
 96 1266 96 1266 96 1293.5 c 128,-1,104
 96 1321 96 1321 99 1324 c 1,105,106
 134 1322 134 1322 169.5 1319.5 c 128,-1,107
 205 1317 205 1317 234.5 1315.5 c 128,-1,108
 264 1314 264 1314 305 1314 c 0,0,1
EndSplineSet
Fore
SplineSet
1176.32617188 1289.47851562 m 1
 1584.32617188 1289.47851562 l 1
 1584.32617188 0 l 1
 1201.13671875 0 l 1
 1201.13671875 738.12109375 l 1
 965.326171875 0 l 1
 696.326171875 0 l 5
 426.71875 779.127929688 l 1
 426.71875 0.27734375 l 1
 225.840820312 0.27734375 l 1
 225.840820312 1099.14648438 l 1
 120 1099.14648438 l 1
 120 1289.47851562 l 1
 642.326171875 1289.47851562 l 1
 917.69140625 472.131835938 l 1
 1176.32617188 1289.47851562 l 1
EndSplineSet
Colour: ffff00
EndChar
StartChar: N
Encoding: 78 78 45
Width: 1382
Flags: HW
LayerCount: 2
Back
SplineSet
266 1320 m 0,0,1
 362 1320 362 1320 418 1324 c 1,2,3
 468 1246 468 1246 778 868.5 c 128,-1,4
 1088 491 1088 491 1202 332 c 1,5,-1
 1202 448 l 1,6,-1
 1202 1090 l 2,7,8
 1202 1152 1202 1152 1199 1179 c 128,-1,9
 1196 1206 1196 1206 1182 1228 c 0,10,11
 1174 1242 1174 1242 1116.5 1255 c 128,-1,12
 1059 1268 1059 1268 1030 1268 c 1,13,14
 1023 1278 1023 1278 1022.5 1298 c 128,-1,15
 1022 1318 1022 1318 1026 1326 c 1,16,17
 1226 1316 1226 1316 1256 1316 c 0,18,19
 1297 1316 1297 1316 1328.5 1317.5 c 128,-1,20
 1360 1319 1360 1319 1398 1322 c 128,-1,21
 1436 1325 1436 1325 1470 1326 c 1,22,23
 1485 1301 1485 1301 1470 1268 c 1,24,25
 1442 1268 1442 1268 1382.5 1256 c 128,-1,26
 1323 1244 1323 1244 1314 1228 c 0,27,28
 1301 1207 1301 1207 1297.5 1180 c 128,-1,29
 1294 1153 1294 1153 1294 1092 c 2,30,-1
 1294 278 l 2,31,32
 1294 106 1294 106 1298 2 c 1,33,34
 1296 -10 1296 -10 1272 -10 c 0,35,36
 1261 -10 1261 -10 1240.5 1 c 128,-1,37
 1220 12 1220 12 1202 36 c 2,38,-1
 330 1138 l 1,39,-1
 330 230 l 2,40,41
 330 168 330 168 333 141 c 128,-1,42
 336 114 336 114 350 92 c 0,43,44
 358 78 358 78 414.5 65 c 128,-1,45
 471 52 471 52 500 52 c 1,46,47
 507 42 507 42 507.5 22 c 128,-1,48
 508 2 508 2 504 -6 c 1,49,50
 304 4 304 4 276 4 c 0,51,52
 235 4 235 4 203.5 2.5 c 128,-1,53
 172 1 172 1 134 -2 c 128,-1,54
 96 -5 96 -5 62 -6 c 1,55,56
 47 19 47 19 62 52 c 1,57,58
 90 52 90 52 149.5 64 c 128,-1,59
 209 76 209 76 218 92 c 0,60,61
 231 113 231 113 234.5 140 c 128,-1,62
 238 167 238 167 238 228 c 2,63,-1
 238 1096 l 2,64,65
 238 1157 238 1157 234.5 1184 c 128,-1,66
 231 1211 231 1211 218 1232 c 0,67,68
 209 1248 209 1248 149.5 1260 c 128,-1,69
 90 1272 90 1272 62 1272 c 1,70,71
 47 1305 47 1305 62 1330 c 1,72,73
 94 1329 94 1329 161 1324.5 c 128,-1,74
 228 1320 228 1320 266 1320 c 0,0,1
EndSplineSet
Fore
SplineSet
1061.76855469 1289.47851562 m 5
 1262.92285156 1289.47851562 l 5
 1262.92285156 0 l 5
 997.48828125 0 l 5
 427.827148438 840.083984375 l 5
 427.827148438 0 l 5
 226.672851562 0 l 5
 226.672851562 1099.14648438 l 5
 120 1099.14648438 l 5
 120 1289.47851562 l 5
 551.922851562 1289.47851562 l 5
 1061.76855469 539.18359375 l 5
 1061.76855469 1289.47851562 l 5
EndSplineSet
Colour: ffff00
EndChar
StartChar: O
Encoding: 79 79 46
Width: 1297
Flags: HW
HStem: -35.9844 205.034<545.079 752.751> 1119.41 205.865<545.844 750.935>
VStem: 80 420.872<366.567 880.071> 796.786 420.872<408.94 922.195>
LayerCount: 2
Back
SplineSet
656 1266 m 0,0,1
 569 1266 569 1266 497.5 1232.5 c 128,-1,2
 426 1199 426 1199 378.5 1144 c 128,-1,3
 331 1089 331 1089 298 1015 c 128,-1,4
 265 941 265 941 250.5 862 c 128,-1,5
 236 783 236 783 236 700 c 0,6,7
 236 582 236 582 268.5 467 c 128,-1,8
 301 352 301 352 360 258 c 128,-1,9
 419 164 419 164 512.5 106 c 128,-1,10
 606 48 606 48 718 48 c 0,11,12
 805 48 805 48 877 81.5 c 128,-1,13
 949 115 949 115 996.5 170.5 c 128,-1,14
 1044 226 1044 226 1077.5 300.5 c 128,-1,15
 1111 375 1111 375 1125.5 455 c 128,-1,16
 1140 535 1140 535 1140 618 c 0,17,18
 1140 736 1140 736 1107 850.5 c 128,-1,19
 1074 965 1074 965 1014.5 1058 c 128,-1,20
 955 1151 955 1151 861.5 1208.5 c 128,-1,21
 768 1266 768 1266 656 1266 c 0,0,1
686 1334 m 0,22,23
 817 1334 817 1334 936 1283.5 c 128,-1,24
 1055 1233 1055 1233 1144 1145 c 128,-1,25
 1233 1057 1233 1057 1285.5 929.5 c 128,-1,26
 1338 802 1338 802 1338 656 c 0,27,28
 1338 519 1338 519 1285.5 393.5 c 128,-1,29
 1233 268 1233 268 1144.5 177.5 c 128,-1,30
 1056 87 1056 87 936 33.5 c 128,-1,31
 816 -20 816 -20 686 -20 c 0,32,33
 555 -20 555 -20 436.5 30.5 c 128,-1,34
 318 81 318 81 230 169 c 128,-1,35
 142 257 142 257 90 384 c 128,-1,36
 38 511 38 511 38 656 c 0,37,38
 38 794 38 794 90 919.5 c 128,-1,39
 142 1045 142 1045 229.5 1135.5 c 128,-1,40
 317 1226 317 1226 436.5 1280 c 128,-1,41
 556 1334 556 1334 686 1334 c 0,22,23
EndSplineSet
Fore
SplineSet
1068.59375 1106.10742188 m 4
 1160.85839844 990.845703125 1217.65820312 839.009765625 1217.65820312 672.766601562 c 4
 1217.65820312 491.838867188 1160.58203125 326.98046875 1067.20800781 201.744140625 c 4
 962.751953125 61.2685546875 812.30078125 -35.984375 644.950195312 -35.984375 c 4
 477.875976562 -35.984375 332.134765625 53.787109375 229.064453125 182.625976562 c 4
 136.799804688 297.887695312 80 449.723632812 80 616.244140625 c 4
 80 797.172851562 137.076171875 962.030273438 230.450195312 1087.26757812 c 4
 334.905273438 1227.7421875 470.948242188 1325.27246094 652.708007812 1325.27246094 c 4
 830.865234375 1325.27246094 965.522460938 1234.94726562 1068.59375 1106.10742188 c 4
796.786132812 317.006835938 m 6
 796.786132812 971.451171875 l 6
 796.786132812 1053.1875 730.565429688 1119.40722656 648.829101562 1119.40722656 c 4
 567.092773438 1119.40722656 500.872070312 1053.1875 500.872070312 971.451171875 c 6
 500.872070312 317.006835938 l 6
 500.872070312 235.26953125 567.092773438 169.049804688 648.829101562 169.049804688 c 4
 730.565429688 169.049804688 796.786132812 235.26953125 796.786132812 317.006835938 c 6
EndSplineSet
Colour: ffff00
EndChar
StartChar: P
Encoding: 80 80 47
Width: 1205
Flags: HW
LayerCount: 2
Back
SplineSet
896 958 m 0,0,1
 896 776 896 776 774.5 666 c 128,-1,2
 653 556 653 556 456 556 c 0,3,4
 402 556 402 556 370 572 c 1,5,6
 342 591 342 591 342 616 c 0,7,8
 342 618 342 618 343 620.5 c 128,-1,9
 344 623 344 623 346 625 c 128,-1,10
 348 627 348 627 352 626 c 0,11,12
 403 612 403 612 428 612 c 0,13,14
 552 612 552 612 632 695 c 128,-1,15
 712 778 712 778 712 924 c 0,16,17
 712 1077 712 1077 628 1165.5 c 128,-1,18
 544 1254 544 1254 382 1254 c 0,19,20
 291 1254 291 1254 282 1234 c 0,21,22
 272 1210 272 1210 272 1084 c 2,23,-1
 272 232 l 2,24,25
 272 116 272 116 282 84 c 0,26,27
 286 70 286 70 338 61 c 128,-1,28
 390 52 390 52 420 52 c 1,29,30
 426 44 426 44 426.5 23 c 128,-1,31
 427 2 427 2 420 -6 c 1,32,33
 215 4 215 4 186 4 c 0,34,35
 155 4 155 4 -50 -6 c 1,36,37
 -57 2 -57 2 -56.5 23 c 128,-1,38
 -56 44 -56 44 -50 52 c 1,39,40
 -20 52 -20 52 32 61 c 128,-1,41
 84 70 84 70 88 84 c 0,42,43
 98 116 98 116 98 232 c 2,44,-1
 98 1086 l 2,45,46
 98 1202 98 1202 88 1234 c 0,47,48
 84 1248 84 1248 32 1257 c 128,-1,49
 -20 1266 -20 1266 -50 1266 c 1,50,51
 -56 1274 -56 1274 -56.5 1295 c 128,-1,52
 -57 1316 -57 1316 -50 1324 c 1,53,54
 155 1314 155 1314 186 1314 c 0,55,56
 220 1314 220 1314 313 1316 c 128,-1,57
 406 1318 406 1318 470 1318 c 0,58,59
 579 1318 579 1318 674.5 1277.5 c 128,-1,60
 770 1237 770 1237 833 1153 c 128,-1,61
 896 1069 896 1069 896 958 c 0,0,1
EndSplineSet
Fore
SplineSet
1125.46875 897.713867188 m 2
 1125.74609375 855.044921875 l 2
 1125.74609375 643.083984375 906.026367188 467.975585938 676.056640625 467.975585938 c 2
 488.755859375 467.975585938 l 1
 488.478515625 0 l 1
 105.842773438 0 l 1
 105.842773438 1099.14550781 l 1
 0 1099.14550781 l 1
 0 1289.47851562 l 1
 675.779296875 1289.47851562 l 2
 905.47265625 1289.47851562 1124.06738281 1113.26757812 1125.46875 897.713867188 c 2
742.83203125 788.547851562 m 2
 742.83203125 963.379882812 l 2
 742.83203125 1031.81640625 688.802734375 1089.44726562 625.075195312 1089.44726562 c 2
 488.755859375 1089.44726562 l 1
 488.755859375 662.479492188 l 1
 625.075195312 662.479492188 l 2
 689.079101562 662.479492188 742.83203125 720.110351562 742.83203125 788.547851562 c 2
EndSplineSet
Colour: ffff00
EndChar
StartChar: Q
Encoding: 81 81 50
Width: 1417
Flags: HW
LayerCount: 2
Back
SplineSet
716 1266 m 0,0,1
 629 1266 629 1266 557.5 1232.5 c 128,-1,2
 486 1199 486 1199 438.5 1144 c 128,-1,3
 391 1089 391 1089 358 1015 c 128,-1,4
 325 941 325 941 310.5 862 c 128,-1,5
 296 783 296 783 296 700 c 0,6,7
 296 582 296 582 328.5 467 c 128,-1,8
 361 352 361 352 420 258 c 128,-1,9
 479 164 479 164 572.5 106 c 128,-1,10
 666 48 666 48 778 48 c 0,11,12
 865 48 865 48 937 81.5 c 128,-1,13
 1009 115 1009 115 1056.5 170.5 c 128,-1,14
 1104 226 1104 226 1137.5 300.5 c 128,-1,15
 1171 375 1171 375 1185.5 455 c 128,-1,16
 1200 535 1200 535 1200 618 c 0,17,18
 1200 736 1200 736 1167 850.5 c 128,-1,19
 1134 965 1134 965 1074.5 1058 c 128,-1,20
 1015 1151 1015 1151 921.5 1208.5 c 128,-1,21
 828 1266 828 1266 716 1266 c 0,0,1
746 1334 m 0,22,23
 877 1334 877 1334 996 1283.5 c 128,-1,24
 1115 1233 1115 1233 1204 1145 c 128,-1,25
 1293 1057 1293 1057 1345.5 929.5 c 128,-1,26
 1398 802 1398 802 1398 656 c 0,27,28
 1398 430 1398 430 1266.5 251 c 128,-1,29
 1135 72 1135 72 932 8 c 1,30,31
 987 -18 987 -18 1050.5 -56 c 128,-1,32
 1114 -94 1114 -94 1148 -113 c 128,-1,33
 1182 -132 1182 -132 1239.5 -147 c 128,-1,34
 1297 -162 1297 -162 1370 -162 c 0,35,36
 1470 -162 1470 -162 1512 -150 c 1,37,38
 1539 -150 1539 -150 1548 -164 c 0,39,40
 1550 -168 1550 -168 1550 -170 c 1,41,42
 1454 -221 1454 -221 1378 -246.5 c 128,-1,43
 1302 -272 1302 -272 1218 -272 c 0,44,45
 1158 -272 1158 -272 1096.5 -250.5 c 128,-1,46
 1035 -229 1035 -229 977 -195 c 128,-1,47
 919 -161 919 -161 861 -125 c 128,-1,48
 803 -89 803 -89 730 -53.5 c 128,-1,49
 657 -18 657 -18 586 0 c 0,50,51
 372 54 372 54 235 232.5 c 128,-1,52
 98 411 98 411 98 656 c 0,53,54
 98 794 98 794 150 919.5 c 128,-1,55
 202 1045 202 1045 289.5 1135.5 c 128,-1,56
 377 1226 377 1226 496.5 1280 c 128,-1,57
 616 1334 616 1334 746 1334 c 0,22,23
EndSplineSet
Fore
SplineSet
1128.59472656 1105.55566406 m 4
 1220.85839844 990.294921875 1277.65820312 838.458007812 1277.38183594 671.938476562 c 4
 1277.38183594 491.009765625 1220.3046875 326.151367188 1126.93164062 200.915039062 c 4
 1047.96582031 94.796875 942.677734375 13.6142578125 823.813476562 -19.912109375 c 5
 898.069335938 -109.12890625 1009.73046875 -78.373046875 1009.73046875 -78.373046875 c 5
 1010.28417969 -223.004882812 l 5
 908.043945312 -240.737304688 783.084960938 -217.186523438 694.975585938 -128.80078125 c 4
 665.051757812 -98.599609375 641.5 -64.7978515625 623.213867188 -28.5009765625 c 5
 490.49609375 -4.671875 374.95703125 74.84765625 289.064453125 182.07421875 c 4
 196.799804688 297.3359375 140 449.171875 140 615.692382812 c 4
 140 796.62109375 197.077148438 961.479492188 290.450195312 1086.71582031 c 4
 394.90625 1227.19042969 530.948242188 1324.72070312 712.708007812 1324.72070312 c 4
 890.866210938 1324.72070312 1025.52246094 1234.39550781 1128.59472656 1105.55566406 c 4
560.595703125 970.899414062 m 6
 560.595703125 316.455078125 l 6
 560.595703125 234.717773438 626.815429688 168.498046875 708.552734375 168.498046875 c 4
 790.288085938 168.498046875 856.508789062 234.717773438 856.508789062 316.455078125 c 6
 856.508789062 970.899414062 l 6
 856.508789062 1052.63574219 790.288085938 1118.85546875 708.552734375 1118.85546875 c 4
 626.815429688 1118.85546875 560.595703125 1052.63574219 560.595703125 970.899414062 c 6
EndSplineSet
Colour: ffff00
EndChar
StartChar: R
Encoding: 82 82 51
Width: 1406
Flags: HW
LayerCount: 2
Back
SplineSet
610 1318 m 0,0,1
 680 1318 680 1318 750.5 1295.5 c 128,-1,2
 821 1273 821 1273 881.5 1231 c 128,-1,3
 942 1189 942 1189 979.5 1121.5 c 128,-1,4
 1017 1054 1017 1054 1017 972 c 0,5,6
 1017 869 1017 869 933.5 773.5 c 128,-1,7
 850 678 850 678 744 642 c 1,8,9
 873 427 873 427 1067 172 c 0,10,11
 1112 113 1112 113 1162.5 85.5 c 128,-1,12
 1213 58 1213 58 1293 52 c 1,13,14
 1299 41 1299 41 1296.5 20.5 c 128,-1,15
 1294 0 1294 0 1291 -6 c 1,16,17
 1096 -6 1096 -6 1027 18 c 0,18,19
 963 41 963 41 929 72 c 0,20,21
 912 87 912 87 897 106 c 0,22,23
 871 141 871 141 768.5 293 c 128,-1,24
 666 445 666 445 579 580 c 0,25,26
 563 604 563 604 519 604 c 2,27,-1
 413 604 l 1,28,-1
 413 232 l 2,29,30
 413 116 413 116 423 84 c 0,31,32
 427 70 427 70 479 61 c 128,-1,33
 531 52 531 52 561 52 c 1,34,35
 567 44 567 44 567.5 23 c 128,-1,36
 568 2 568 2 561 -6 c 1,37,38
 356 4 356 4 327 4 c 0,39,40
 296 4 296 4 91 -6 c 1,41,42
 84 2 84 2 84.5 23 c 128,-1,43
 85 44 85 44 91 52 c 1,44,45
 121 52 121 52 173 61 c 128,-1,46
 225 70 225 70 229 84 c 0,47,48
 237 109 237 109 239 232 c 1,49,-1
 238 1086 l 2,50,51
 238 1202 238 1202 228 1234 c 0,52,53
 224 1248 224 1248 172 1257 c 128,-1,54
 120 1266 120 1266 90 1266 c 1,55,56
 84 1274 84 1274 83.5 1295 c 128,-1,57
 83 1316 83 1316 90 1324 c 1,58,59
 295 1314 295 1314 326 1314 c 0,60,61
 360 1314 360 1314 453 1316 c 128,-1,62
 546 1318 546 1318 610 1318 c 0,0,1
830 954 m 0,63,64
 830 1093 830 1093 755.5 1173.5 c 128,-1,65
 681 1254 681 1254 522 1254 c 0,66,67
 431 1254 431 1254 422 1234 c 0,68,69
 412 1210 412 1210 412 1084 c 2,70,-1
 413 666 l 1,71,-1
 520 666 l 2,72,73
 643 666 643 666 736.5 746.5 c 128,-1,74
 830 827 830 827 830 954 c 0,63,64
EndSplineSet
Fore
SplineSet
1246.03222656 0 m 1
 853.032226562 0 l 1
 629.309570312 495.405273438 l 1
 629.032226562 0 l 1
 246.119140625 0 l 1
 246.119140625 1099.14648438 l 1
 140 1099.14648438 l 1
 140 1289.47851562 l 5
 829.6328125 1289.47851562 l 6
 1067.63867188 1289.47851562 1266.02148438 1111.05957031 1266.02148438 897.713867188 c 0
 1266.02148438 725.65234375 1159.34960938 587.670898438 1008.89941406 526.4375 c 1
 1246.03222656 0 l 1
629.309570312 1089.44824219 m 1
 629.309570312 691.018554688 l 1
 765.62890625 691.018554688 l 2
 829.6328125 691.018554688 883.385742188 748.650390625 883.385742188 817.086914062 c 2
 883.385742188 963.379882812 l 2
 883.385742188 1031.81738281 829.356445312 1089.44824219 765.62890625 1089.44824219 c 2
 629.309570312 1089.44824219 l 1
EndSplineSet
Colour: ffff00
EndChar
